<?xml version="1.0" encoding="UTF-8"?>
<svg version="1.1" xmlns="http://www.w3.org/2000/svg" width="512" height="512">
<path d="M0 0 C19.02633328 16.55314801 32.9967988 39.58410427 38.75 64.1875 C38.77583198 65.85396647 38.77977905 67.52109939 38.75 69.1875 C39.73733124 69.17861755 40.72466248 69.16973511 41.74191284 69.1605835 C51.12514008 69.07888873 60.50829357 69.01924604 69.89179802 68.98025131 C74.7139882 68.95952861 79.53588738 68.9314974 84.35791016 68.88574219 C89.02639682 68.84172977 93.69460667 68.81824834 98.36328506 68.80799103 C100.12916537 68.80069759 101.89503351 68.78646131 103.6607933 68.76457977 C131.58825064 68.43280748 156.76159476 76.77182981 177.0078125 96.44921875 C177.91273438 97.35285156 178.81765625 98.25648438 179.75 99.1875 C180.55179687 99.97769531 181.35359375 100.76789063 182.1796875 101.58203125 C191.16814277 110.95926054 197.1671153 121.83627875 201.6875 133.9375 C202.11119873 135.07046509 202.11119873 135.07046509 202.54345703 136.22631836 C210.58010307 159.01324025 209.08947898 186.25817178 199.21875 208.2265625 C194.10417488 218.5373283 188.47795438 227.58261463 180.75 236.1875 C179.81414062 237.24710937 179.81414062 237.24710937 178.859375 238.328125 C162.64708946 255.63031209 138.10421025 265.95038206 114.70297337 267.37269664 C111.61318936 267.44757579 108.52926615 267.46392428 105.43859863 267.45492554 C104.27129007 267.45945665 103.1039815 267.46398776 101.90129995 267.46865618 C98.70223356 267.47903174 95.50331068 267.48064253 92.30423307 267.47826743 C88.83874159 267.47785575 85.37328242 267.48893077 81.9078064 267.49838257 C75.13738093 267.51491097 68.36699032 267.52048817 61.59654635 267.52160732 C56.09489206 267.5225606 50.59324919 267.52668472 45.09159851 267.53300858 C29.4778689 267.55058973 13.86416665 267.55985101 -1.74957293 267.55834763 C-2.58921582 267.55826772 -3.4288587 267.5581878 -4.29394531 267.55810547 C-5.5549526 267.55798283 -5.5549526 267.55798283 -6.84143478 267.55785771 C-20.49458158 267.55704312 -34.14761852 267.57623225 -47.80073351 267.6043822 C-61.83480106 267.63308887 -75.86881494 267.64692409 -89.90291262 267.64519465 C-97.77634111 267.64453054 -105.64965402 267.65003357 -113.52305603 267.67155075 C-120.21821721 267.68973217 -126.91321025 267.69413413 -133.60838538 267.6805319 C-137.02381235 267.67399005 -140.4389164 267.67392897 -143.8543129 267.6912384 C-147.5546562 267.70658995 -151.25414394 267.69744895 -154.95446777 267.68197632 C-156.03606533 267.69226344 -157.11766288 267.70255057 -158.23203611 267.71314943 C-162.69828804 267.67170691 -165.50083322 267.60365934 -169.45597076 265.40659523 C-171.25 263.1875 -171.25 263.1875 -171.25 259.1875 C-175.87 259.5175 -180.49 259.8475 -185.25 260.1875 C-185.91 261.8375 -186.57 263.4875 -187.25 265.1875 C-191.19941951 267.82044634 -194.61812458 267.49316212 -199.203125 267.48828125 C-200.09553894 267.49256638 -200.98795288 267.4968515 -201.90740967 267.50126648 C-203.8038244 267.50701563 -205.70026119 267.50750575 -207.59667969 267.50317383 C-210.44767051 267.50005721 -213.29757838 267.52331209 -216.1484375 267.54882812 C-241.97202125 267.64049578 -263.38762512 261.09822265 -282.58203125 243.01171875 C-290.80312801 234.3091522 -296.9981179 224.38855189 -301.25 213.1875 C-301.6625 212.13175781 -302.075 211.07601562 -302.5 209.98828125 C-309.14121355 189.76486359 -306.6651432 166.82184492 -297.5 147.9375 C-287.21063519 127.89006702 -271.16175625 112.92808315 -249.453125 105.89453125 C-241.85099612 103.6732341 -234.70547298 102.05199775 -226.7578125 102.08984375 C-225.55898437 102.09306641 -224.36015625 102.09628906 -223.125 102.09960938 C-221.8875 102.10798828 -220.65 102.11636719 -219.375 102.125 C-218.11429687 102.12951172 -216.85359375 102.13402344 -215.5546875 102.13867188 C-212.45307614 102.1504204 -209.35156275 102.16684833 -206.25 102.1875 C-206.30220703 100.22683594 -206.30220703 100.22683594 -206.35546875 98.2265625 C-206.93385054 67.23055651 -198.52342324 38.20895107 -178.25 14.1875 C-177.02216797 12.71603516 -177.02216797 12.71603516 -175.76953125 11.21484375 C-153.66070266 -14.4765107 -122.59565007 -28.00789465 -89.20507812 -30.671875 C-56.28857636 -33.03949551 -24.97220155 -20.93253049 0 0 Z " fill="#C7EEFD" transform="translate(305.25,54.8125)"/>
<path d="M0 0 C19.02633328 16.55314801 32.9967988 39.58410427 38.75 64.1875 C38.77583198 65.85396647 38.77977905 67.52109939 38.75 69.1875 C39.73733124 69.17861755 40.72466248 69.16973511 41.74191284 69.1605835 C51.12514008 69.07888873 60.50829357 69.01924604 69.89179802 68.98025131 C74.7139882 68.95952861 79.53588738 68.9314974 84.35791016 68.88574219 C89.02639682 68.84172977 93.69460667 68.81824834 98.36328506 68.80799103 C100.12916537 68.80069759 101.89503351 68.78646131 103.6607933 68.76457977 C131.58825064 68.43280748 156.76159476 76.77182981 177.0078125 96.44921875 C177.91273438 97.35285156 178.81765625 98.25648438 179.75 99.1875 C180.55179687 99.97769531 181.35359375 100.76789063 182.1796875 101.58203125 C191.16814277 110.95926054 197.1671153 121.83627875 201.6875 133.9375 C202.11119873 135.07046509 202.11119873 135.07046509 202.54345703 136.22631836 C210.58010307 159.01324025 209.08947898 186.25817178 199.21875 208.2265625 C194.10417488 218.5373283 188.47795438 227.58261463 180.75 236.1875 C179.81414062 237.24710937 179.81414062 237.24710937 178.859375 238.328125 C162.64708946 255.63031209 138.10421025 265.95038206 114.70297337 267.37269664 C111.61318936 267.44757579 108.52926615 267.46392428 105.43859863 267.45492554 C104.27129007 267.45945665 103.1039815 267.46398776 101.90129995 267.46865618 C98.70223356 267.47903174 95.50331068 267.48064253 92.30423307 267.47826743 C88.83874159 267.47785575 85.37328242 267.48893077 81.9078064 267.49838257 C75.13738093 267.51491097 68.36699032 267.52048817 61.59654635 267.52160732 C56.09489206 267.5225606 50.59324919 267.52668472 45.09159851 267.53300858 C29.4778689 267.55058973 13.86416665 267.55985101 -1.74957293 267.55834763 C-2.58921582 267.55826772 -3.4288587 267.5581878 -4.29394531 267.55810547 C-5.5549526 267.55798283 -5.5549526 267.55798283 -6.84143478 267.55785771 C-20.49458158 267.55704312 -34.14761852 267.57623225 -47.80073351 267.6043822 C-61.83480106 267.63308887 -75.86881494 267.64692409 -89.90291262 267.64519465 C-97.77634111 267.64453054 -105.64965402 267.65003357 -113.52305603 267.67155075 C-120.21821721 267.68973217 -126.91321025 267.69413413 -133.60838538 267.6805319 C-137.02381235 267.67399005 -140.4389164 267.67392897 -143.8543129 267.6912384 C-147.5546562 267.70658995 -151.25414394 267.69744895 -154.95446777 267.68197632 C-156.03606533 267.69226344 -157.11766288 267.70255057 -158.23203611 267.71314943 C-162.70712377 267.67162492 -165.47892291 267.63021962 -169.41300201 265.37143898 C-171.25 263.1875 -171.25 263.1875 -171.9375 259.75 C-171.20466366 255.95257533 -170.29245197 254.56511323 -167.26388109 252.21708524 C-163.05917936 250.06745542 -158.40213731 250.51042249 -153.78279114 250.5617218 C-152.04102452 250.55130498 -152.04102452 250.55130498 -150.26407069 250.54067773 C-147.04908323 250.52641644 -143.83504665 250.53446569 -140.62010372 250.551947 C-137.14957637 250.56533926 -133.67916411 250.54983274 -130.20864868 250.53778076 C-124.19602779 250.5207611 -118.18362729 250.52175281 -112.17099953 250.53478432 C-103.4658392 250.55344876 -94.76090677 250.54263143 -86.05575474 250.52430775 C-71.91597985 250.49515894 -57.77627555 250.48680446 -43.63647461 250.49291992 C-29.92943517 250.49877691 -16.22241948 250.499862 -2.51538086 250.4909668 C-1.6718829 250.49042423 -0.82838493 250.48988165 0.04067358 250.48932264 C9.25745536 250.48315095 18.47423116 250.47440616 27.69100666 250.46197033 C28.50212331 250.46087784 29.31323995 250.45978536 30.14893589 250.45865976 C33.39245458 250.45423961 36.63597313 250.44976536 39.87949125 250.44493415 C49.36009828 250.43083884 58.84062554 250.42476769 68.32124046 250.43347003 C74.2731544 250.43866767 80.22504193 250.43726539 86.17695453 250.43076698 C89.60716533 250.42733212 93.0372938 250.42722492 96.46749687 250.4359951 C100.19435695 250.44390479 103.92101584 250.43954703 107.64787292 250.43232727 C108.72065921 250.4376726 109.7934455 250.44301794 110.89874047 250.44852525 C132.65550629 250.35422157 152.45671084 241.38215476 167.9609375 226.16796875 C176.02496489 217.81851358 181.33523635 207.83989746 185.75 197.1875 C186.06710937 196.47078125 186.38421875 195.7540625 186.7109375 195.015625 C193.87913525 177.8403393 192.91760282 155.20055628 185.90429688 138.12890625 C175.93895669 115.40539169 159.91175367 99.25738843 136.75 90.1875 C126.95288144 86.71659235 117.41367116 85.10641387 107.04882812 84.98217773 C106.32589569 84.97227814 105.60296326 84.96237854 104.85812378 84.95217896 C102.49919769 84.92091653 100.14025154 84.89594808 97.78125 84.87109375 C96.13358068 84.85049365 94.48591628 84.82949644 92.83825684 84.80812073 C88.52457695 84.75321532 84.2108519 84.70366847 79.89709473 84.65527344 C75.48604362 84.60482655 71.07505723 84.54926214 66.6640625 84.49414062 C58.02609656 84.38694538 49.38807609 84.28541644 40.75 84.1875 C40.75981903 84.89114685 40.76963806 85.5947937 40.77975464 86.31976318 C40.81915262 89.5621008 40.84325518 92.80438777 40.8671875 96.046875 C40.88289795 97.15337402 40.8986084 98.25987305 40.91479492 99.39990234 C40.97532149 110.36731698 39.67315814 122.19531236 34.75 132.1875 C31.25875983 134.51499345 29.85777749 134.69049316 25.75 134.1875 C23.375 132.75 23.375 132.75 21.75 130.1875 C21.13684801 124.75672523 21.88853332 120.50695507 23.25 115.25 C29.28535897 88.99189794 23.7386258 59.82706685 9.86376953 36.93701172 C-5.60494349 12.63872204 -29.9634205 -5.44224347 -58.25 -11.8125 C-88.47548715 -17.8772883 -117.4195466 -12.42674794 -143.25 4.1875 C-146.73081374 6.70033464 -149.9989759 9.3866177 -153.25 12.1875 C-153.97316406 12.7546875 -154.69632813 13.321875 -155.44140625 13.90625 C-170.47424657 26.1691752 -180.67208733 44.82912723 -186.25 63.1875 C-186.53617187 64.06148438 -186.82234375 64.93546875 -187.1171875 65.8359375 C-190.4292536 77.60165803 -190.00410976 90.05465076 -190.25 102.1875 C-188.28994019 102.14822388 -188.28994019 102.14822388 -186.2902832 102.1081543 C-181.43564012 102.01755676 -176.58107155 101.96021555 -171.72583008 101.9128418 C-169.6257673 101.88771949 -167.52579177 101.85361542 -165.42602539 101.81030273 C-162.4048916 101.74955129 -159.38491504 101.72126737 -156.36328125 101.69921875 C-155.42664139 101.67341232 -154.49000153 101.6476059 -153.52497864 101.62101746 C-148.9409191 101.61905139 -146.91092637 101.68830129 -143.15307617 104.52661133 C-141.25 107.1875 -141.25 107.1875 -140.6875 110.25 C-141.39777295 113.9592032 -142.23340011 114.93390962 -145.25 117.1875 C-148.08433404 117.57013041 -150.52930684 117.71173086 -153.3605957 117.66992188 C-154.17589249 117.67383438 -154.99118927 117.67774689 -155.83119202 117.68177795 C-157.60121704 117.68775257 -159.37129117 117.68458357 -161.14129066 117.6733551 C-163.95628314 117.65606263 -166.77025086 117.66362161 -169.58525085 117.6776123 C-176.58583975 117.70724329 -183.58623368 117.69416041 -190.58685303 117.68243408 C-196.48971943 117.67416995 -202.39213909 117.68243883 -208.29494286 117.71156311 C-211.04395523 117.71857322 -213.7921445 117.70207658 -216.54109192 117.68444824 C-237.24140685 117.68984956 -256.13579583 123.23656655 -271.25 138.1875 C-277.93402011 145.72817459 -282.5973336 153.82168872 -286.25 163.1875 C-286.5903125 164.033125 -286.930625 164.87875 -287.28125 165.75 C-292.68423553 181.758846 -289.44449781 199.22213943 -282.8984375 214.30078125 C-274.69076767 230.50978284 -261.13825679 241.80879082 -244.11508179 247.95878601 C-237.8962109 249.98354472 -232.33962086 250.61574032 -225.82421875 250.59375 C-224.39829155 250.61000427 -224.39829155 250.61000427 -222.94355774 250.62658691 C-218.92132066 250.67206559 -214.89915719 250.68397155 -210.87670898 250.69873047 C-207.92147967 250.71442069 -204.96678674 250.74739455 -202.01171875 250.78125 C-201.10644943 250.77822876 -200.20118011 250.77520752 -199.26847839 250.77209473 C-194.47727654 250.82920496 -191.08785397 250.98053262 -187.25 254.1875 C-185.57645549 257.53458903 -185.0244387 259.28525482 -185.9375 262.9375 C-187.25 265.1875 -187.25 265.1875 -190.25 267.1875 C-193.26572538 267.39677036 -196.1864768 267.49149256 -199.203125 267.48828125 C-200.09553894 267.49256638 -200.98795288 267.4968515 -201.90740967 267.50126648 C-203.8038244 267.50701563 -205.70026119 267.50750575 -207.59667969 267.50317383 C-210.44767051 267.50005721 -213.29757838 267.52331209 -216.1484375 267.54882812 C-241.97202125 267.64049578 -263.38762512 261.09822265 -282.58203125 243.01171875 C-290.80312801 234.3091522 -296.9981179 224.38855189 -301.25 213.1875 C-301.6625 212.13175781 -302.075 211.07601562 -302.5 209.98828125 C-309.14121355 189.76486359 -306.6651432 166.82184492 -297.5 147.9375 C-287.21063519 127.89006702 -271.16175625 112.92808315 -249.453125 105.89453125 C-241.85099612 103.6732341 -234.70547298 102.05199775 -226.7578125 102.08984375 C-225.55898437 102.09306641 -224.36015625 102.09628906 -223.125 102.09960938 C-221.8875 102.10798828 -220.65 102.11636719 -219.375 102.125 C-218.11429687 102.12951172 -216.85359375 102.13402344 -215.5546875 102.13867188 C-212.45307614 102.1504204 -209.35156275 102.16684833 -206.25 102.1875 C-206.30220703 100.22683594 -206.30220703 100.22683594 -206.35546875 98.2265625 C-206.93385054 67.23055651 -198.52342324 38.20895107 -178.25 14.1875 C-177.02216797 12.71603516 -177.02216797 12.71603516 -175.76953125 11.21484375 C-153.66070266 -14.4765107 -122.59565007 -28.00789465 -89.20507812 -30.671875 C-56.28857636 -33.03949551 -24.97220155 -20.93253049 0 0 Z " fill="#020303" transform="translate(305.25,54.8125)"/>
<path d="M0 0 C13.29488604 11.50480305 20.5481021 25.2578889 22.46484375 42.7890625 C23.08644119 58.0803596 17.74812653 72.60394041 7.83203125 84.109375 C-3.80489726 96.36797582 -17.69783374 103.38406596 -34.77086449 103.9572525 C-38.29830356 104.00342191 -41.82455254 104.01736252 -45.35229492 104.02050781 C-46.70495232 104.02514413 -48.05760843 104.03016986 -49.41026306 104.03555298 C-53.06290067 104.04859073 -56.71551998 104.0551036 -60.36817718 104.05956364 C-62.65242425 104.06250513 -64.93666643 104.06661167 -67.22091103 104.07106781 C-74.37510184 104.08471283 -81.52928134 104.09439712 -88.68348426 104.0982697 C-96.93040981 104.10275937 -105.17717036 104.12036173 -113.42404574 104.1492703 C-119.81064765 104.17087915 -126.19720306 104.18097336 -132.58384115 104.18231082 C-136.39405995 104.18335835 -140.204123 104.18925653 -144.01430321 104.20713043 C-147.59391113 104.22360001 -151.17324589 104.22577225 -154.75287819 104.21699142 C-156.69013071 104.21585361 -158.62737415 104.22957492 -160.5645752 104.2437439 C-162.29927315 104.23539017 -162.29927315 104.23539017 -164.0690155 104.22686768 C-165.57300541 104.22906752 -165.57300541 104.22906752 -167.10737896 104.2313118 C-170.63171269 103.75431523 -173.32409696 102.39074679 -175.85546875 99.859375 C-176.44999567 92.60614663 -176.44999567 92.60614663 -174.18326473 89.75895786 C-171.29043436 87.39828234 -169.88252533 87.35981004 -166.18495178 87.36058044 C-165.02867279 87.35100311 -163.8723938 87.34142578 -162.68107605 87.33155823 C-161.41612808 87.34130173 -160.15118011 87.35104523 -158.84790039 87.36108398 C-157.4989563 87.35725977 -156.15001629 87.35163984 -154.80108643 87.34436035 C-151.89649381 87.3324074 -148.99226268 87.33290124 -146.08766365 87.34295464 C-141.48396484 87.35853786 -136.88063559 87.34481849 -132.27696228 87.32691956 C-123.32132694 87.29608557 -114.36580434 87.29459675 -105.41012573 87.29656982 C-94.04387255 87.29796167 -82.67770798 87.28740114 -71.31151861 87.2479921 C-66.74721288 87.23315639 -62.18323634 87.23325642 -57.61892617 87.24546993 C-54.76006856 87.25022546 -51.90133333 87.24259194 -49.04249573 87.23192596 C-47.11152863 87.22842373 -45.18055179 87.23970762 -43.24961853 87.25166321 C-29.00129464 87.17018176 -16.89715586 84.3950556 -6.10546875 74.734375 C0.14513851 68.05523911 4.08180692 58.9091369 5.14453125 49.859375 C5.22703125 49.16714844 5.30953125 48.47492188 5.39453125 47.76171875 C6.00028273 37.33143541 1.82935432 26.74058699 -4.85546875 18.859375 C-13.15308765 9.7699356 -23.27989829 5.45079365 -35.48046875 4.609375 C-46.83785014 4.84733918 -56.57198279 9.13415717 -64.921875 16.7421875 C-72.42416622 24.74679196 -75.41074933 33.25135033 -76.60449219 43.97045898 C-77.09797227 47.69674587 -77.61350737 49.60264041 -80.22265625 52.37109375 C-82.85546875 53.859375 -82.85546875 53.859375 -86.48046875 53.796875 C-91.23046875 52.47743056 -91.23046875 52.47743056 -92.85546875 49.859375 C-95.56290452 37.86682299 -91.38334399 25.45737053 -85.25390625 15.171875 C-76.33006011 1.80647987 -63.78585439 -7.79898895 -47.85546875 -11.140625 C-30.9356676 -14.46415737 -13.80208868 -10.34684623 0 0 Z " fill="#000000" transform="translate(440.85546875,384.140625)"/>
<path d="M0 0 C12.39852995 9.48886 20.66000618 21.6495593 24 37 C25.53507879 55.86770629 22.33653243 72.40492266 9.875 87.1875 C0.5451493 97.0339364 -12.09982967 104.48497476 -25.89981937 105.13701439 C-26.97404368 105.14258669 -28.04826799 105.14815899 -29.15504456 105.15390015 C-30.39301788 105.16250061 -31.63099121 105.17110107 -32.90647888 105.17996216 C-34.27041584 105.18439658 -35.63435324 105.18869501 -36.99829102 105.19287109 C-38.44079788 105.20077821 -39.88330279 105.20904753 -41.32580566 105.21765137 C-46.0518202 105.24378278 -50.77784325 105.25916175 -55.50390625 105.2734375 C-57.13239993 105.27879926 -58.76089356 105.28417677 -60.38938713 105.28956985 C-67.16047302 105.31117807 -73.93155659 105.32991734 -80.70266819 105.34119225 C-90.40361106 105.3574542 -100.10415496 105.39070944 -109.80494744 105.44759309 C-116.62968283 105.48624966 -123.45431126 105.50581933 -130.27915329 105.51111281 C-134.35498562 105.51476978 -138.43039155 105.52682868 -142.50610542 105.55921555 C-146.33694287 105.58922434 -150.16709418 105.59563434 -153.99802399 105.58383179 C-155.40413658 105.5836105 -156.8102804 105.5919613 -158.2162838 105.60948563 C-160.13470237 105.6320972 -162.05343077 105.62092243 -163.97193909 105.60800171 C-165.04578637 105.61131186 -166.11963366 105.614622 -167.22602177 105.61803246 C-170 105 -170 105 -172.38066006 102.68856239 C-174 100 -174 100 -173.9375 96.375 C-173.00044447 93.00160011 -172.71952462 92.00178032 -170 90 C-167.52479649 89.62082577 -167.52479649 89.62082577 -164.51893616 89.61473083 C-163.37941498 89.60508301 -162.2398938 89.59543518 -161.06584167 89.585495 C-159.18872246 89.59236076 -159.18872246 89.59236076 -157.27368164 89.59936523 C-155.95627991 89.59238617 -154.63887817 89.5854071 -153.28155518 89.57821655 C-150.41357157 89.5630892 -147.54577427 89.55733047 -144.67775154 89.55874443 C-140.13324287 89.56077902 -135.58898374 89.54120077 -131.04454041 89.51856995 C-122.2041807 89.47755395 -113.36384039 89.45899916 -104.52340698 89.44239807 C-93.30374273 89.42006699 -82.08413657 89.38624064 -70.86456579 89.33519894 C-66.35776548 89.31539895 -61.85109479 89.30570528 -57.34425271 89.30424678 C-54.5226052 89.30147162 -51.70102763 89.29058662 -48.87940979 89.27773666 C-46.9709218 89.27150176 -45.06240949 89.27502549 -43.15391541 89.27897644 C-28.67810131 89.19412715 -14.63292251 87.14905669 -3.59375 76.89453125 C5.38292252 66.2237318 8.07903673 54.6924729 7.24267578 41.08886719 C6.04223382 30.75588793 -0.45417408 21.74194659 -8.25 15.25 C-17.12393162 8.68448978 -27.07506698 6.14527551 -38 7 C-49.41014796 9.03809957 -59.47810431 14.15139994 -66.5625 23.4375 C-71.38104569 30.55509037 -73.81830866 38.52536167 -74.5625 47.0625 C-75 51 -75 51 -76.125 53.5 C-79.01211415 55.80969132 -81.35306206 55.93712176 -85 56 C-87.94755732 54.65437601 -89.54277272 53.91445456 -91 51 C-92.93315793 36.23194108 -86.62647271 22.23238894 -78.26171875 10.578125 C-59.67082425 -12.51120865 -24.11027467 -16.74636132 0 0 Z " fill="#000000" transform="translate(223,349)"/>
<path d="M0 0 C6.34194563 0.90599223 11.51195376 3.02157739 17.1875 5.875 C17.86425781 6.21466797 18.54101562 6.55433594 19.23828125 6.90429688 C38.61126182 16.87568393 53.5647331 33.84026869 60.35473633 54.58374023 C61.31319325 57.70860715 62.19090611 60.83225295 63 64 C63.20238281 64.76828125 63.40476562 65.5365625 63.61328125 66.328125 C66.91522243 89.14153676 61.46891815 112.05595496 48.0078125 130.76953125 C36.80670072 145.02005602 21.15804292 157.89530831 3 162 C2.34 161.67 1.68 161.34 1 161 C1.66644531 160.52691406 2.33289063 160.05382812 3.01953125 159.56640625 C21.74017863 146.13466904 35.32648858 132.05203282 43 110 C43.28617187 109.195625 43.57234375 108.39125 43.8671875 107.5625 C46.75239291 99.20914339 47.18272905 91.75899397 47.1875 82.9375 C47.20586914 81.19049805 47.20586914 81.19049805 47.22460938 79.40820312 C47.2632554 56.28500003 39.51061743 36.344344 23.43359375 19.671875 C22 18 22 18 22 16 C21.41476562 15.73703125 20.82953125 15.4740625 20.2265625 15.203125 C17.90024319 13.94609632 16.29269508 12.56160982 14.375 10.75 C10.51948993 7.27276639 6.42030707 4.70661874 1.90625 2.1640625 C1.2771875 1.77992188 0.648125 1.39578125 0 1 C0 0.67 0 0.34 0 0 Z " fill="#97DFF8" transform="translate(433,142)"/>
<path d="M0 0 C5.63177896 3.76115274 10.22461292 8.33954162 12 15 C13.16926079 23.6859373 12.16935839 30.81744927 7 38 C2.60616897 42.91495982 -1.81168262 45.5738437 -8.45703125 46.25 C-12.460826 46.43758628 -15.13357233 46.51573075 -18.625 44.4375 C-20.52641491 41.06680993 -20.47647608 38.81180865 -20 35 C-18.45839771 32.29970953 -17.51041103 31.19936638 -14.58984375 30.05859375 C-13.71457031 29.85363281 -12.83929688 29.64867187 -11.9375 29.4375 C-7.67675356 28.50802592 -7.67675356 28.50802592 -5 25 C-4.65128357 21.72206555 -4.67524872 19.66754431 -6.125 16.6875 C-8.70124565 14.36887891 -10.57091775 14.13996254 -14 14 C-16.14470865 14.5640933 -16.14470865 14.5640933 -18 16 C-19.20505157 18.52501227 -19.20505157 18.52501227 -20 21.4375 C-21.23466861 25.57694698 -22.11252098 27.88613804 -26 30 C-30.20625886 29.77861795 -32.47567443 29.34955038 -36 27 C-37.79898075 21.61444369 -37.08387007 16.3338741 -35.0703125 11.13671875 C-31.72100779 4.45033307 -26.94256918 0.61400378 -20 -2 C-12.97651882 -4.01438275 -6.51211789 -3.15535609 0 0 Z " fill="#000000" transform="translate(202,375)"/>
<path d="M0 0 C5.51811787 4.67282959 8.37384769 10.35788478 9.33203125 17.484375 C9.59414793 24.92848885 7.75361959 30.44032264 3.08203125 36.234375 C-2.13175195 41.68762215 -6.90693776 44.09159879 -14.48046875 44.484375 C-18.23305679 44.32801716 -19.40401527 44.16671511 -22.48046875 41.859375 C-24.10511166 38.04146417 -23.83299916 35.89098447 -22.73046875 31.921875 C-20.55229438 29.15086418 -18.59279573 28.40987226 -15.23046875 27.546875 C-12.06541531 26.55037367 -10.88080621 26.08080318 -8.54296875 23.609375 C-7.43578815 19.94716223 -7.97305906 18.29024357 -9.73046875 14.921875 C-11.87345168 12.76933134 -11.87345168 12.76933134 -14.73046875 11.921875 C-18.26211171 12.68360191 -20.16918287 13.36058912 -22.73046875 15.921875 C-23.23596596 17.38559493 -23.68911474 18.86784799 -24.10546875 20.359375 C-25.00227265 23.11638104 -25.62258529 24.79087365 -27.48046875 27.046875 C-30.86697975 28.3638515 -33.25943818 27.80541005 -36.73046875 26.921875 C-39.0433701 25.23538443 -39.65424104 24.34696468 -40.1640625 21.50390625 C-40.17480159 13.88989281 -39.21178515 8.53160061 -33.82421875 2.9453125 C-23.67273813 -6.25920165 -11.71154077 -7.74621594 0 0 Z " fill="#000000" transform="translate(420.73046875,410.078125)"/>
<path d="M0 0 C6.87036073 1.83143492 13.04753885 4.20662126 19.3125 7.5625 C20.13500244 8.00158691 20.95750488 8.44067383 21.80493164 8.89306641 C48.31917263 23.4099953 66.07364443 47.02649445 75.1015625 75.625 C76.21236169 79.79774131 76.7733423 83.69350364 77 88 C75.08458862 88.10841951 73.16740227 88.18578079 71.25 88.25 C70.18265625 88.29640625 69.1153125 88.3428125 68.015625 88.390625 C65 88 65 88 62.78125 86.59375 C60.15289341 82.76649392 59.34547413 78.72182646 58.25 74.25 C49.66687752 41.91773142 28.042556 18.16891184 0 1 C0 0.67 0 0.34 0 0 Z " fill="#97DEF8" transform="translate(253,44)"/>
<path d="M0 0 C1.34233704 -0.00929787 1.34233704 -0.00929787 2.71179199 -0.01878357 C4.6013073 -0.02587842 6.49088517 -0.02271354 8.38037109 -0.01000977 C11.2716769 0.00386033 14.15974861 -0.03022235 17.05078125 -0.06835938 C18.88802163 -0.06931056 20.72526605 -0.06745181 22.5625 -0.0625 C23.42613159 -0.07575821 24.28976318 -0.08901642 25.17956543 -0.10267639 C31.13797908 -0.01021236 31.13797908 -0.01021236 34.36132812 2.87915039 C36.29961515 6.5474319 35.87647392 8.62360012 34.78125 12.56640625 C33.20239034 14.62578841 32.08982577 15.41211836 29.78125 16.56640625 C27.06828395 16.68974837 24.38200785 16.75480635 21.66796875 16.76953125 C20.86140335 16.77523132 20.05483795 16.7809314 19.22383118 16.7868042 C17.51487542 16.7962582 15.8059014 16.80278977 14.09692383 16.80664062 C11.48941959 16.81632945 8.88270922 16.84734125 6.27539062 16.87890625 C4.61458801 16.8854381 2.95377976 16.89068786 1.29296875 16.89453125 C0.1270948 16.91305145 0.1270948 16.91305145 -1.06233215 16.9319458 C-5.62631913 16.91328341 -8.60257834 16.42386448 -12.21875 13.56640625 C-13.76461876 10.47466873 -13.51234521 7.97211073 -13.21875 4.56640625 C-9.85637697 -0.53800815 -5.56466133 -0.03195806 0 0 Z " fill="#000000" transform="translate(311.21875,355.43359375)"/>
<path d="M0 0 C0.80515045 -0.00570007 1.6103009 -0.01140015 2.43984985 -0.01727295 C4.14282928 -0.02671436 5.8458269 -0.03325352 7.54882812 -0.03710938 C10.14746123 -0.04681301 12.74530253 -0.07784284 15.34375 -0.109375 C16.99999531 -0.11590567 18.65624627 -0.12115589 20.3125 -0.125 C21.08661224 -0.1373468 21.86072449 -0.1496936 22.65829468 -0.16241455 C27.21210178 -0.14371154 30.17908539 0.35504604 33.7890625 3.203125 C34.63671875 5.0703125 34.63671875 5.0703125 34.8515625 7.078125 C34.94566406 7.73554688 35.03976563 8.39296875 35.13671875 9.0703125 C34.58379624 12.46239894 33.28531528 13.85192829 30.7890625 16.203125 C27.72048423 16.9478917 24.71526725 16.88031164 21.5703125 16.83203125 C20.67542114 16.83444321 19.78052979 16.83685516 18.85852051 16.83934021 C16.968949 16.83836194 15.07934878 16.82497293 13.18994141 16.80004883 C10.29881362 16.76574071 7.41074265 16.77938934 4.51953125 16.79882812 C2.68227866 16.79192952 0.84503396 16.782257 -0.9921875 16.76953125 C-1.85581909 16.77449112 -2.71945068 16.77945099 -3.60925293 16.78456116 C-9.55884031 16.6679004 -9.55884031 16.6679004 -12.75976562 14.38647461 C-14.88073644 11.19538409 -14.67906486 8.94814388 -14.2109375 5.203125 C-10.98246731 -0.63886867 -6.0280167 0.03292165 0 0 Z " fill="#000000" transform="translate(80.2109375,371.796875)"/>
</svg>
