<?xml version="1.0" encoding="UTF-8"?>
<svg version="1.1" xmlns="http://www.w3.org/2000/svg" width="512" height="512">
<path d="M0 0 C0.99233643 0.01281006 1.98467285 0.02562012 3.00708008 0.03881836 C18.90887678 0.47767722 31.20919588 7.17982525 42.14453125 18.63671875 C50.48673191 28.7774038 56.30509066 41.35599731 57.5 54.5 C58.18964844 54.16226563 58.87929688 53.82453125 59.58984375 53.4765625 C72.54864 47.32602272 84.90901303 45.33284672 98.93359375 49.55859375 C101.48925144 50.49605723 103.87185082 51.61051084 106.3125 52.8125 C109.44024085 54.26426502 110.36076498 54.51518927 113.9375 54.125 C116.707253 52.65490312 116.707253 52.65490312 118.0625 49.6875 C118.7759562 46.52130915 118.7759562 46.52130915 117.375 43.875 C115.59495454 41.4501465 115.59495454 41.4501465 113.3125 39.6875 C110.96811646 36.85807159 110.91037337 35.00124603 111.125 31.40625 C111.5 29.5 111.5 29.5 113 27 C115.7225334 25.36647996 117.82637241 24.69788332 121.01953125 24.84765625 C133.59934046 28.15604702 143.96709272 38.92698564 150.48095703 49.66894531 C159.16259639 65.26844105 158.76995907 82.70231959 154.5 99.5 C153.857888 101.50801808 153.19956871 103.51126974 152.5 105.5 C153.46679688 105.59796875 154.43359375 105.6959375 155.4296875 105.796875 C169.85418637 107.45355012 180.50770495 111.50847544 190.5 122.5 C191.11746094 123.325 191.73492187 124.15 192.37109375 125 C193.05300781 125.9075 193.73492187 126.815 194.4375 127.75 C195.06527344 128.62140625 195.69304687 129.4928125 196.33984375 130.390625 C199.03801722 133.02536944 200.77875456 133.33405257 204.5 133.5 C207.02616172 132.20278182 208.14253145 131.24047057 209.375 128.6875 C209.64891131 126.33841098 209.64891131 126.33841098 208.5 123.625 C207.341219 120.00380937 207.39812718 118.12043927 208.5 114.5 C210.0625 112.125 210.0625 112.125 212.5 110.5 C215.75389637 109.98350851 217.43734068 109.72666318 220.5 110.5 C229.22281012 117.97669439 233.90877822 131.92907661 234.78125 143.1015625 C235.22376579 161.20783366 228.92805081 177.24664894 216.5 190.5 C214.23737907 192.63406292 211.9418719 194.56685142 209.5 196.5 C211.97598036 199.07914621 214.57236997 201.39962444 217.3125 203.6875 C228.23873022 213.25049479 232.43390732 223.61361083 234.37402344 237.69921875 C234.98291086 241.83357404 234.98291086 241.83357404 236.90234375 245.48046875 C239.4808807 247.12594099 241.53207088 246.87099114 244.5 246.5 C247.94402528 243.82412742 248.53873222 240.60959569 249.65625 236.55859375 C250.5 234.5 250.5 234.5 253.5 232.5 C260.42742696 231.84024505 260.42742696 231.84024505 263.72265625 233.8671875 C266.52256361 238.01474258 266.09398577 242.10907836 266 247 C265.98718994 247.99233643 265.97437988 248.98467285 265.96118164 250.00708008 C265.52232278 265.90887678 258.82017475 278.20919588 247.36328125 289.14453125 C237.2225962 297.48673191 224.64400269 303.30509066 211.5 304.5 C211.83773438 305.18964844 212.17546875 305.87929688 212.5234375 306.58984375 C219.19793239 320.6525801 220.46871669 333.51103798 215.5 348.5 C214.77663465 350.15771226 214.02844487 351.80492812 213.25 353.4375 C211.99065898 356.11602148 211.5 357.3589458 211.5 360.375 C212.79281473 363.1222313 213.75797508 364.16604193 216.5 365.5 C219.55270463 365.65811388 219.55270463 365.65811388 222.5 364.5 C224.76877535 362.08119071 224.76877535 362.08119071 226.5 359.5 C229.70841035 357.89579482 233.0193987 358.02537255 236.5 358.5 C239 360 239 360 240.5 362.5 C241.91537211 368.98712219 239.55271401 373.08358025 236.04321289 378.56445312 C226.76544104 392.23988486 214.55204899 399.91844456 198.5 403.5 C185.5703338 405.52905415 172.70626722 404.21119086 160.5 399.5 C160.35304688 400.95019531 160.35304688 400.95019531 160.203125 402.4296875 C158.54644988 416.85418637 154.49152456 427.50770495 143.5 437.5 C140.88150203 439.4966047 138.26432478 441.48948951 135.609375 443.4375 C133.16588749 445.82668779 132.71476323 447.12986932 132.5 450.5 C133.47730219 453.20637529 133.90512445 454.20256222 136.5 455.5 C139.75913117 455.24211513 142.99274539 454.85321435 146.23828125 454.4609375 C149.96292365 454.505544 151.57663079 455.25289288 154.5 457.5 C156.12702559 460.75405118 156.17141373 463.99372828 155.5 467.5 C147.7420037 476.55099569 133.56985867 480.84123603 122.0546875 481.78125 C104.35438924 482.24807105 88.40299285 475.59950978 75.5 463.5 C73.36593708 461.23737907 71.43314858 458.9418719 69.5 456.5 C66.92085379 458.97598036 64.60037556 461.57236997 62.3125 464.3125 C52.21529936 475.77303574 40.24968028 480.41803479 25.14453125 481.9453125 C22.23155324 482.55630641 21.20872263 483.09513112 19.5 485.5 C18.94962539 489.57523708 18.94962539 489.57523708 20.73828125 493.09375 C23.37723724 495.20023372 26.22789485 495.7697641 29.44140625 496.65625 C31.5 497.5 31.5 497.5 33.5 500.5 C34.15975495 507.42742696 34.15975495 507.42742696 32.1328125 510.72265625 C27.98525742 513.52256361 23.89092164 513.09398577 19 513 C18.00766357 512.98718994 17.01532715 512.97437988 15.99291992 512.96118164 C0.09112322 512.52232278 -12.20919588 505.82017475 -23.14453125 494.36328125 C-31.48673191 484.2225962 -37.30509066 471.64400269 -38.5 458.5 C-39.18964844 458.83773438 -39.87929687 459.17546875 -40.58984375 459.5234375 C-54.73100171 466.23515307 -67.42046129 467.35871929 -82.5 462.5 C-83.8019621 461.96175868 -85.09583731 461.40288278 -86.375 460.8125 C-89.74665831 459.39640351 -91.88508879 459.00705756 -95.5 459.5 C-97.5 460.5 -97.5 460.5 -98.5 462.5 C-99.25244501 465.3275989 -99.25244501 465.3275989 -98.5 468.5 C-97.15077411 470.21541721 -97.15077411 470.21541721 -95.5 471.875 C-93.06677165 474.47544072 -92.02172194 476.09281259 -91.875 479.6875 C-92.5 483.5 -92.5 483.5 -94 486 C-96.73199806 487.63919884 -98.83095542 488.31181813 -102.03515625 488.1328125 C-113.38211679 485.21964672 -123.79534316 475.11407679 -130.3125 465.8125 C-139.62300192 449.24577061 -140.08041021 431.51897054 -135.5 413.5 C-134.857888 411.49198192 -134.19956871 409.48873026 -133.5 407.5 C-134.95019531 407.35304688 -134.95019531 407.35304688 -136.4296875 407.203125 C-150.85418637 405.54644988 -161.50770495 401.49152456 -171.5 390.5 C-172.11746094 389.675 -172.73492187 388.85 -173.37109375 388 C-174.05300781 387.0925 -174.73492187 386.185 -175.4375 385.25 C-176.37916016 383.94289063 -176.37916016 383.94289063 -177.33984375 382.609375 C-180.03801722 379.97463056 -181.77875456 379.66594743 -185.5 379.5 C-188.02616172 380.79721818 -189.14253145 381.75952943 -190.375 384.3125 C-190.64891131 386.66158902 -190.64891131 386.66158902 -189.5 389.375 C-188.341219 392.99619063 -188.39812718 394.87956073 -189.5 398.5 C-191.0625 400.875 -191.0625 400.875 -193.5 402.5 C-196.75389637 403.01649149 -198.43734068 403.27333682 -201.5 402.5 C-210.22281012 395.02330561 -214.90877822 381.07092339 -215.78125 369.8984375 C-216.22376579 351.79216634 -209.92805081 335.75335106 -197.5 322.5 C-195.23737907 320.36593708 -192.9418719 318.43314858 -190.5 316.5 C-192.97598036 313.92085379 -195.57236997 311.60037556 -198.3125 309.3125 C-209.23873022 299.74950521 -213.43390732 289.38638917 -215.37402344 275.30078125 C-215.98291086 271.16642596 -215.98291086 271.16642596 -217.90234375 267.51953125 C-220.4808807 265.87405901 -222.53207088 266.12900886 -225.5 266.5 C-228.94402528 269.17587258 -229.53873222 272.39040431 -230.65625 276.44140625 C-231.5 278.5 -231.5 278.5 -234.5 280.5 C-241.42742696 281.15975495 -241.42742696 281.15975495 -244.72265625 279.1328125 C-247.52256361 274.98525742 -247.09398577 270.89092164 -247 266 C-246.98718994 265.00766357 -246.97437988 264.01532715 -246.96118164 262.99291992 C-246.52232278 247.09112322 -239.82017475 234.79080412 -228.36328125 223.85546875 C-218.2225962 215.51326809 -205.64400269 209.69490934 -192.5 208.5 C-192.83773437 207.81035156 -193.17546875 207.12070313 -193.5234375 206.41015625 C-199.66816747 193.46360091 -201.68551036 181.08057743 -197.4375 167.0703125 C-196.50355858 164.50975645 -195.4194735 162.08576716 -194.25 159.625 C-193.00091248 156.93465765 -192.5 155.64319174 -192.5 152.625 C-193.79281473 149.8777687 -194.75797508 148.83395807 -197.5 147.5 C-200.55270463 147.34188612 -200.55270463 147.34188612 -203.5 148.5 C-205.76877535 150.91880929 -205.76877535 150.91880929 -207.5 153.5 C-210.70841035 155.10420518 -214.0193987 154.97462745 -217.5 154.5 C-220 153 -220 153 -221.5 150.5 C-223.08500618 143.23538832 -219.5147364 138.48927476 -215.73828125 132.55078125 C-213.53077224 129.54194262 -211.20925064 127.05873672 -208.5 124.5 C-207.87738281 123.8915625 -207.25476563 123.283125 -206.61328125 122.65625 C-194.81353521 111.80355516 -180.21323105 108.25465769 -164.5 108.5 C-156.44535151 109.10060198 -149.04401982 110.63847524 -141.5 113.5 C-141.40203125 112.53320312 -141.3040625 111.56640625 -141.203125 110.5703125 C-139.6945223 97.43506483 -136.46972852 85.12426924 -125.87890625 76.12207031 C-123.56568526 74.32275532 -121.23232793 72.57831319 -118.80493164 70.93554688 C-116.15138826 69.08590465 -114.65844435 67.95136667 -113.5703125 64.8515625 C-113.48823014 62.10636359 -113.96598093 60.76065969 -115.5 58.5 C-119.08773478 56.70613261 -123.34728858 58.06877148 -127.23828125 58.5390625 C-130.96292365 58.494456 -132.57663079 57.74710712 -135.5 55.5 C-137.12702559 52.24594882 -137.17141373 49.00627172 -136.5 45.5 C-128.7420037 36.44900431 -114.56985867 32.15876397 -103.0546875 31.21875 C-85.35438924 30.75192895 -69.40299285 37.40049022 -56.5 49.5 C-54.36593708 51.76262093 -52.43314858 54.0581281 -50.5 56.5 C-47.92085379 54.02401964 -45.60037556 51.42763003 -43.3125 48.6875 C-33.74950521 37.76126978 -23.38638917 33.56609268 -9.30078125 31.62597656 C-5.16642596 31.01708914 -5.16642596 31.01708914 -1.51953125 29.09765625 C0.12594099 26.5191193 -0.12900886 24.46792912 -0.5 21.5 C-3.17587258 18.05597472 -6.39040431 17.46126778 -10.44140625 16.34375 C-12.5 15.5 -12.5 15.5 -14.5 12.5 C-15.15975495 5.57257304 -15.15975495 5.57257304 -13.1328125 2.27734375 C-8.98525742 -0.52256361 -4.89092164 -0.09398577 0 0 Z " fill="#232425" transform="translate(246.5,-0.5)"/>
<path d="M0 0 C2.01643447 1.3130271 4.01147495 2.64590913 6 4 C7.2065625 4.804375 7.2065625 4.804375 8.4375 5.625 C17.5610536 14.0809765 22.51419481 24.84073312 24 37 C24.18885069 42.46662034 24.00103627 47.92128495 23.83398438 53.38671875 C23.80594727 54.98966797 23.80594727 54.98966797 23.77734375 56.625 C23.74890381 57.58664063 23.72046387 58.54828125 23.69116211 59.5390625 C23.80206756 62.03855747 23.80206756 62.03855747 25.33032227 63.8125 C27.93267095 65.66332965 29.89659853 65.38000834 33 65 C36.17556286 63.41221857 37.04804233 61.91077853 38.75 58.75 C42.25663332 52.29615736 48.46571446 47.34967967 55.26953125 44.66796875 C66.21551279 41.99019644 74.72928738 43.84305031 84.75 48.6484375 C91.33068453 51.3851164 97.3355556 50.93043244 103.875 48.3125 C109.57841956 45.42520739 113.14612478 40.99576417 117 36 C117.81752303 37.58074564 118.62881997 39.16471223 119.4375 40.75 C119.88996094 41.63171875 120.34242188 42.5134375 120.80859375 43.421875 C123.07585942 48.32808923 123.18284874 52.90105224 123.1875 58.25 C123.19974609 58.97574219 123.21199219 59.70148438 123.22460938 60.44921875 C123.24706195 68.8464808 121.05760471 75.5791755 117.25 83 C116.89945557 83.69915527 116.54891113 84.39831055 116.18774414 85.11865234 C114.23223909 88.92657743 112.17180986 92.30796836 109.4375 95.625 C107.27225107 98.29037436 107.00602862 98.68048288 106.9375 102.3125 C108.25772173 105.75398155 108.25772173 105.75398155 111 108 C115.69284917 108.74658964 118.31828416 107.45958539 122.30078125 105.0234375 C129.14443931 100.90151012 137.26924872 100.99535121 144.90625 102.6171875 C155.01060425 105.82446848 161.01270537 112.13769249 166.4609375 120.94921875 C169.61444526 125.15122782 174.10435743 127.36811914 179 129 C186.94726518 129.72790267 193.03120418 128.94194511 200 125 C201.17237473 136.77585286 196.1820041 146.89028458 189 156 C183.35685198 162.77177762 176.76199881 166.94003488 169 171 C168.15566406 171.46019531 167.31132812 171.92039063 166.44140625 172.39453125 C162.13476075 174.56601018 162.13476075 174.56601018 160 175 C159.16597656 174.68804687 158.33195312 174.37609375 157.47265625 174.0546875 C154.02077812 173.00631056 152.08680967 172.99499079 148.55078125 173.25390625 C132.63590814 174.20414286 132.63590814 174.20414286 127.95507812 170.29003906 C124.47472261 165.76229741 122.28801605 160.60827526 120.07958984 155.37304688 C115.87283864 146.12618535 107.9092858 138.2982191 101 131 C100.18015625 130.11570313 99.3603125 129.23140625 98.515625 128.3203125 C82.06562397 111.14028184 61.36156473 99.66895542 39 92 C37.84371094 91.60039063 36.68742187 91.20078125 35.49609375 90.7890625 C11.61477481 83.28914416 -15.68033795 82.1267467 -40 88 C-40.74620605 88.16628906 -41.49241211 88.33257812 -42.26123047 88.50390625 C-69.36385183 94.56035795 -92.85763555 107.93105309 -113 127 C-113.88429687 127.81984375 -114.76859375 128.6396875 -115.6796875 129.484375 C-126.77253769 140.10585762 -134.95670335 152.2665709 -142.22265625 165.734375 C-144 169 -144 169 -146 172 C-148.45849609 172.36889648 -148.45849609 172.36889648 -151.5234375 172.37109375 C-152.626875 172.38849609 -153.7303125 172.40589844 -154.8671875 172.42382812 C-157.19790478 172.43291221 -159.52864038 172.43814666 -161.859375 172.43945312 C-162.96539062 172.45814453 -164.07140625 172.47683594 -165.2109375 172.49609375 C-166.73146729 172.49887329 -166.73146729 172.49887329 -168.28271484 172.50170898 C-171.05133232 172.84480898 -171.05133232 172.84480898 -173.33300781 174.40063477 C-175.9366546 178.46053919 -175.53230716 182.37024884 -175.4609375 187.09375 C-175.46002106 188.07742554 -175.45910461 189.06110107 -175.4581604 190.07458496 C-175.45212362 192.15247427 -175.43637536 194.23035485 -175.41162109 196.30810547 C-175.37513444 199.48828201 -175.37060166 202.66729233 -175.37109375 205.84765625 C-175.36126157 207.86719757 -175.34960413 209.88673099 -175.3359375 211.90625 C-175.33371185 212.85737671 -175.33148621 213.80850342 -175.32919312 214.78845215 C-175.31643341 215.6761731 -175.30367371 216.56389404 -175.29052734 217.47851562 C-175.28290375 218.25698853 -175.27528015 219.03546143 -175.26742554 219.83752441 C-174.96304686 222.29881311 -174.32371349 223.90847734 -173 226 C-170.70185726 227.02195506 -170.70185726 227.02195506 -168.0625 227.5625 C-164.43123332 228.423522 -162.33896024 229.03753638 -160 232 C-159.5234375 234.27392578 -159.5234375 234.27392578 -159.375 236.9453125 C-159.31030518 237.93104248 -159.24561035 238.91677246 -159.17895508 239.93237305 C-159.09037231 241.51272339 -159.09037231 241.51272339 -159 243.125 C-157.28275108 267.09352411 -151.84895682 288.89801165 -140 310 C-139.37351562 311.11632812 -138.74703125 312.23265625 -138.1015625 313.3828125 C-117.16149004 348.85273115 -83.69757278 372.60457 -44.16015625 383.2265625 C-34.81977296 385.51258956 -25.60622308 386.61548124 -16 387 C-15.24460938 387.03399902 -14.48921875 387.06799805 -13.7109375 387.10302734 C27.21991148 388.72348097 65.48360411 373.8977513 95.5390625 346.29296875 C96.35117187 345.53628906 97.16328125 344.77960938 98 344 C99.09441406 343.00419922 99.09441406 343.00419922 100.2109375 341.98828125 C117.1990392 325.88944842 128.47785428 304.93348889 136 283 C136.39960938 281.84371094 136.79921875 280.68742187 137.2109375 279.49609375 C141.55607419 265.66026378 143.38804583 250.7258253 143.44604492 236.2409668 C143.52501114 233.13663151 143.60419304 231.43122593 145.74609375 229.09765625 C148.78909266 227.61571051 151.6528471 227.20299386 154.9765625 226.72265625 C157.08936611 226.18528204 157.08936611 226.18528204 158.10058594 224.45776367 C159.3686668 220.99257093 159.35752738 217.5990735 159.4140625 213.953125 C159.43342865 213.18192322 159.4527948 212.41072144 159.4727478 211.6161499 C159.53237077 209.16087795 159.57885914 206.70555867 159.625 204.25 C159.66319575 202.58201118 159.70224841 200.91404174 159.7421875 199.24609375 C159.83805791 195.16422057 159.92215235 191.08225507 160 187 C162.19980062 187.11001843 164.39891287 187.23384267 166.59765625 187.36328125 C167.82234619 187.43071533 169.04703613 187.49814941 170.30883789 187.56762695 C178.9430469 188.57901555 187.22657339 192.408414 193 199 C197.70371246 205.27580887 199.9185362 210.96330723 200.375 218.8125 C200.98079048 226.83674105 202.93428374 232.43266396 208.9375 237.9375 C214.72955227 242.54771807 219.76641881 243.40114143 227 244 C224.22713411 252.28909909 217.24383112 258.09582567 209.68457031 262.09814453 C197.89554296 267.97357182 188.42513641 268.19477521 175.47070312 267.83398438 C173.71209961 267.80594727 173.71209961 267.80594727 171.91796875 267.77734375 C170.85344482 267.74890381 169.7889209 267.72046387 168.69213867 267.69116211 C165.98960988 267.77922122 165.98960988 267.77922122 164.15356445 269.33032227 C162.3499805 271.94084304 162.62212013 273.91398102 163 277 C164.58778143 280.17556286 166.08922147 281.04804233 169.25 282.75 C175.70384264 286.25663332 180.65032033 292.46571446 183.33203125 299.26953125 C186.00980356 310.21551279 184.15694969 318.72928738 179.3515625 328.75 C176.6148836 335.33068453 177.06956756 341.3355556 179.6875 347.875 C182.57479261 353.57841956 187.00423583 357.14612478 192 361 C190.46378265 361.82275672 188.92071368 362.63272577 187.375 363.4375 C186.51648438 363.88996094 185.65796875 364.34242188 184.7734375 364.80859375 C174.97464804 369.01793288 161.51426959 368.26202325 151.5625 364.9375 C144.67662802 362.15469066 139.05543527 358.20598599 133.265625 353.62890625 C130.56899373 351.62033296 129.23058994 350.99547863 125.8125 351.0625 C122.25885421 352.22089515 122.25885421 352.22089515 120 355 C118.95632667 360.3488258 121.34016402 364.15227002 123.80859375 368.73046875 C127.03725714 374.88080786 127.03296357 382.16251357 125.24609375 388.80078125 C121.88773259 397.47984009 117.13708636 404.19212765 109.16796875 409.13671875 C103.66012546 412.55662145 100.93913964 416.82221 99 423 C97.83049932 430.8787414 99.10056836 437.10636192 103 444 C90.02128543 444.62800232 80.49220591 440.22558099 70.55078125 431.96484375 C62.69368116 424.61465334 57.8117194 415.50219246 53.7265625 405.64453125 C53.11662994 403.99628421 53.11662994 403.99628421 52 403 C46.85515364 402.40945094 46.85515364 402.40945094 42.265625 404.17578125 C40.54221105 406.65983777 40.66493428 408.43044856 40.625 411.4375 C40.08370526 420.204352 37.04178797 428.95733118 30.9453125 435.46875 C24.40261994 440.61882125 16.57974712 443.94200877 8.3125 444.3125 C0.33467443 444.96610499 -4.44619724 447.02935737 -9.875 452.9375 C-14.79518209 459.03181645 -15.43483107 464.34047374 -16 472 C-18.01643447 470.6869729 -20.01147495 469.35409087 -22 468 C-22.804375 467.46375 -23.60875 466.9275 -24.4375 466.375 C-33.38881055 458.07866339 -38.43348221 446.9623151 -40 435 C-40.1650904 429.54987279 -39.95258383 424.10906751 -39.74609375 418.66210938 C-39.71322266 417.05239258 -39.71322266 417.05239258 -39.6796875 415.41015625 C-39.64601074 414.44215088 -39.61233398 413.47414551 -39.57763672 412.47680664 C-39.77629511 409.87466826 -39.77629511 409.87466826 -41.81298828 408.18139648 C-44.07544733 406.77535323 -44.07544733 406.77535323 -47.3125 406.6875 C-52.2405246 408.44154266 -53.50189464 411.13267365 -56.2578125 415.42578125 C-60.48978813 421.67885735 -66.66665548 426.13295331 -74 428 C-83.58178468 429.20421129 -90.91752547 428.09471487 -99.69018555 424.15722656 C-106.02244026 421.37437391 -111.63869793 420.5861302 -118.27734375 422.73828125 C-124.68098341 425.63601763 -128.76745423 430.51336659 -133 436 C-139.25538072 424.32328933 -141.0676581 412.12907973 -138.125 399.13671875 C-135.58593255 391.49445981 -131.92983607 385.32000311 -127 379 C-124.88974951 376.20484365 -123.16882543 373.88633352 -122.5 370.375 C-123.191213 367.09173825 -124.27633489 365.93523574 -127 364 C-131.76890046 363.13292719 -134.89661912 364.67911485 -138.97265625 366.9296875 C-146.27875424 370.78685676 -153.68574793 371.1909955 -161.75390625 369.3828125 C-171.28621434 366.01144845 -177.36988849 359.36028179 -182.60546875 350.98046875 C-185.82589581 346.40692107 -190.68139253 344.20421301 -196 343 C-203.64591354 342.21397151 -209.27945083 343.28295552 -216 347 C-216.95049429 336.26997559 -214.09123073 327.78481355 -207.625 319.1875 C-206.4346306 317.77631581 -205.22704005 316.37941758 -204 315 C-203.50113281 314.39671875 -203.00226563 313.7934375 -202.48828125 313.171875 C-196.3793686 306.33974096 -187.4901415 301.85343463 -179.125 298.328125 C-176.18324153 297.30797288 -176.18324153 297.30797288 -175 296 C-174.42026792 290.87352008 -174.42026792 290.87352008 -176.1328125 286.26953125 C-178.79524072 284.45930286 -180.929355 284.62671509 -184.125 284.5625 C-190.26006568 284.20842296 -194.72157899 283.12089151 -200 280 C-200.69867188 279.58878906 -201.39734375 279.17757813 -202.1171875 278.75390625 C-209.22005099 274.02313114 -214.16573152 266.33758399 -216 258 C-216.1362522 256.04241736 -216.25991223 254.08394085 -216.375 252.125 C-216.9473633 244.53414897 -219.06060355 239.64983468 -224.375 234.1875 C-229.72688852 229.73098446 -236.28466281 228.9903236 -243 228 C-239.73178178 218.46769686 -231.60450368 212.94707106 -222.9765625 208.41015625 C-216.42844481 205.38187126 -211.63135238 203.85328497 -204.37109375 204.04296875 C-202.44813477 204.07487305 -202.44813477 204.07487305 -200.48632812 204.10742188 C-198.45601631 204.14459625 -196.42653077 204.18781888 -194.39672852 204.24682617 C-192.43027011 204.30125854 -190.46312377 204.32874011 -188.49609375 204.35546875 C-187.32232178 204.38278076 -186.1485498 204.41009277 -184.93920898 204.43823242 C-181.92534142 204.27906536 -181.92534142 204.27906536 -180.11352539 202.18481445 C-178.78657784 199.91282972 -178.78657784 199.91282972 -178.6875 196.6875 C-180.44154266 191.7594754 -183.13267365 190.49810536 -187.42578125 187.7421875 C-193.67885735 183.51021187 -198.13295331 177.33334452 -200 170 C-201.20549168 160.40802738 -200.09333958 153.02758931 -196.1550293 144.23950195 C-193.12498619 137.37403082 -192.8950274 131.76557406 -195.25 124.6875 C-198.07487905 118.18766256 -201.85379937 115.19129648 -208 112 C-203.88322422 107.36530727 -198.0425384 105.41167753 -191.95263672 104.79150391 C-189.73549235 104.67355481 -187.53271584 104.62767262 -185.3125 104.625 C-184.61237793 104.62346924 -183.91225586 104.62193848 -183.19091797 104.62036133 C-170.27750834 104.89198299 -159.35075916 110.52429556 -149.3125 118.30859375 C-146.62726091 120.32951588 -145.22175112 121 -141.8125 121 C-138.984076 120.17850625 -138.984076 120.17850625 -137.0625 118.375 C-135.47990454 114.83743367 -136.07824602 112.7484662 -137 109 C-137.94451231 106.66045487 -138.96500979 104.38492458 -140.0625 102.11328125 C-143.16542365 95.1187742 -143.03726239 87.02851512 -140.5 79.875 C-136.71615701 71.51071549 -130.70638651 66.27258009 -123.05078125 61.5390625 C-118.84877218 58.38555474 -116.63188086 53.89564257 -115 49 C-114.27209733 41.05273482 -115.05805489 34.96879582 -119 28 C-106.19282715 26.72494961 -95.62472084 32.79856038 -85.94921875 40.66796875 C-78.75161699 47.22267793 -74.08347259 55.97248426 -70.33203125 64.87109375 C-69.30844485 67.81609857 -69.30844485 67.81609857 -68 69 C-66.31391034 69.07205511 -64.62499341 69.08386068 -62.9375 69.0625 C-62.01839844 69.05347656 -61.09929687 69.04445313 -60.15234375 69.03515625 C-59.44207031 69.02355469 -58.73179687 69.01195313 -58 69 C-56.93180256 65.79540767 -56.8268133 63.24240151 -56.6875 59.875 C-55.99869358 50.47174867 -52.53627463 42.8537096 -46 36 C-39.00088903 30.33285629 -32.51671934 28.02317144 -23.5625 27.125 C-14.89139822 26.084131 -9.74001859 23.71220419 -4.21875 16.78125 C-0.76476124 11.73311258 -0.50032948 5.92495437 0 0 Z " fill="#EE8825" transform="translate(264,20)"/>
<path d="M0 0 C1.91136893 -0.02884018 3.82286447 -0.04936476 5.734375 -0.06640625 C6.79881836 -0.07873291 7.86326172 -0.09105957 8.95996094 -0.10375977 C16.26623139 0.14561101 20.84051628 3.29124033 26.23828125 7.98828125 C30.53972645 12.90013109 31.55478919 18.07878796 32.4375 24.3125 C33.92085394 33.56217236 36.09388566 41.24735486 43 48 C45.91358253 49.85409798 48.90283421 51.47503384 52 53 C50.97786261 55.745169 50.24126216 56.85070615 47.71484375 58.4140625 C46.79832031 58.81367188 45.88179688 59.21328125 44.9375 59.625 C44.03902344 60.02976562 43.14054687 60.43453125 42.21484375 60.8515625 C32.51541241 64.31648694 23.54741684 64.12430146 13.33007812 63.74609375 C4.85697835 63.56463403 4.85697835 63.56463403 -2 68 C-5.29728635 72.72611043 -5.90529508 77.39722933 -5 83 C-2.45337838 87.99892392 0.940211 91.12895661 5.69921875 94.0390625 C10.90714351 97.36038545 14.00476975 101.10181935 16 107 C17.46622502 115.37525506 15.50925172 121.83000727 12.1574707 129.40380859 C8.56241756 137.84853506 8.87900235 145.49440065 11.875 154.0625 C13.1151512 157.11694648 14.49624926 160.06700869 16 163 C1.26994016 163.79502572 -9.35178817 161.0737882 -21 152 C-26.35521159 148.21050705 -30.25593516 146.33664936 -37 147 C-41.65128839 148.90318773 -44.42700013 151.03306271 -47 155.375 C-49.05559311 162.82652504 -47.87619244 166.99858556 -44.19140625 173.5703125 C-41.51215182 179.03423466 -40.88114784 185.52750029 -42.75390625 191.33984375 C-45.60041931 198.04868434 -48.77917632 202.25165937 -54.875 206.3125 C-62.56918607 211.55905103 -67.04838179 217.85361017 -69 227 C-69.48385899 230.66214841 -69.80008941 234.31199431 -70 238 C-84.05166097 232.73062714 -90.7978177 223.18615229 -97 210 C-98.94559337 205.95198962 -100.53597931 202.92276745 -104 200 C-109.84676955 198.05107682 -115.93952262 198.00655555 -121.5 200.6875 C-126.98033821 205.75681285 -127.57986301 210.82993418 -128.08398438 217.94140625 C-128.70656909 224.54457746 -131.07293574 229.89828553 -136.3125 234.25 C-141.54713266 238.3913233 -146.23237719 240.05022415 -152.875 240.4375 C-161.88842091 241.02191133 -169.47916774 244.72523688 -176 251 C-178.2135377 253.88373462 -180.16125356 256.86577311 -182 260 C-185.18185945 257.11665189 -186.96285948 254.48510509 -188.6875 250.5625 C-189.10386719 249.63566406 -189.52023438 248.70882812 -189.94921875 247.75390625 C-191.78412 242.9449643 -192.10412434 238.69232094 -191.9921875 233.5625 C-191.96705078 231.72558594 -191.96705078 231.72558594 -191.94140625 229.8515625 C-191.89713289 227.28370763 -191.84504811 224.71597557 -191.78515625 222.1484375 C-191.77097656 220.92382812 -191.75679687 219.69921875 -191.7421875 218.4375 C-191.7201123 217.32246094 -191.69803711 216.20742188 -191.67529297 215.05859375 C-192.0451006 211.57517265 -192.91241002 209.7875002 -195 207 C-199.61002637 203.58858049 -203.10804287 202.34110674 -208.85546875 202.60546875 C-212.23391575 203.22700454 -214.39679955 204.83066629 -217 207 C-217.53625 207.433125 -218.0725 207.86625 -218.625 208.3125 C-220.22865545 210.15100825 -220.22865545 210.15100825 -221.625 213.3125 C-224.48624341 218.5767408 -229.77212707 221.38606353 -235 224 C-242.76335374 224.86624992 -248.92188201 224.40294134 -256 221 C-263.97519979 217.22697947 -271.40318775 216.40513002 -279.9609375 218.84375 C-282.38986404 219.78397963 -284.68409434 220.81168886 -287 222 C-287.75023437 222.37382812 -288.50046875 222.74765625 -289.2734375 223.1328125 C-289.84320313 223.41898438 -290.41296875 223.70515625 -291 224 C-291.79502572 209.26994016 -289.0737882 198.64821183 -280 187 C-276.21050705 181.64478841 -274.33664936 177.74406484 -275 171 C-276.88846096 166.38470304 -279.02734677 163.58726233 -283.3125 161 C-291.32559788 158.82695651 -295.5985157 159.83770543 -302.703125 163.80859375 C-307.24613059 166.16508475 -311.93366106 166.65113159 -317 166 C-324.70566211 163.52134536 -329.82688813 159.85845781 -334.3125 153.125 C-339.18371049 145.9657967 -345.44753629 140.94903085 -354 139 C-357.9950602 138.49815746 -361.9789611 138.19435021 -366 138 C-364.02032282 129.42139888 -357.20012159 121.85401455 -350 117 C-346.07118486 114.83968116 -342.0559884 112.90775739 -338 111 C-333.95198962 109.05440663 -330.92276745 107.46402069 -328 104 C-326.05550351 98.16651053 -326.03316577 92.0824122 -328.625 86.5 C-333.17434118 81.71121981 -336.9329731 80.90508178 -343.375 80.5625 C-351.47383135 80.06552626 -356.22929914 78.15821047 -361.8125 72.25 C-366.34246115 66.64688177 -367.96991209 61.70565143 -368.4375 54.5625 C-369.06342989 45.84763004 -372.94878058 38.28852214 -379 32 C-381.88373462 29.7864623 -384.86577311 27.83874644 -388 26 C-382.56690826 19.66139297 -375.06771634 17.12613233 -367 16 C-362.39134184 15.81885369 -357.79769294 15.90048153 -353.1875 16 C-350.78533687 16.05102843 -348.38296192 16.09309085 -345.98046875 16.125 C-344.92754639 16.14820313 -343.87462402 16.17140625 -342.78979492 16.1953125 C-339.9809042 15.99866311 -338.38031594 15.45227503 -336 14 C-335.95101562 14.81984375 -335.90203125 15.6396875 -335.8515625 16.484375 C-335.77679688 17.56203125 -335.70203125 18.6396875 -335.625 19.75 C-335.52058594 21.35101563 -335.52058594 21.35101563 -335.4140625 22.984375 C-335.01514527 25.88969672 -334.74335119 27.65586318 -333 30 C-330.70185726 31.02195506 -330.70185726 31.02195506 -328.0625 31.5625 C-324.43123332 32.423522 -322.33896024 33.03753638 -320 36 C-319.5234375 38.27392578 -319.5234375 38.27392578 -319.375 40.9453125 C-319.27795776 42.42390747 -319.27795776 42.42390747 -319.17895508 43.93237305 C-319.1198999 44.98593994 -319.06084473 46.03950684 -319 47.125 C-317.28275108 71.09352411 -311.84895682 92.89801165 -300 114 C-299.37351562 115.11632812 -298.74703125 116.23265625 -298.1015625 117.3828125 C-277.16149004 152.85273115 -243.69757278 176.60457 -204.16015625 187.2265625 C-194.81977296 189.51258956 -185.60622308 190.61548124 -176 191 C-175.24460938 191.03399902 -174.48921875 191.06799805 -173.7109375 191.10302734 C-132.78008852 192.72348097 -94.51639589 177.8977513 -64.4609375 150.29296875 C-63.64882813 149.53628906 -62.83671875 148.77960938 -62 148 C-61.27039063 147.33613281 -60.54078125 146.67226563 -59.7890625 145.98828125 C-42.8009608 129.88944842 -31.52214572 108.93348889 -24 87 C-23.60039062 85.84371094 -23.20078125 84.68742187 -22.7890625 83.49609375 C-18.44392581 69.66026378 -16.61195417 54.7258253 -16.55395508 40.2409668 C-16.47498886 37.13663151 -16.39580696 35.43122593 -14.25390625 33.09765625 C-11.21090734 31.61571051 -8.3471529 31.20299386 -5.0234375 30.72265625 C-2.88414143 30.18685743 -2.88414143 30.18685743 -1.89941406 28.3347168 C-0.78519706 25.44241028 -0.67704457 23.0195153 -0.5859375 19.921875 C-0.54726563 18.76171875 -0.50859375 17.6015625 -0.46875 16.40625 C-0.4378125 15.1996875 -0.406875 13.993125 -0.375 12.75 C-0.33632813 11.52796875 -0.29765625 10.3059375 -0.2578125 9.046875 C-0.16357892 6.0314006 -0.07796545 3.01593172 0 0 Z " fill="#EE8825" transform="translate(424,216)"/>
<path d="M0 0 C0.76441406 -0.00257813 1.52882813 -0.00515625 2.31640625 -0.0078125 C4.4375 0.125 4.4375 0.125 7.4375 1.125 C7.59605469 2.12917969 7.75460937 3.13335937 7.91796875 4.16796875 C10.05543902 16.98176439 13.345053 28.69559337 21.4375 39.125 C21.98792969 39.86234375 22.53835938 40.5996875 23.10546875 41.359375 C32.53697389 53.02307006 46.89294146 60.22073126 61.4375 63.125 C64.21156785 63.40255678 66.96329105 63.45229745 69.75 63.4609375 C70.5219873 63.4675943 71.29397461 63.4742511 72.08935547 63.48110962 C73.71628464 63.49117339 75.34325458 63.4959286 76.97021484 63.49560547 C79.40405337 63.49994043 81.83601701 63.53621822 84.26953125 63.57421875 C99.73693999 63.68642103 112.78012571 60.73659395 126.4375 53.125 C127.76724443 52.45120332 129.09920123 51.78164192 130.4375 51.125 C125.29576115 80.43291144 104.34572709 109.04297484 80.4375 126.125 C58.57731029 141.06226904 34.06940561 150.84050295 7.4375 152.125 C6.54804688 152.16882813 5.65859375 152.21265625 4.7421875 152.2578125 C-9.17652571 152.83296594 -22.1001857 151.73276661 -35.5625 148.125 C-36.32369141 147.92132813 -37.08488281 147.71765625 -37.86914062 147.5078125 C-54.45892157 142.88606785 -70.18110253 134.99487392 -83.5625 124.125 C-84.06942383 123.72200684 -84.57634766 123.31901367 -85.09863281 122.90380859 C-105.31501064 106.78042867 -120.32712315 86.2795002 -129.125 61.875 C-129.38893555 61.14748535 -129.65287109 60.4199707 -129.92480469 59.67041016 C-131.68930116 54.50540349 -131.68930116 54.50540349 -130.5625 51.125 C-129.80066406 51.59550781 -129.03882813 52.06601562 -128.25390625 52.55078125 C-122.13806292 56.23861187 -116.46361941 59.29709653 -109.5625 61.125 C-108.58144287 61.39026489 -108.58144287 61.39026489 -107.58056641 61.66088867 C-99.0152764 63.6656337 -90.31073813 63.60925521 -81.5625 63.625 C-80.32394257 63.62851974 -80.32394257 63.62851974 -79.06036377 63.6321106 C-58.24286342 63.60756941 -42.25678548 58.82048703 -26.625 44.27734375 C-15.52378499 32.69255308 -10.05086674 16.90168748 -8.5625 1.125 C-5.64174603 0.28669704 -3.03585217 -0.01027361 0 0 Z " fill="#FCC32D" transform="translate(256.5625,239.875)"/>
<path d="M0 0 C2.01643447 1.3130271 4.01147495 2.64590913 6 4 C7.2065625 4.804375 7.2065625 4.804375 8.4375 5.625 C17.5610536 14.0809765 22.51419481 24.84073312 24 37 C24.18885069 42.46662034 24.00103627 47.92128495 23.83398438 53.38671875 C23.80594727 54.98966797 23.80594727 54.98966797 23.77734375 56.625 C23.74890381 57.58664063 23.72046387 58.54828125 23.69116211 59.5390625 C23.80206756 62.03855747 23.80206756 62.03855747 25.33032227 63.8125 C27.93267095 65.66332965 29.89659853 65.38000834 33 65 C36.17556286 63.41221857 37.04804233 61.91077853 38.75 58.75 C42.25663332 52.29615736 48.46571446 47.34967967 55.26953125 44.66796875 C66.21551279 41.99019644 74.72928738 43.84305031 84.75 48.6484375 C91.33068453 51.3851164 97.3355556 50.93043244 103.875 48.3125 C109.57841956 45.42520739 113.14612478 40.99576417 117 36 C117.81752303 37.58074564 118.62881997 39.16471223 119.4375 40.75 C119.88996094 41.63171875 120.34242188 42.5134375 120.80859375 43.421875 C123.07585942 48.32808923 123.18284874 52.90105224 123.1875 58.25 C123.19974609 58.97574219 123.21199219 59.70148438 123.22460938 60.44921875 C123.24706195 68.8464808 121.05760471 75.5791755 117.25 83 C116.89945557 83.69915527 116.54891113 84.39831055 116.18774414 85.11865234 C114.23223909 88.92657743 112.17180986 92.30796836 109.4375 95.625 C107.27225107 98.29037436 107.00602862 98.68048288 106.9375 102.3125 C108.25772173 105.75398155 108.25772173 105.75398155 111 108 C115.69284917 108.74658964 118.31828416 107.45958539 122.30078125 105.0234375 C129.14443931 100.90151012 137.26924872 100.99535121 144.90625 102.6171875 C155.01060425 105.82446848 161.01270537 112.13769249 166.4609375 120.94921875 C169.61444526 125.15122782 174.10435743 127.36811914 179 129 C186.94726518 129.72790267 193.03120418 128.94194511 200 125 C201.17237473 136.77585286 196.1820041 146.89028458 189 156 C183.35685198 162.77177762 176.76199881 166.94003488 169 171 C168.15566406 171.46019531 167.31132812 171.92039063 166.44140625 172.39453125 C162.652578 174.30491851 160.82990937 175.15089261 156.5625 174.375 C154 173 154 173 152 171 C156.07993088 167.01279482 159.53180108 164.61232056 164.875 162.5625 C174.49997866 158.77739603 181.43447883 152.72599718 187 144 C187.70850832 142.35068554 188.38726549 140.68723995 189 139 C188.03320312 138.92523438 187.06640625 138.85046875 186.0703125 138.7734375 C174.1945373 137.57410179 166.2292734 134.45603557 158.44921875 124.953125 C157.20237597 123.27274389 156.05867952 121.51670713 154.9375 119.75 C151.47987867 114.84240844 146.77853894 112.33350899 141 111 C133.29672361 109.84036699 128.61014988 112.01300224 121.890625 115.6484375 C117.07707714 117.89909636 113.02125157 118.07901842 108.03125 116.296875 C102.65891521 113.61070761 99.86060765 109.58182294 98 104 C97.01310118 96.95072269 99.99690722 93.39192088 104 88 C112.35183379 76.42359729 113.72074714 65.95138116 115 52 C114.50371094 52.33773437 114.00742187 52.67546875 113.49609375 53.0234375 C105.08257803 58.54730171 97.04731505 60.31051935 87 59 C84.42629398 58.07000539 81.98833191 57.11162374 79.5 56 C71.66064577 52.54089879 64.44273599 50.98724306 56.1796875 54.04296875 C50.62550556 57.00243584 47.55601717 60.5285958 44.37109375 65.87890625 C41.7857272 69.8784904 38.54623474 72.48458842 34 74 C28.03235278 74.60687938 24.79846997 73.80023944 19.76171875 70.58203125 C16.83058495 67.94986009 15.14249728 65.2919753 14.70703125 61.34375 C14.75923828 59.93609375 14.75923828 59.93609375 14.8125 58.5 C14.83803955 57.45392578 14.8635791 56.40785156 14.88989258 55.33007812 C14.92622803 54.23115234 14.96256348 53.13222656 15 52 C15.19842946 39.35125481 14.81400497 27.62498366 7 17 C6.34 16.67 5.68 16.34 5 16 C4.88914062 16.57878906 4.77828125 17.15757813 4.6640625 17.75390625 C2.9068508 23.6974164 -1.99220556 28.6593833 -7.1015625 31.97265625 C-12.62338588 34.96080347 -17.81689889 36.08353016 -24.0625 36.4375 C-31.88962391 36.97387651 -36.56264888 39.15609118 -41.875 44.9375 C-46.21733647 50.01702383 -47.16238845 54.19052698 -47.25 60.8125 C-47.58821327 66.67281357 -48.55243231 70.07742638 -52.33203125 74.546875 C-56.79587296 78.4357488 -61.19703417 78.62772175 -66.9609375 78.48046875 C-71.15338374 77.8176527 -73.31622153 76.44905981 -76.26953125 73.453125 C-79.10134562 69.43872449 -80.72059279 64.99171638 -82.515625 60.44140625 C-86.38514034 51.47024042 -93.72171835 43.69700831 -102.7734375 39.80859375 C-103.50820312 39.54175781 -104.24296875 39.27492187 -105 39 C-105.02578125 39.67804687 -105.0515625 40.35609375 -105.078125 41.0546875 C-105.789422 52.72642456 -109.2830968 61.04173513 -118 69 C-119.72647497 70.24171398 -121.47692143 71.4507931 -123.25 72.625 C-128.56421471 76.15148349 -130.89611332 79.32037773 -132.75 85.5 C-133.51995173 93.1995173 -132.70974153 99.9855681 -128.3125 106.5 C-126.29701446 110.33902007 -126.2654863 113.76242098 -127 118 C-128.81713986 122.77840483 -131.39219661 126.0143989 -135.875 128.5 C-139.75256306 130.11928195 -142.7832987 130.67768414 -147 130 C-150.7850783 128.20665053 -154.05765021 125.6968509 -157.4140625 123.21484375 C-168.42876294 115.18400179 -178.72024696 114.21766883 -192 113 C-191.36771484 113.99580078 -191.36771484 113.99580078 -190.72265625 115.01171875 C-190.17480469 115.89472656 -189.62695312 116.77773437 -189.0625 117.6875 C-188.51722656 118.55761719 -187.97195312 119.42773438 -187.41015625 120.32421875 C-183.61063295 127.53384053 -184.10264953 136.65322768 -186.3125 144.3125 C-187.23204338 147.11491791 -188.15986056 149.26643426 -189.6875 151.8125 C-192.18870616 157.88685781 -191.95262846 164.52627401 -190.2265625 170.8203125 C-188.0172064 175.94413834 -185.74342295 178.33471701 -180.859375 180.9921875 C-177.71025878 183.12161174 -176.25012921 184.18614053 -175.12255859 187.85498047 C-174.87098685 191.20431755 -174.92825407 194.39760366 -175.125 197.75 C-175.13660156 198.88566406 -175.14820313 200.02132812 -175.16015625 201.19140625 C-175.40199977 209.34636982 -175.40199977 209.34636982 -177.67700195 211.83300781 C-180.62292011 213.31293307 -182.6210241 213.29755384 -185.91015625 213.1875 C-187.06580078 213.16429687 -188.22144531 213.14109375 -189.41210938 213.1171875 C-191.81838769 213.0399394 -194.22463867 212.96183453 -196.63085938 212.8828125 C-206.14806529 212.69320574 -214.89189817 213.65574151 -223.1875 218.6875 C-223.92355469 219.12449219 -224.65960938 219.56148437 -225.41796875 220.01171875 C-225.94003906 220.33785156 -226.46210938 220.66398438 -227 221 C-224.89399927 223.22988312 -222.72514839 224.91321351 -220.1875 226.625 C-213.86226971 231.30776718 -210.101415 237.46452948 -208 245 C-207.68731667 247.45336149 -207.41850818 249.91260509 -207.1875 252.375 C-206.26598187 260.34399327 -203.97329774 265.51750615 -198 270.875 C-193.1808642 274.28855453 -189.49767244 275.19365857 -183.625 275.375 C-176.36075598 275.85928293 -172.66513531 277.19819108 -167.5625 282.5625 C-165.3496042 287.43087077 -165.34698909 291.73560342 -166 297 C-167.73909755 301.44436041 -170.98070778 304.49385309 -175 307 C-176.92263398 307.82711604 -178.86209524 308.61568212 -180.8125 309.375 C-192.46513902 314.01874971 -200.97870955 322.48056896 -206 334 C-205.24976563 333.95359375 -204.49953125 333.9071875 -203.7265625 333.859375 C-193.83594974 333.51058765 -186.90374488 335.28595378 -179.25 341.6875 C-176.28201918 344.46868483 -174.10542873 347.21701309 -172 350.6875 C-168.43677009 356.46651995 -163.29430191 358.90189936 -157 361 C-149.82024774 361.49515533 -143.52409621 360.32074628 -137.4375 356.3125 C-133.2617605 354.06402489 -129.29906192 354.32555195 -124.8828125 355.62109375 C-119.35686913 357.96701311 -116.26388811 361.46025537 -114 367 C-113.04112163 372.9663543 -114.89984081 377.0454511 -118 382 C-119.47973311 384.0296874 -121.01021062 386.01320161 -122.546875 388 C-129.63089149 397.7500442 -130.37514929 408.29227084 -131 420 C-130.32453125 419.57847656 -129.6490625 419.15695312 -128.953125 418.72265625 C-127.61507812 417.90087891 -127.61507812 417.90087891 -126.25 417.0625 C-125.36828125 416.51722656 -124.4865625 415.97195313 -123.578125 415.41015625 C-117.25367107 411.9508716 -110.02696925 412.20893145 -103 413 C-99.4609375 414.33984375 -99.4609375 414.33984375 -96 416 C-88.86668557 419.35873549 -82.80951568 420.37320431 -75 419 C-67.97183112 416.46416069 -64.1220628 412.43361716 -60.375 406.12109375 C-58.0199507 402.48816259 -54.88070222 399.94035111 -51 398 C-44.94418966 397.12052547 -40.82558198 398.11304872 -35.7265625 401.41796875 C-32.68065017 404.20890651 -31.11413911 406.83930042 -30.70703125 410.97924805 C-30.74183594 412.06246338 -30.77664062 413.14567871 -30.8125 414.26171875 C-30.83570313 415.46376953 -30.85890625 416.66582031 -30.8828125 417.90429688 C-30.96033309 420.40691984 -31.03844859 422.90952445 -31.1171875 425.41210938 C-31.29985113 434.92584 -30.25162214 442.84863317 -25.3125 451.125 C-24.87550781 451.87007813 -24.43851563 452.61515625 -23.98828125 453.3828125 C-23.66214844 453.91648437 -23.33601562 454.45015625 -23 455 C-22.46375 454.319375 -21.9275 453.63875 -21.375 452.9375 C-20.59125 451.968125 -19.8075 450.99875 -19 450 C-18.56429687 449.43410156 -18.12859375 448.86820312 -17.6796875 448.28515625 C-12.76660318 442.15051271 -6.74905786 437.78824412 1 436 C2.91609587 435.88581405 4.83287535 435.78286717 6.75 435.6875 C14.65184117 435.10907738 21.04412075 432.47623282 26.5 426.625 C30.43613094 421.44704747 31.00692011 416.28100452 31.375 409.9375 C31.86095958 403.33998096 33.70994035 400.12249431 38.5625 395.625 C43.42534864 393.32619883 47.70950279 393.34375149 53 394 C57.44436041 395.73909755 60.49385309 398.98070778 63 403 C63.82711604 404.92263398 64.61568212 406.86209524 65.375 408.8125 C69.2152702 418.44895441 75.24301208 425.41471265 84 431 C85.64931446 431.70850832 87.31276005 432.38726549 89 433 C89.07476562 432.03320312 89.14953125 431.06640625 89.2265625 430.0703125 C90.42770939 418.17660306 93.5602264 410.24687085 103.05078125 402.4375 C105 401 105 401 108.1875 399.125 C112.85537942 395.59815777 115.17342976 390.47971073 117 385 C117.51882499 377.47703759 115.89122868 371.50227533 112.3125 364.875 C110.08700655 360.00010959 110.57062462 356.33332354 112.1875 351.3125 C114.10665249 347.80508338 115.68853873 346.1807184 119 344 C119.61875 343.5875 120.2375 343.175 120.875 342.75 C125.52398556 341.10918157 129.55425486 341.55824394 133.9375 343.625 C137.56817702 345.5977378 140.7388687 348.02459376 144 350.546875 C153.7500442 357.63089149 164.29227084 358.37514929 176 359 C175.66226562 358.50371094 175.32453125 358.00742187 174.9765625 357.49609375 C169.45269829 349.08257803 167.68948065 341.04731505 169 331 C169.92999461 328.42629398 170.88837626 325.98833191 172 323.5 C175.45910121 315.66064577 177.01275694 308.44273599 173.95703125 300.1796875 C170.99852126 294.6273018 167.47463886 291.55282104 162.12109375 288.375 C158.48816259 286.0199507 155.94035111 282.88070222 154 279 C153.12052547 272.94418966 154.11304872 268.82558198 157.41796875 263.7265625 C160.11597657 260.78207002 162.76082867 259.13134931 166.76391602 258.70703125 C168.24396118 258.75923828 168.24396118 258.75923828 169.75390625 258.8125 C171.4080957 258.84730469 171.4080957 258.84730469 173.09570312 258.8828125 C175.37958869 258.96001427 177.663444 259.03811693 179.94726562 259.1171875 C191.11891448 259.35033495 201.73365542 257.66912686 211 251 C211.33 250.34 211.66 249.68 212 249 C211.154375 248.79375 210.30875 248.5875 209.4375 248.375 C202.43650724 245.5746029 198.57104068 240.97977846 195.04296875 234.44140625 C192.91371294 229.45719322 191.86540155 224.45030199 191.11401367 219.1003418 C190.13184784 212.4621732 188.83565556 207.39436243 184.01171875 202.48046875 C178.75555864 198.61234315 173.9580431 197.43664258 167.625 196.8125 C166.88894531 196.73064453 166.15289062 196.64878906 165.39453125 196.56445312 C163.59745375 196.36607444 161.79885107 196.18159423 160 196 C160 193.03 160 190.06 160 187 C171.72553934 187.1908002 182.72816063 188.97241948 191.5390625 197.33203125 C197.18915499 203.7828053 199.87839137 210.27299072 200.375 218.8125 C200.98079048 226.83674105 202.93428374 232.43266396 208.9375 237.9375 C214.72955227 242.54771807 219.76641881 243.40114143 227 244 C224.22713411 252.28909909 217.24383112 258.09582567 209.68457031 262.09814453 C197.89554296 267.97357182 188.42513641 268.19477521 175.47070312 267.83398438 C173.71209961 267.80594727 173.71209961 267.80594727 171.91796875 267.77734375 C170.85344482 267.74890381 169.7889209 267.72046387 168.69213867 267.69116211 C165.98960988 267.77922122 165.98960988 267.77922122 164.15356445 269.33032227 C162.3499805 271.94084304 162.62212013 273.91398102 163 277 C164.58778143 280.17556286 166.08922147 281.04804233 169.25 282.75 C175.70384264 286.25663332 180.65032033 292.46571446 183.33203125 299.26953125 C186.00980356 310.21551279 184.15694969 318.72928738 179.3515625 328.75 C176.6148836 335.33068453 177.06956756 341.3355556 179.6875 347.875 C182.57479261 353.57841956 187.00423583 357.14612478 192 361 C190.46378265 361.82275672 188.92071368 362.63272577 187.375 363.4375 C186.51648438 363.88996094 185.65796875 364.34242188 184.7734375 364.80859375 C174.97464804 369.01793288 161.51426959 368.26202325 151.5625 364.9375 C144.67662802 362.15469066 139.05543527 358.20598599 133.265625 353.62890625 C130.56899373 351.62033296 129.23058994 350.99547863 125.8125 351.0625 C122.25885421 352.22089515 122.25885421 352.22089515 120 355 C118.95632667 360.3488258 121.34016402 364.15227002 123.80859375 368.73046875 C127.03725714 374.88080786 127.03296357 382.16251357 125.24609375 388.80078125 C121.88773259 397.47984009 117.13708636 404.19212765 109.16796875 409.13671875 C103.66012546 412.55662145 100.93913964 416.82221 99 423 C97.83049932 430.8787414 99.10056836 437.10636192 103 444 C90.02128543 444.62800232 80.49220591 440.22558099 70.55078125 431.96484375 C62.69368116 424.61465334 57.8117194 415.50219246 53.7265625 405.64453125 C53.11662994 403.99628421 53.11662994 403.99628421 52 403 C46.85515364 402.40945094 46.85515364 402.40945094 42.265625 404.17578125 C40.54221105 406.65983777 40.66493428 408.43044856 40.625 411.4375 C40.08370526 420.204352 37.04178797 428.95733118 30.9453125 435.46875 C24.40261994 440.61882125 16.57974712 443.94200877 8.3125 444.3125 C0.33467443 444.96610499 -4.44619724 447.02935737 -9.875 452.9375 C-14.79518209 459.03181645 -15.43483107 464.34047374 -16 472 C-18.01643447 470.6869729 -20.01147495 469.35409087 -22 468 C-22.804375 467.46375 -23.60875 466.9275 -24.4375 466.375 C-33.38881055 458.07866339 -38.43348221 446.9623151 -40 435 C-40.1650904 429.54987279 -39.95258383 424.10906751 -39.74609375 418.66210938 C-39.71322266 417.05239258 -39.71322266 417.05239258 -39.6796875 415.41015625 C-39.64601074 414.44215088 -39.61233398 413.47414551 -39.57763672 412.47680664 C-39.77629511 409.87466826 -39.77629511 409.87466826 -41.81298828 408.18139648 C-44.07544733 406.77535323 -44.07544733 406.77535323 -47.3125 406.6875 C-52.2405246 408.44154266 -53.50189464 411.13267365 -56.2578125 415.42578125 C-60.48978813 421.67885735 -66.66665548 426.13295331 -74 428 C-83.58178468 429.20421129 -90.91752547 428.09471487 -99.69018555 424.15722656 C-106.02244026 421.37437391 -111.63869793 420.5861302 -118.27734375 422.73828125 C-124.68098341 425.63601763 -128.76745423 430.51336659 -133 436 C-139.25538072 424.32328933 -141.0676581 412.12907973 -138.125 399.13671875 C-135.58593255 391.49445981 -131.92983607 385.32000311 -127 379 C-124.88974951 376.20484365 -123.16882543 373.88633352 -122.5 370.375 C-123.191213 367.09173825 -124.27633489 365.93523574 -127 364 C-131.76890046 363.13292719 -134.89661912 364.67911485 -138.97265625 366.9296875 C-146.27875424 370.78685676 -153.68574793 371.1909955 -161.75390625 369.3828125 C-171.28621434 366.01144845 -177.36988849 359.36028179 -182.60546875 350.98046875 C-185.82589581 346.40692107 -190.68139253 344.20421301 -196 343 C-203.64591354 342.21397151 -209.27945083 343.28295552 -216 347 C-216.95049429 336.26997559 -214.09123073 327.78481355 -207.625 319.1875 C-206.4346306 317.77631581 -205.22704005 316.37941758 -204 315 C-203.50113281 314.39671875 -203.00226563 313.7934375 -202.48828125 313.171875 C-196.3793686 306.33974096 -187.4901415 301.85343463 -179.125 298.328125 C-176.18324153 297.30797288 -176.18324153 297.30797288 -175 296 C-174.42026792 290.87352008 -174.42026792 290.87352008 -176.1328125 286.26953125 C-178.79524072 284.45930286 -180.929355 284.62671509 -184.125 284.5625 C-190.26006568 284.20842296 -194.72157899 283.12089151 -200 280 C-200.69867188 279.58878906 -201.39734375 279.17757813 -202.1171875 278.75390625 C-209.22005099 274.02313114 -214.16573152 266.33758399 -216 258 C-216.1362522 256.04241736 -216.25991223 254.08394085 -216.375 252.125 C-216.9473633 244.53414897 -219.06060355 239.64983468 -224.375 234.1875 C-229.72688852 229.73098446 -236.28466281 228.9903236 -243 228 C-239.73178178 218.46769686 -231.60450368 212.94707106 -222.9765625 208.41015625 C-216.42844481 205.38187126 -211.63135238 203.85328497 -204.37109375 204.04296875 C-202.44813477 204.07487305 -202.44813477 204.07487305 -200.48632812 204.10742188 C-198.45601631 204.14459625 -196.42653077 204.18781888 -194.39672852 204.24682617 C-192.43027011 204.30125854 -190.46312377 204.32874011 -188.49609375 204.35546875 C-187.32232178 204.38278076 -186.1485498 204.41009277 -184.93920898 204.43823242 C-181.92534142 204.27906536 -181.92534142 204.27906536 -180.11352539 202.18481445 C-178.78657784 199.91282972 -178.78657784 199.91282972 -178.6875 196.6875 C-180.44154266 191.7594754 -183.13267365 190.49810536 -187.42578125 187.7421875 C-193.67885735 183.51021187 -198.13295331 177.33334452 -200 170 C-201.20549168 160.40802738 -200.09333958 153.02758931 -196.1550293 144.23950195 C-193.12498619 137.37403082 -192.8950274 131.76557406 -195.25 124.6875 C-198.07487905 118.18766256 -201.85379937 115.19129648 -208 112 C-203.88322422 107.36530727 -198.0425384 105.41167753 -191.95263672 104.79150391 C-189.73549235 104.67355481 -187.53271584 104.62767262 -185.3125 104.625 C-184.61237793 104.62346924 -183.91225586 104.62193848 -183.19091797 104.62036133 C-170.27750834 104.89198299 -159.35075916 110.52429556 -149.3125 118.30859375 C-146.62726091 120.32951588 -145.22175112 121 -141.8125 121 C-138.984076 120.17850625 -138.984076 120.17850625 -137.0625 118.375 C-135.47990454 114.83743367 -136.07824602 112.7484662 -137 109 C-137.94451231 106.66045487 -138.96500979 104.38492458 -140.0625 102.11328125 C-143.16542365 95.1187742 -143.03726239 87.02851512 -140.5 79.875 C-136.71615701 71.51071549 -130.70638651 66.27258009 -123.05078125 61.5390625 C-118.84877218 58.38555474 -116.63188086 53.89564257 -115 49 C-114.27209733 41.05273482 -115.05805489 34.96879582 -119 28 C-106.19282715 26.72494961 -95.62472084 32.79856038 -85.94921875 40.66796875 C-78.75161699 47.22267793 -74.08347259 55.97248426 -70.33203125 64.87109375 C-69.30844485 67.81609857 -69.30844485 67.81609857 -68 69 C-66.31391034 69.07205511 -64.62499341 69.08386068 -62.9375 69.0625 C-62.01839844 69.05347656 -61.09929687 69.04445313 -60.15234375 69.03515625 C-59.44207031 69.02355469 -58.73179687 69.01195313 -58 69 C-56.93180256 65.79540767 -56.8268133 63.24240151 -56.6875 59.875 C-55.99869358 50.47174867 -52.53627463 42.8537096 -46 36 C-39.00088903 30.33285629 -32.51671934 28.02317144 -23.5625 27.125 C-14.89139822 26.084131 -9.74001859 23.71220419 -4.21875 16.78125 C-0.76476124 11.73311258 -0.50032948 5.92495437 0 0 Z " fill="#F9C02D" transform="translate(264,20)"/>
<path d="M0 0 C13.32140779 11.4017964 23.60257611 24.40639511 32.31298828 39.59765625 C32.31298828 39.92765625 32.31298828 40.25765625 32.31298828 40.59765625 C31.23050308 40.60352249 30.14801788 40.60938873 29.0327301 40.61543274 C18.80766898 40.67276358 8.58281841 40.7455792 -1.64202785 40.83337116 C-6.89813629 40.87800816 -12.15416841 40.91727899 -17.41040039 40.9440918 C-22.48745953 40.9701913 -27.56422392 41.01064067 -32.64109993 41.06084251 C-34.57342919 41.07746633 -36.50580938 41.08900844 -38.4382 41.09527016 C-41.15483021 41.10496019 -43.87071394 41.13307737 -46.5871582 41.1652832 C-47.77291946 41.16313057 -47.77291946 41.16313057 -48.9826355 41.16093445 C-56.13520329 41.28006019 -63.22136364 42.8997644 -68.93701172 47.41015625 C-69.54029297 47.87035156 -70.14357422 48.33054687 -70.76513672 48.8046875 C-72.90368705 50.66550624 -72.90368705 50.66550624 -74.80810547 53.73828125 C-77.0659162 56.49473115 -78.74653504 57.10316228 -82.26904297 57.5 C-84.01165286 57.55660411 -85.75626609 57.56658764 -87.49951172 57.53515625 C-88.4029834 57.52766357 -89.30645508 57.5201709 -90.23730469 57.51245117 C-94.35907507 57.31909066 -96.96266223 57.08744463 -100.42529297 54.74609375 C-102.31201172 52.41015625 -102.31201172 52.41015625 -103.96044922 49.9296875 C-107.56787819 45.05720991 -113.89255256 42.85648869 -119.68701172 41.59765625 C-122.53829092 41.47961756 -125.36719313 41.41263722 -128.21923828 41.39233398 C-129.50758575 41.37748459 -129.50758575 41.37748459 -130.82196045 41.36233521 C-133.65715796 41.33078134 -136.49237222 41.30598693 -139.32763672 41.28125 C-141.29490593 41.2606752 -143.26217077 41.23967858 -145.22943115 41.21827698 C-150.40462707 41.1631107 -155.57986253 41.1136774 -160.75512695 41.06542969 C-166.03714513 41.01517493 -171.31910596 40.95950961 -176.60107422 40.90429688 C-186.96300439 40.79678187 -197.32498437 40.6953221 -207.68701172 40.59765625 C-207.06764982 39.3337091 -206.44531915 38.07121649 -205.82177734 36.80932617 C-205.47554321 36.1061174 -205.12930908 35.40290863 -204.77258301 34.6783905 C-203.15302898 31.57416181 -201.23407455 28.74515768 -199.18701172 25.91015625 C-198.75686768 25.31420654 -198.32672363 24.71825684 -197.88354492 24.10424805 C-179.13704296 -1.31706854 -152.37283549 -19.72195712 -121.68701172 -27.40234375 C-120.61064453 -27.68980469 -119.53427734 -27.97726563 -118.42529297 -28.2734375 C-77.47532768 -39.01188511 -32.18621738 -26.75508432 0 0 Z " fill="#FCC32D" transform="translate(343.68701171875,151.40234375)"/>
<path d="M0 0 C1.48493202 -0.002062 1.48493202 -0.002062 2.99986267 -0.00416565 C4.07951797 -0.00057037 5.15917328 0.0030249 6.27154541 0.00672913 C7.41329727 0.0065831 8.55504913 0.00643707 9.73139954 0.00628662 C13.50814712 0.00698371 17.28484549 0.01476665 21.06158447 0.02259827 C23.67903618 0.02446317 26.29648824 0.02588673 28.91394043 0.02688599 C35.1009852 0.02999297 41.28801228 0.03819785 47.47504926 0.04823548 C54.51974555 0.05941624 61.56444269 0.06491201 68.60914564 0.06993091 C83.09850937 0.08038098 97.58785918 0.0979682 112.07720947 0.12025452 C112.33954573 4.16068125 112.49871439 8.19891933 112.63970947 12.24525452 C112.71511963 13.38736389 112.79052979 14.52947327 112.8682251 15.70619202 C112.95607278 19.06392577 112.91927722 21.86474636 112.07720947 25.12025452 C109.41662943 27.92352605 106.49012153 29.39362186 103.07720947 31.12025452 C98.07847782 35.91355884 96.58096142 40.90801044 94.70220947 47.37025452 C91.16906758 58.64164525 86.82536832 68.17069707 76.07720947 74.12025452 C64.97284909 79.18395293 54.97978057 80.32633366 42.90875244 80.36048889 C40.84600036 80.37016636 38.78425881 80.40124314 36.72174072 80.43275452 C21.62825725 80.55457596 9.10292214 77.00892171 -2.17279053 66.62025452 C-11.07865828 57.21804063 -15.3864035 45.71116009 -16.29779053 32.93275452 C-16.74125446 28.31929907 -17.63673365 25.57061424 -20.92279053 22.12025452 C-25.29085685 19.58106082 -29.88982844 17.76966898 -34.92279053 17.12025452 C-34.92279053 16.79025452 -34.92279053 16.46025452 -34.92279053 16.12025452 C-34.03075928 16.07127014 -33.13872803 16.02228577 -32.21966553 15.97181702 C-30.4639624 15.85966858 -30.4639624 15.85966858 -28.67279053 15.74525452 C-26.93255615 15.64084045 -26.93255615 15.64084045 -25.15716553 15.53431702 C-22.16894464 15.151767 -20.34676497 14.87279942 -17.92279053 13.12025452 C-17.02051643 11.3128192 -17.02051643 11.3128192 -16.54779053 9.24525452 C-15.09190949 4.86170015 -13.08898565 3.24586427 -8.92279053 1.12025452 C-5.89468496 0.17160184 -3.16537648 -0.00339633 0 0 Z " fill="#18916F" transform="translate(295.92279052734375,207.87974548339844)"/>
<path d="M0 0 C15.24709737 -0.09040881 30.49407328 -0.16404501 45.74137115 -0.20724869 C52.82149372 -0.22784508 59.90143752 -0.25590929 66.98144531 -0.30175781 C73.81548249 -0.34599227 80.6493339 -0.36914563 87.48350525 -0.37950897 C90.0893801 -0.38689334 92.69524492 -0.40131322 95.30104065 -0.42292023 C98.95417138 -0.45200386 102.60653754 -0.45595374 106.25976562 -0.45410156 C107.33439056 -0.46848267 108.4090155 -0.48286377 109.51620483 -0.49768066 C116.86954597 -0.45740294 122.58274212 0.58274212 128 6 C128.8375807 8.04788482 129.52034987 10.1236602 130.21875 12.22265625 C130.86054904 14.19646447 130.86054904 14.19646447 133 15 C134.87056791 15.2275015 136.74685958 15.40962811 138.625 15.5625 C139.62789062 15.64628906 140.63078125 15.73007813 141.6640625 15.81640625 C142.43492187 15.87699219 143.20578125 15.93757812 144 16 C141.08234624 17.94510251 138.24709682 19.24785877 135.03515625 20.609375 C131.01701877 23.35497374 129.241757 26.7761052 128.3125 31.48046875 C128.1578125 33.31544922 128.1578125 33.31544922 128 35.1875 C126.56205212 48.66908973 121.28237058 59.65631423 111.46484375 69.078125 C99.47438971 78.42725874 86.65245738 80.37390585 71.93603516 80.37060547 C69.76774614 80.37496433 67.60152259 80.41134026 65.43359375 80.44921875 C51.58493251 80.56139684 38.70158351 77.59472846 28.00390625 68.2578125 C21.27723217 61.285217 18.63858544 52.40284487 16.125 43.25 C14.35770465 37.33062522 11.96845028 32.79885276 7 29 C4.69 28.01 2.38 27.02 0 26 C0 17.42 0 8.84 0 0 Z " fill="#18916F" transform="translate(104,208)"/>
<path d="M0 0 C0.76441406 -0.00257813 1.52882813 -0.00515625 2.31640625 -0.0078125 C4.4375 0.125 4.4375 0.125 7.4375 1.125 C7.59605469 2.12917969 7.75460937 3.13335937 7.91796875 4.16796875 C10.05543902 16.98176439 13.345053 28.69559337 21.4375 39.125 C21.98792969 39.86234375 22.53835938 40.5996875 23.10546875 41.359375 C32.53697389 53.02307006 46.89294146 60.22073126 61.4375 63.125 C64.21156785 63.40255678 66.96329105 63.45229745 69.75 63.4609375 C70.5219873 63.4675943 71.29397461 63.4742511 72.08935547 63.48110962 C73.71628464 63.49117339 75.34325458 63.4959286 76.97021484 63.49560547 C79.40405337 63.49994043 81.83601701 63.53621822 84.26953125 63.57421875 C99.73693999 63.68642103 112.78012571 60.73659395 126.4375 53.125 C127.76724443 52.45120332 129.09920123 51.78164192 130.4375 51.125 C125.29576115 80.43291144 104.34572709 109.04297484 80.4375 126.125 C58.57731029 141.06226904 34.06940561 150.84050295 7.4375 152.125 C6.54804688 152.16882813 5.65859375 152.21265625 4.7421875 152.2578125 C-9.17652571 152.83296594 -22.1001857 151.73276661 -35.5625 148.125 C-36.32369141 147.92132813 -37.08488281 147.71765625 -37.86914062 147.5078125 C-54.45892157 142.88606785 -70.18110253 134.99487392 -83.5625 124.125 C-84.06942383 123.72200684 -84.57634766 123.31901367 -85.09863281 122.90380859 C-105.31501064 106.78042867 -120.32712315 86.2795002 -129.125 61.875 C-129.38893555 61.14748535 -129.65287109 60.4199707 -129.92480469 59.67041016 C-131.68930116 54.50540349 -131.68930116 54.50540349 -130.5625 51.125 C-129.80066406 51.59550781 -129.03882813 52.06601562 -128.25390625 52.55078125 C-122.13806292 56.23861187 -116.46361941 59.29709653 -109.5625 61.125 C-108.58144287 61.39026489 -108.58144287 61.39026489 -107.58056641 61.66088867 C-99.0152764 63.6656337 -90.31073813 63.60925521 -81.5625 63.625 C-80.32394257 63.62851974 -80.32394257 63.62851974 -79.06036377 63.6321106 C-58.24286342 63.60756941 -42.25678548 58.82048703 -26.625 44.27734375 C-15.52378499 32.69255308 -10.05086674 16.90168748 -8.5625 1.125 C-5.64174603 0.28669704 -3.03585217 -0.01027361 0 0 Z M-1.5625 8.125 C-1.69205078 8.96417969 -1.69205078 8.96417969 -1.82421875 9.8203125 C-5.19358172 29.04731953 -14.20745172 45.49471519 -29.875 57.375 C-45.5608182 68.16579865 -60.93793135 71.82409894 -79.64257812 71.59155273 C-82.192065 71.56244789 -84.73947798 71.57102619 -87.2890625 71.58398438 C-97.93920931 71.56914627 -107.39044748 70.51568417 -117.5625 67.125 C-114.91836082 80.77006394 -102.60302699 95.99962521 -92.5625 105.125 C-91.4178125 106.300625 -91.4178125 106.300625 -90.25 107.5 C-89.363125 108.36625 -88.47625 109.2325 -87.5625 110.125 C-86.9128125 110.77082031 -86.263125 111.41664063 -85.59375 112.08203125 C-60.92338851 135.55999193 -28.17581867 144.90375043 5.18359375 144.3046875 C39.07777964 143.32259877 69.04653093 128.14815743 92.4375 104.125 C92.94627686 103.64466309 93.45505371 103.16432617 93.97924805 102.66943359 C98.5440826 98.30092904 102.11496573 93.65664052 105.5625 88.375 C106.34125488 87.19671631 106.34125488 87.19671631 107.13574219 85.99462891 C110.86070781 80.25874731 114.00828757 74.53699096 116.4375 68.125 C112.45356989 68.74706029 112.45356989 68.74706029 108.51782227 69.61254883 C100.77962293 71.4825207 93.03575382 71.46269232 85.1262207 71.44067383 C82.77181975 71.43752914 80.41869826 71.46098721 78.06445312 71.48632812 C57.18967576 71.57503173 39.70438839 66.85931894 23.4375 53.125 C22.45523438 52.31289063 22.45523438 52.31289063 21.453125 51.484375 C9.2553805 40.40568963 2.89694916 24.05635727 0.4375 8.125 C-0.2225 8.125 -0.8825 8.125 -1.5625 8.125 Z " fill="#EC8725" transform="translate(256.5625,239.875)"/>
<path d="M0 0 C13.32140779 11.4017964 23.60257611 24.40639511 32.31298828 39.59765625 C32.31298828 39.92765625 32.31298828 40.25765625 32.31298828 40.59765625 C31.23050308 40.60352249 30.14801788 40.60938873 29.0327301 40.61543274 C18.80766898 40.67276358 8.58281841 40.7455792 -1.64202785 40.83337116 C-6.89813629 40.87800816 -12.15416841 40.91727899 -17.41040039 40.9440918 C-22.48745953 40.9701913 -27.56422392 41.01064067 -32.64109993 41.06084251 C-34.57342919 41.07746633 -36.50580938 41.08900844 -38.4382 41.09527016 C-41.15483021 41.10496019 -43.87071394 41.13307737 -46.5871582 41.1652832 C-47.77291946 41.16313057 -47.77291946 41.16313057 -48.9826355 41.16093445 C-56.13520329 41.28006019 -63.22136364 42.8997644 -68.93701172 47.41015625 C-69.54029297 47.87035156 -70.14357422 48.33054687 -70.76513672 48.8046875 C-72.90368705 50.66550624 -72.90368705 50.66550624 -74.80810547 53.73828125 C-77.0659162 56.49473115 -78.74653504 57.10316228 -82.26904297 57.5 C-84.01165286 57.55660411 -85.75626609 57.56658764 -87.49951172 57.53515625 C-88.4029834 57.52766357 -89.30645508 57.5201709 -90.23730469 57.51245117 C-94.35907507 57.31909066 -96.96266223 57.08744463 -100.42529297 54.74609375 C-102.31201172 52.41015625 -102.31201172 52.41015625 -103.96044922 49.9296875 C-107.56787819 45.05720991 -113.89255256 42.85648869 -119.68701172 41.59765625 C-122.53829092 41.47961756 -125.36719313 41.41263722 -128.21923828 41.39233398 C-129.50758575 41.37748459 -129.50758575 41.37748459 -130.82196045 41.36233521 C-133.65715796 41.33078134 -136.49237222 41.30598693 -139.32763672 41.28125 C-141.29490593 41.2606752 -143.26217077 41.23967858 -145.22943115 41.21827698 C-150.40462707 41.1631107 -155.57986253 41.1136774 -160.75512695 41.06542969 C-166.03714513 41.01517493 -171.31910596 40.95950961 -176.60107422 40.90429688 C-186.96300439 40.79678187 -197.32498437 40.6953221 -207.68701172 40.59765625 C-207.06764982 39.3337091 -206.44531915 38.07121649 -205.82177734 36.80932617 C-205.47554321 36.1061174 -205.12930908 35.40290863 -204.77258301 34.6783905 C-203.15302898 31.57416181 -201.23407455 28.74515768 -199.18701172 25.91015625 C-198.75686768 25.31420654 -198.32672363 24.71825684 -197.88354492 24.10424805 C-179.13704296 -1.31706854 -152.37283549 -19.72195712 -121.68701172 -27.40234375 C-120.61064453 -27.68980469 -119.53427734 -27.97726563 -118.42529297 -28.2734375 C-77.47532768 -39.01188511 -32.18621738 -26.75508432 0 0 Z M-188.60107422 25.09765625 C-190.6005014 27.49397348 -192.11625371 29.9097281 -193.68701172 32.59765625 C-192.35182747 32.60645561 -192.35182747 32.60645561 -190.9896698 32.61543274 C-182.5605731 32.67357371 -174.13173537 32.74577141 -165.70289135 32.83337116 C-161.37055037 32.87791117 -157.03829989 32.91720232 -152.70581055 32.9440918 C-148.51699941 32.97028944 -144.32853966 33.0108052 -140.13994789 33.06084251 C-138.54979163 33.07740081 -136.95957475 33.08898326 -135.36934471 33.09527016 C-120.46897425 33.16008261 -107.529109 35.12373928 -96.03466797 45.23046875 C-94.68701172 46.59765625 -94.68701172 46.59765625 -93.68701172 48.59765625 C-85.7220405 49.42869447 -85.7220405 49.42869447 -78.74951172 46.34765625 C-78.06888672 45.44015625 -77.38826172 44.53265625 -76.68701172 43.59765625 C-68.42827702 36.23175774 -58.93789562 33.39132971 -47.98583984 33.27880859 C-47.26290741 33.26876297 -46.53997498 33.25871735 -45.7951355 33.24836731 C-43.43618473 33.21779406 -41.07734603 33.20057321 -38.71826172 33.18359375 C-37.07058769 33.16486121 -35.42292305 33.14528627 -33.77526855 33.12490845 C-29.46160438 33.07380141 -25.14790918 33.0340617 -20.83410645 32.99676514 C-16.423019 32.95659037 -12.01205823 32.90555981 -7.60107422 32.85546875 C1.03685974 32.75896352 9.67485694 32.67447833 18.31298828 32.59765625 C17.3602723 31.14726229 16.40473242 29.69872299 15.44799805 28.25097656 C14.91618423 27.44412415 14.38437042 26.63727173 13.83644104 25.80596924 C12.17136339 23.39236462 10.38128846 21.36032172 8.25048828 19.34765625 C7.56599609 18.69152344 6.88150391 18.03539062 6.17626953 17.359375 C5.56138672 16.77800781 4.94650391 16.19664062 4.31298828 15.59765625 C3.13736328 14.39109375 3.13736328 14.39109375 1.93798828 13.16015625 C1.07173828 12.31453125 0.20548828 11.46890625 -0.68701172 10.59765625 C-1.35861328 9.94152344 -2.03021484 9.28539062 -2.72216797 8.609375 C-27.81300459 -15.01272972 -61.4386266 -24.13252876 -95.22998047 -23.74609375 C-133.11932648 -22.57712048 -163.77516775 -2.01596173 -188.60107422 25.09765625 Z " fill="#EC8725" transform="translate(343.68701171875,151.40234375)"/>
<path d="M0 0 C1.48493202 -0.002062 1.48493202 -0.002062 2.99986267 -0.00416565 C4.07951797 -0.00057037 5.15917328 0.0030249 6.27154541 0.00672913 C7.41329727 0.0065831 8.55504913 0.00643707 9.73139954 0.00628662 C13.50814712 0.00698371 17.28484549 0.01476665 21.06158447 0.02259827 C23.67903618 0.02446317 26.29648824 0.02588673 28.91394043 0.02688599 C35.1009852 0.02999297 41.28801228 0.03819785 47.47504926 0.04823548 C54.51974555 0.05941624 61.56444269 0.06491201 68.60914564 0.06993091 C83.09850937 0.08038098 97.58785918 0.0979682 112.07720947 0.12025452 C112.33954573 4.16068125 112.49871439 8.19891933 112.63970947 12.24525452 C112.71511963 13.38736389 112.79052979 14.52947327 112.8682251 15.70619202 C112.95607278 19.06392577 112.91927722 21.86474636 112.07720947 25.12025452 C109.41662943 27.92352605 106.49012153 29.39362186 103.07720947 31.12025452 C98.07847782 35.91355884 96.58096142 40.90801044 94.70220947 47.37025452 C91.16906758 58.64164525 86.82536832 68.17069707 76.07720947 74.12025452 C64.97284909 79.18395293 54.97978057 80.32633366 42.90875244 80.36048889 C40.84600036 80.37016636 38.78425881 80.40124314 36.72174072 80.43275452 C21.62825725 80.55457596 9.10292214 77.00892171 -2.17279053 66.62025452 C-11.07865828 57.21804063 -15.3864035 45.71116009 -16.29779053 32.93275452 C-16.74125446 28.31929907 -17.63673365 25.57061424 -20.92279053 22.12025452 C-25.29085685 19.58106082 -29.88982844 17.76966898 -34.92279053 17.12025452 C-34.92279053 16.79025452 -34.92279053 16.46025452 -34.92279053 16.12025452 C-34.03075928 16.07127014 -33.13872803 16.02228577 -32.21966553 15.97181702 C-30.4639624 15.85966858 -30.4639624 15.85966858 -28.67279053 15.74525452 C-26.93255615 15.64084045 -26.93255615 15.64084045 -25.15716553 15.53431702 C-22.16894464 15.151767 -20.34676497 14.87279942 -17.92279053 13.12025452 C-17.02051643 11.3128192 -17.02051643 11.3128192 -16.54779053 9.24525452 C-15.09190949 4.86170015 -13.08898565 3.24586427 -8.92279053 1.12025452 C-5.89468496 0.17160184 -3.16537648 -0.00339633 0 0 Z M-8.92279053 11.12025452 C-11.30380432 15.45070096 -11.30380432 15.45070096 -11.73529053 20.24525452 C-11.13361665 21.63373269 -10.51665144 23.01560659 -9.89154053 24.39369202 C-8.86048978 27.29560098 -8.69033932 29.55312195 -8.61029053 32.62025452 C-7.74316624 44.75999448 -2.50213446 55.02214545 6.26470947 63.30775452 C16.24968864 71.44695803 27.12493115 72.34710851 39.46710205 72.41542053 C40.90307519 72.42687734 42.33900789 72.44722827 43.77471924 72.47694397 C56.3171313 72.73586356 68.32452613 71.47931376 77.84674072 62.44056702 C83.95488858 56.03665621 86.39066196 49.10722868 88.38970947 40.62025452 C90.07629133 34.18389348 93.36513178 27.54211492 99.08892822 23.80775452 C99.72443604 23.45712952 100.35994385 23.10650452 101.01470947 22.74525452 C102.75286602 21.80543258 102.75286602 21.80543258 104.07720947 20.12025452 C104.44862386 17.17696381 104.44862386 17.17696381 104.26861572 13.95619202 C104.24098145 12.86612854 104.21334717 11.77606506 104.18487549 10.65296936 C104.1493457 9.81717346 104.11381592 8.98137756 104.07720947 8.12025452 C89.93449416 8.05017372 75.79180578 7.99747038 61.64895248 7.964818 C55.08217098 7.94914816 48.51550596 7.92788557 41.9487915 7.89393616 C35.61403505 7.86139012 29.27939078 7.84341144 22.94455719 7.83562279 C20.52518192 7.83007076 18.10581293 7.8192293 15.68648529 7.80306435 C12.30324432 7.7813537 8.9204696 7.77828498 5.53717041 7.77967834 C4.53232101 7.76889252 3.52747162 7.75810669 2.49217224 7.74699402 C1.56953079 7.75111801 0.64688934 7.755242 -0.30371094 7.75949097 C-1.5038854 7.7553429 -1.5038854 7.7553429 -2.72830582 7.75111103 C-5.52568026 8.22166913 -6.85471213 9.20212321 -8.92279053 11.12025452 Z " fill="#1EAE82" transform="translate(295.92279052734375,207.87974548339844)"/>
<path d="M0 0 C15.24709737 -0.09040881 30.49407328 -0.16404501 45.74137115 -0.20724869 C52.82149372 -0.22784508 59.90143752 -0.25590929 66.98144531 -0.30175781 C73.81548249 -0.34599227 80.6493339 -0.36914563 87.48350525 -0.37950897 C90.0893801 -0.38689334 92.69524492 -0.40131322 95.30104065 -0.42292023 C98.95417138 -0.45200386 102.60653754 -0.45595374 106.25976562 -0.45410156 C107.33439056 -0.46848267 108.4090155 -0.48286377 109.51620483 -0.49768066 C116.86954597 -0.45740294 122.58274212 0.58274212 128 6 C128.8375807 8.04788482 129.52034987 10.1236602 130.21875 12.22265625 C130.86054904 14.19646447 130.86054904 14.19646447 133 15 C134.87056791 15.2275015 136.74685958 15.40962811 138.625 15.5625 C139.62789062 15.64628906 140.63078125 15.73007813 141.6640625 15.81640625 C142.43492187 15.87699219 143.20578125 15.93757812 144 16 C141.08234624 17.94510251 138.24709682 19.24785877 135.03515625 20.609375 C131.01701877 23.35497374 129.241757 26.7761052 128.3125 31.48046875 C128.1578125 33.31544922 128.1578125 33.31544922 128 35.1875 C126.56205212 48.66908973 121.28237058 59.65631423 111.46484375 69.078125 C99.47438971 78.42725874 86.65245738 80.37390585 71.93603516 80.37060547 C69.76774614 80.37496433 67.60152259 80.41134026 65.43359375 80.44921875 C51.58493251 80.56139684 38.70158351 77.59472846 28.00390625 68.2578125 C21.27723217 61.285217 18.63858544 52.40284487 16.125 43.25 C14.35770465 37.33062522 11.96845028 32.79885276 7 29 C4.69 28.01 2.38 27.02 0 26 C0 17.42 0 8.84 0 0 Z M8 8 C7.90199077 9.93258438 7.83174899 11.86659203 7.7734375 13.80078125 C7.73138184 14.87755127 7.68932617 15.95432129 7.64599609 17.0637207 C7.72282226 20.05192756 7.72282226 20.05192756 9.68823242 21.89575195 C11.05540851 22.80760481 12.44144576 23.69147886 13.83984375 24.5546875 C21.15846511 29.45141427 22.99150726 37.83041593 25.18310547 45.8269043 C28.12446707 56.37204832 33.56283311 63.11087834 43 68.8125 C51.60355144 72.21807245 59.56900666 72.33509103 68.75 72.3125 C70.69132812 72.33666992 70.69132812 72.33666992 72.671875 72.36132812 C86.06386125 72.36807812 98.18672503 70.29959945 108.2578125 60.890625 C115.91294726 52.69878338 119.71722892 44.17095863 120.4375 32.9375 C120.74911131 28.22805362 121.70977375 25.16404773 124 21 C123.97733657 18.98775876 123.97733657 18.98775876 123 17 C122.54625 15.80375 122.0925 14.6075 121.625 13.375 C120.25876256 9.80486758 120.25876256 9.80486758 117 8 C114.87448905 7.70537568 114.87448905 7.70537568 112.50117493 7.75949097 C111.57990814 7.75674164 110.65864136 7.75399231 109.7094574 7.75115967 C108.70101273 7.75835022 107.69256805 7.76554077 106.65356445 7.77294922 C105.58998718 7.77265717 104.52640991 7.77236511 103.43060303 7.77206421 C99.90808002 7.77345978 96.3857674 7.78903183 92.86328125 7.8046875 C90.42376318 7.80841682 87.98424361 7.81126417 85.54472351 7.81326294 C79.11835609 7.82090577 72.69207883 7.8405599 66.26574707 7.8626709 C59.71038024 7.8831153 53.15499888 7.89226165 46.59960938 7.90234375 C33.73303442 7.92380512 20.866522 7.95756547 8 8 Z " fill="#1EAE82" transform="translate(104,208)"/>
<path d="M0 0 C4.15594573 0.86582203 5.44578191 2.24238685 8 5.625 C8.50243457 7.11080919 8.95846706 8.61285921 9.375 10.125 C10.64737559 14.35687905 12.14861422 16.31909175 15.8984375 18.6328125 C19.78781595 20.46906181 23.83602939 21.59272588 28 22.625 C28.59425781 22.80933594 29.18851563 22.99367188 29.80078125 23.18359375 C40.29712329 25.2903196 51.32810051 24.03060127 61 19.625 C61.78246094 19.29757812 62.56492187 18.97015625 63.37109375 18.6328125 C68.05191015 16.27952132 69.55389378 13.95132546 71.25 9 C71.62898438 7.58847656 71.62898438 7.58847656 72.015625 6.1484375 C73.17689537 3.17153013 74.25872953 2.20471518 77 0.625 C79.9375 0.125 79.9375 0.125 83 0.625 C86.47277071 3.11633551 87.81446199 4.57361792 88.5625 8.8125 C87.18352105 18.15891287 83.5188597 24.84495155 76 30.625 C61.15052768 40.52464821 42.49711582 43.41600805 24.99609375 39.93359375 C13.82339414 37.00244643 3.08884841 32.04899848 -4 22.625 C-6.96108755 17.28162106 -9.08601926 11.77910916 -8 5.625 C-5.55401113 2.24378009 -4.10703441 0.85563217 0 0 Z " fill="#262625" transform="translate(216,311.375)"/>
<path d="M0 0 C3.8125 1.0625 3.8125 1.0625 5.3125 3.125 C5.4775 3.764375 5.6425 4.40375 5.8125 5.0625 C6.4725 5.0625 7.1325 5.0625 7.8125 5.0625 C7.998125 4.423125 8.18375 3.78375 8.375 3.125 C9.8125 1.0625 9.8125 1.0625 13.125 0.125 C17.16474472 0.05652975 18.69166901 0.58419304 21.8125 3.0625 C23.42069739 6.27889478 23.28111231 9.57394167 22.8125 13.0625 C20.33224559 17.83928628 17.07340798 21.71315877 12 23.8125 C3.25569167 24.81184952 3.25569167 24.81184952 -1.4375 22.375 C-6.26075866 18.31907795 -8.85749504 15.03254467 -9.5625 8.6875 C-9.1875 5.0625 -9.1875 5.0625 -7.1875 2.0625 C-4.10762868 0.00925245 -3.4789051 -0.25980894 0 0 Z " fill="#212627" transform="translate(329.1875,231.9375)"/>
<path d="M0 0 C3.8125 1.0625 3.8125 1.0625 5.3125 3.125 C5.4775 3.764375 5.6425 4.40375 5.8125 5.0625 C6.4725 5.0625 7.1325 5.0625 7.8125 5.0625 C7.998125 4.423125 8.18375 3.78375 8.375 3.125 C9.8125 1.0625 9.8125 1.0625 13.125 0.125 C17.16474472 0.05652975 18.69166901 0.58419304 21.8125 3.0625 C23.42069739 6.27889478 23.28111231 9.57394167 22.8125 13.0625 C20.33224559 17.83928628 17.07340798 21.71315877 12 23.8125 C3.25569167 24.81184952 3.25569167 24.81184952 -1.4375 22.375 C-6.26075866 18.31907795 -8.85749504 15.03254467 -9.5625 8.6875 C-9.1875 5.0625 -9.1875 5.0625 -7.1875 2.0625 C-4.10762868 0.00925245 -3.4789051 -0.25980894 0 0 Z " fill="#212627" transform="translate(169.1875,231.9375)"/>
</svg>
