<?xml version="1.0" encoding="UTF-8"?>
<svg version="1.1" xmlns="http://www.w3.org/2000/svg" width="512" height="512">
<path d="M0 0 C0.87412537 0.00054382 1.74825073 0.00108765 2.64886475 0.00164795 C17.26116839 0.04326516 31.28602973 1.06005355 45.5625 4.375 C46.5014209 4.58930664 47.4403418 4.80361328 48.40771484 5.02441406 C96.51283389 16.33261484 140.13442545 44.60251137 169.5625 84.375 C169.96210938 84.91382812 170.36171875 85.45265625 170.7734375 86.0078125 C177.1601476 94.70916922 182.46544338 103.88086008 187.5625 113.375 C188.16964844 114.48230469 188.77679688 115.58960937 189.40234375 116.73046875 C198.08772988 133.21497712 203.77744867 151.17594508 207.5625 169.375 C207.72621094 170.11782227 207.88992188 170.86064453 208.05859375 171.62597656 C213.7684569 198.51188175 212.66104749 229.68571165 206.5625 256.375 C206.38058105 257.20999023 206.19866211 258.04498047 206.01123047 258.90527344 C202.54994945 274.50114375 197.33160741 290.19047437 189.3203125 304.04858398 C188.30549574 306.42206275 188.30549574 306.42206275 189.3371582 309.03173828 C190.62425785 311.49310158 192.07343703 313.59882303 193.75 315.8125 C210.04299131 338.77850438 213.87976269 367.09523088 209.74291992 394.61694336 C209.13965614 397.90947461 208.38102583 401.12751539 207.5625 404.375 C207.4068457 405.03757812 207.25119141 405.70015625 207.09082031 406.3828125 C202.99431255 423.58650977 195.15983789 440.22341093 184.5625 454.375 C183.99789063 455.16003906 183.43328125 455.94507813 182.8515625 456.75390625 C159.75762098 487.36094229 126.92444752 505.42249091 89.53335762 511.89973736 C84.63864438 512.48557411 79.84030757 512.52309307 74.91549683 512.52217102 C73.85444202 512.52584771 72.79338721 512.5295244 71.70017922 512.5333125 C68.15021219 512.54431158 64.60027446 512.54818685 61.05029297 512.55200195 C58.50208443 512.5582697 55.9538768 512.56491677 53.40567017 512.57191467 C45.76140407 512.59111397 38.11714313 512.60174096 30.47285908 512.61064246 C26.86336602 512.61503542 23.2538744 512.62039977 19.64438248 512.62563133 C7.62757866 512.64264201 -4.38922428 512.65713137 -16.40603828 512.66438007 C-19.52085496 512.66628965 -22.63567163 512.66821002 -25.75048828 512.67016602 C-26.91159934 512.67089163 -26.91159934 512.67089163 -28.09616719 512.6716319 C-40.60724306 512.67991419 -53.11822277 512.70522125 -65.62925674 512.73774669 C-78.50607294 512.77094692 -91.38284052 512.78884066 -104.2596997 512.79202431 C-111.47645845 512.79417796 -118.69307715 512.80275639 -125.90979385 512.82848549 C-132.71097388 512.85267843 -139.51189983 512.85593757 -146.31311417 512.84572411 C-148.79409624 512.8452323 -151.27509129 512.85144629 -153.75603485 512.86528015 C-188.18079512 513.0463166 -221.61375671 505.17312791 -248.4375 482.375 C-249.26894531 481.66988281 -250.10039062 480.96476562 -250.95703125 480.23828125 C-253.50510837 478.00319628 -255.97599374 475.70497539 -258.4375 473.375 C-259.87416016 472.05242187 -259.87416016 472.05242187 -261.33984375 470.703125 C-284.01408587 449.37216107 -299.89156405 416.46816167 -301.55223083 385.21586609 C-301.61818266 382.78292093 -301.65458024 380.35172033 -301.67578125 377.91796875 C-301.683853 377.01613358 -301.69192474 376.1142984 -301.70024109 375.18513489 C-301.7140215 373.2781462 -301.72477044 371.37113347 -301.73266602 369.46411133 C-301.74410481 367.54932213 -301.76442555 365.63456273 -301.79418945 363.7199707 C-302.26901637 333.08435038 -293.15130985 305.94011977 -271.75170898 283.54223633 C-253.74119168 265.36132624 -231.96806654 256.64677559 -207.4375 251.375 C-207.64898682 250.16545654 -207.86047363 248.95591309 -208.07836914 247.7097168 C-210.12394949 235.46766716 -210.96736606 223.58885161 -210.875 211.1875 C-210.87162628 210.29869141 -210.86825256 209.40988281 -210.86477661 208.49414062 C-210.78455527 193.82659608 -209.84619893 179.69105235 -206.4375 165.375 C-206.19080566 164.33504883 -205.94411133 163.29509766 -205.68994141 162.22363281 C-196.15043673 123.28090347 -176.79876938 90.40812042 -149.4375 61.375 C-148.74785156 60.6428125 -148.05820313 59.910625 -147.34765625 59.15625 C-120.44158381 31.42483791 -83.35816542 13.25943999 -46.125 4.5625 C-45.290896 4.36736816 -44.45679199 4.17223633 -43.59741211 3.97119141 C-29.11438934 0.79571684 -14.77250266 -0.0348151 0 0 Z " fill="#B6DCE9" transform="translate(301.4375,-0.37499999999999994)"/>
<path d="M0 0 C0.87412537 0.00054382 1.74825073 0.00108765 2.64886475 0.00164795 C17.26116839 0.04326516 31.28602973 1.06005355 45.5625 4.375 C46.5014209 4.58930664 47.4403418 4.80361328 48.40771484 5.02441406 C96.51283389 16.33261484 140.13442545 44.60251137 169.5625 84.375 C169.96210938 84.91382812 170.36171875 85.45265625 170.7734375 86.0078125 C177.1601476 94.70916922 182.46544338 103.88086008 187.5625 113.375 C188.16964844 114.48230469 188.77679688 115.58960937 189.40234375 116.73046875 C198.08772988 133.21497712 203.77744867 151.17594508 207.5625 169.375 C207.72621094 170.11782227 207.88992188 170.86064453 208.05859375 171.62597656 C213.7684569 198.51188175 212.66104749 229.68571165 206.5625 256.375 C206.38058105 257.20999023 206.19866211 258.04498047 206.01123047 258.90527344 C202.54994945 274.50114375 197.33160741 290.19047437 189.3203125 304.04858398 C188.30549574 306.42206275 188.30549574 306.42206275 189.3371582 309.03173828 C190.62425785 311.49310158 192.07343703 313.59882303 193.75 315.8125 C210.04299131 338.77850438 213.87976269 367.09523088 209.74291992 394.61694336 C209.13965614 397.90947461 208.38102583 401.12751539 207.5625 404.375 C207.4068457 405.03757812 207.25119141 405.70015625 207.09082031 406.3828125 C202.99431255 423.58650977 195.15983789 440.22341093 184.5625 454.375 C183.99789063 455.16003906 183.43328125 455.94507813 182.8515625 456.75390625 C159.75762098 487.36094229 126.92444752 505.42249091 89.53335762 511.89973736 C84.63864438 512.48557411 79.84030757 512.52309307 74.91549683 512.52217102 C73.85444202 512.52584771 72.79338721 512.5295244 71.70017922 512.5333125 C68.15021219 512.54431158 64.60027446 512.54818685 61.05029297 512.55200195 C58.50208443 512.5582697 55.9538768 512.56491677 53.40567017 512.57191467 C45.76140407 512.59111397 38.11714313 512.60174096 30.47285908 512.61064246 C26.86336602 512.61503542 23.2538744 512.62039977 19.64438248 512.62563133 C7.62757866 512.64264201 -4.38922428 512.65713137 -16.40603828 512.66438007 C-19.52085496 512.66628965 -22.63567163 512.66821002 -25.75048828 512.67016602 C-26.91159934 512.67089163 -26.91159934 512.67089163 -28.09616719 512.6716319 C-40.60724306 512.67991419 -53.11822277 512.70522125 -65.62925674 512.73774669 C-78.50607294 512.77094692 -91.38284052 512.78884066 -104.2596997 512.79202431 C-111.47645845 512.79417796 -118.69307715 512.80275639 -125.90979385 512.82848549 C-132.71097388 512.85267843 -139.51189983 512.85593757 -146.31311417 512.84572411 C-148.79409624 512.8452323 -151.27509129 512.85144629 -153.75603485 512.86528015 C-188.18079512 513.0463166 -221.61375671 505.17312791 -248.4375 482.375 C-249.26894531 481.66988281 -250.10039062 480.96476562 -250.95703125 480.23828125 C-253.50510837 478.00319628 -255.97599374 475.70497539 -258.4375 473.375 C-259.87416016 472.05242187 -259.87416016 472.05242187 -261.33984375 470.703125 C-284.01408587 449.37216107 -299.89156405 416.46816167 -301.55223083 385.21586609 C-301.61818266 382.78292093 -301.65458024 380.35172033 -301.67578125 377.91796875 C-301.683853 377.01613358 -301.69192474 376.1142984 -301.70024109 375.18513489 C-301.7140215 373.2781462 -301.72477044 371.37113347 -301.73266602 369.46411133 C-301.74410481 367.54932213 -301.76442555 365.63456273 -301.79418945 363.7199707 C-302.26901637 333.08435038 -293.15130985 305.94011977 -271.75170898 283.54223633 C-253.74119168 265.36132624 -231.96806654 256.64677559 -207.4375 251.375 C-207.64898682 250.16545654 -207.86047363 248.95591309 -208.07836914 247.7097168 C-210.12394949 235.46766716 -210.96736606 223.58885161 -210.875 211.1875 C-210.87162628 210.29869141 -210.86825256 209.40988281 -210.86477661 208.49414062 C-210.78455527 193.82659608 -209.84619893 179.69105235 -206.4375 165.375 C-206.19080566 164.33504883 -205.94411133 163.29509766 -205.68994141 162.22363281 C-196.15043673 123.28090347 -176.79876938 90.40812042 -149.4375 61.375 C-148.74785156 60.6428125 -148.05820313 59.910625 -147.34765625 59.15625 C-120.44158381 31.42483791 -83.35816542 13.25943999 -46.125 4.5625 C-45.290896 4.36736816 -44.45679199 4.17223633 -43.59741211 3.97119141 C-29.11438934 0.79571684 -14.77250266 -0.0348151 0 0 Z M-70.4375 180.375 C-71.60539063 180.63152344 -72.77328125 180.88804687 -73.9765625 181.15234375 C-93.45959241 185.8516667 -111.40273261 195.1444047 -126.4375 208.375 C-127.31792969 209.09945312 -128.19835937 209.82390625 -129.10546875 210.5703125 C-140.71680107 220.45586238 -149.24900576 232.73283928 -156.40234375 246.09887695 C-160.53219545 253.66291527 -165.22968402 257.67821598 -173.4375 260.375 C-177.02001953 260.63623047 -177.02001953 260.63623047 -180.8203125 260.4921875 C-182.23906302 260.45450337 -183.65784784 260.41809334 -185.07666016 260.3828125 C-185.80943176 260.35993164 -186.54220337 260.33705078 -187.29718018 260.31347656 C-218.04650863 259.45184915 -243.07171076 268.14405905 -265.74609375 289.53125 C-278.18156119 302.67061182 -287.1740553 318.77246098 -291.4375 336.375 C-291.70240234 337.35629883 -291.70240234 337.35629883 -291.97265625 338.35742188 C-293.83006256 346.08344173 -293.74045901 353.84666502 -293.69824219 361.74121094 C-293.68758389 364.10638443 -293.69815291 366.47078797 -293.7109375 368.8359375 C-293.7247824 381.82551225 -292.4413475 394.24281729 -288.75 406.75 C-288.48872314 407.64283691 -288.22744629 408.53567383 -287.95825195 409.45556641 C-277.62346816 443.6603078 -254.67356419 471.75096007 -223.23657227 488.89331055 C-211.1686187 495.27414076 -198.80221866 499.59383275 -185.4375 502.375 C-184.2412484 502.62845072 -184.2412484 502.62845072 -183.02083009 502.88702166 C-176.44402234 504.18883101 -170.18684953 504.66415221 -163.49256897 504.64242554 C-161.9254285 504.64922221 -161.9254285 504.64922221 -160.32662863 504.65615618 C-156.85580856 504.66872921 -153.38514684 504.66718439 -149.91430664 504.66552734 C-147.41314494 504.67151718 -144.91198509 504.67832377 -142.41082764 504.68588257 C-136.33827243 504.70167923 -130.26577852 504.70798917 -124.19320846 504.70910732 C-119.24941508 504.71006133 -114.30563438 504.71418912 -109.36184502 504.72050858 C-95.30639666 504.73810592 -81.25097872 504.74735026 -67.19551928 504.74584763 C-66.06124334 504.74572776 -66.06124334 504.74572776 -64.90405273 504.74560547 C-64.14693146 504.74552371 -63.38981019 504.74544195 -62.60974585 504.74535771 C-50.36013607 504.7445461 -38.11064962 504.76365602 -25.86107547 504.7918822 C-13.24516348 504.82072 -0.62931141 504.83441641 11.98663431 504.83269465 C19.0540641 504.83203431 26.12136473 504.83736853 33.18876457 504.85905075 C39.84473926 504.87934166 46.5003982 504.87847848 53.15640259 504.86401749 C55.58458926 504.8619424 58.01279342 504.8665516 60.44095039 504.8787384 C78.70527222 504.96438923 95.90017304 503.19355955 113.25 497.1875 C114.11101318 496.89343262 114.97202637 496.59936523 115.85913086 496.29638672 C133.96083837 489.86593407 148.64402242 479.50998712 162.5625 466.375 C163.29984375 465.70210938 164.0371875 465.02921875 164.796875 464.3359375 C188.45792363 441.93345529 202.05712372 408.43187347 202.96118164 376.15039062 C203.27840075 349.38428017 194.46592358 326.94877138 175.875 307.57421875 C156.12517474 288.65687159 132.47233719 282.84288438 105.92333984 283.01464844 C95.22025413 283.0563578 88.61992141 282.36168824 80.76953125 274.62109375 C78.10704637 270.70512041 76.71443941 266.90898795 75.25 262.4375 C69.03777238 244.64411374 59.53141987 230.08251832 46.5625 216.375 C45.80324219 215.55128906 45.04398437 214.72757813 44.26171875 213.87890625 C33.41842817 202.50321187 20.81070019 194.77151015 6.5625 188.375 C5.92135254 188.08608887 5.28020508 187.79717773 4.61962891 187.49951172 C-17.99044541 177.4845822 -46.23149085 174.69664665 -70.4375 180.375 Z " fill="#FECE49" transform="translate(301.4375,-0.37499999999999994)"/>
<path d="M0 0 C0.87412537 0.00054382 1.74825073 0.00108765 2.64886475 0.00164795 C17.26116839 0.04326516 31.28602973 1.06005355 45.5625 4.375 C46.5014209 4.58930664 47.4403418 4.80361328 48.40771484 5.02441406 C96.51283389 16.33261484 140.13442545 44.60251137 169.5625 84.375 C169.96210938 84.91382812 170.36171875 85.45265625 170.7734375 86.0078125 C177.1601476 94.70916922 182.46544338 103.88086008 187.5625 113.375 C188.16964844 114.48230469 188.77679688 115.58960937 189.40234375 116.73046875 C198.08772988 133.21497712 203.77744867 151.17594508 207.5625 169.375 C207.72621094 170.11782227 207.88992188 170.86064453 208.05859375 171.62597656 C213.7684569 198.51188175 212.66104749 229.68571165 206.5625 256.375 C206.38058105 257.20999023 206.19866211 258.04498047 206.01123047 258.90527344 C202.54994945 274.50114375 197.33160741 290.19047437 189.3203125 304.04858398 C188.30549574 306.42206275 188.30549574 306.42206275 189.3371582 309.03173828 C190.62425785 311.49310158 192.07343703 313.59882303 193.75 315.8125 C210.04299131 338.77850438 213.87976269 367.09523088 209.74291992 394.61694336 C209.13965614 397.90947461 208.38102583 401.12751539 207.5625 404.375 C207.4068457 405.03757812 207.25119141 405.70015625 207.09082031 406.3828125 C202.99431255 423.58650977 195.15983789 440.22341093 184.5625 454.375 C183.99789063 455.16003906 183.43328125 455.94507813 182.8515625 456.75390625 C159.75762098 487.36094229 126.92444752 505.42249091 89.53335762 511.89973736 C84.63864438 512.48557411 79.84030757 512.52309307 74.91549683 512.52217102 C73.85444202 512.52584771 72.79338721 512.5295244 71.70017922 512.5333125 C68.15021219 512.54431158 64.60027446 512.54818685 61.05029297 512.55200195 C58.50208443 512.5582697 55.9538768 512.56491677 53.40567017 512.57191467 C45.76140407 512.59111397 38.11714313 512.60174096 30.47285908 512.61064246 C26.86336602 512.61503542 23.2538744 512.62039977 19.64438248 512.62563133 C7.62757866 512.64264201 -4.38922428 512.65713137 -16.40603828 512.66438007 C-19.52085496 512.66628965 -22.63567163 512.66821002 -25.75048828 512.67016602 C-26.91159934 512.67089163 -26.91159934 512.67089163 -28.09616719 512.6716319 C-40.60724306 512.67991419 -53.11822277 512.70522125 -65.62925674 512.73774669 C-78.50607294 512.77094692 -91.38284052 512.78884066 -104.2596997 512.79202431 C-111.47645845 512.79417796 -118.69307715 512.80275639 -125.90979385 512.82848549 C-132.71097388 512.85267843 -139.51189983 512.85593757 -146.31311417 512.84572411 C-148.79409624 512.8452323 -151.27509129 512.85144629 -153.75603485 512.86528015 C-188.18079512 513.0463166 -221.61375671 505.17312791 -248.4375 482.375 C-249.26894531 481.66988281 -250.10039062 480.96476562 -250.95703125 480.23828125 C-253.50510837 478.00319628 -255.97599374 475.70497539 -258.4375 473.375 C-259.87416016 472.05242187 -259.87416016 472.05242187 -261.33984375 470.703125 C-284.01408587 449.37216107 -299.89156405 416.46816167 -301.55223083 385.21586609 C-301.61818266 382.78292093 -301.65458024 380.35172033 -301.67578125 377.91796875 C-301.683853 377.01613358 -301.69192474 376.1142984 -301.70024109 375.18513489 C-301.7140215 373.2781462 -301.72477044 371.37113347 -301.73266602 369.46411133 C-301.74410481 367.54932213 -301.76442555 365.63456273 -301.79418945 363.7199707 C-302.26901637 333.08435038 -293.15130985 305.94011977 -271.75170898 283.54223633 C-253.74119168 265.36132624 -231.96806654 256.64677559 -207.4375 251.375 C-207.64898682 250.16545654 -207.86047363 248.95591309 -208.07836914 247.7097168 C-210.12394949 235.46766716 -210.96736606 223.58885161 -210.875 211.1875 C-210.87162628 210.29869141 -210.86825256 209.40988281 -210.86477661 208.49414062 C-210.78455527 193.82659608 -209.84619893 179.69105235 -206.4375 165.375 C-206.19080566 164.33504883 -205.94411133 163.29509766 -205.68994141 162.22363281 C-196.15043673 123.28090347 -176.79876938 90.40812042 -149.4375 61.375 C-148.74785156 60.6428125 -148.05820313 59.910625 -147.34765625 59.15625 C-120.44158381 31.42483791 -83.35816542 13.25943999 -46.125 4.5625 C-45.290896 4.36736816 -44.45679199 4.17223633 -43.59741211 3.97119141 C-29.11438934 0.79571684 -14.77250266 -0.0348151 0 0 Z M-135.4375 60.375 C-136.82705862 61.59054391 -138.22270631 62.79917006 -139.625 64 C-176.90632944 96.65844459 -198.96041126 147.50512774 -202.4375 196.375 C-203.33352869 215.07959893 -202.39187644 234.03342416 -198.4375 252.375 C-182.84287177 254.66425564 -182.84287177 254.66425564 -168.4375 250.375 C-164.63002115 246.19230918 -162.02712566 241.99724081 -159.4375 237 C-143.44094637 207.40827891 -114.388818 185.67867316 -82.375 176.125 C-69.25053399 172.73486568 -57.21307378 170.81598154 -43.6875 170.9375 C-42.94360016 170.94120605 -42.19970032 170.94491211 -41.43325806 170.94873047 C-29.72326746 171.03156974 -18.63159284 171.71923853 -7.4375 175.375 C-6.59477539 175.64876465 -5.75205078 175.9225293 -4.88378906 176.20458984 C12.7712174 182.1205882 28.32502788 190.37936476 42.5625 202.375 C43.07264648 202.80006836 43.58279297 203.22513672 44.10839844 203.66308594 C63.33026597 219.86211064 74.87642583 240.88114731 83.75 264.0625 C85.43769845 268.33560884 87.30135062 271.88695212 91.24267578 274.48071289 C94.44272379 275.71432433 97.25376508 275.65040608 100.6796875 275.68359375 C102.1067741 275.7088003 103.53385734 275.73419748 104.9609375 275.75976562 C107.18292949 275.78818419 109.40486133 275.81221976 111.62695312 275.83129883 C135.81932183 276.07899297 160.3821806 282.86833145 178.14453125 300.16015625 C179.50443275 301.59187302 179.50443275 301.59187302 181.5625 301.375 C190.57765192 282.60142565 197.47699519 263.01305007 200.5625 242.375 C200.82800659 240.65422241 200.82800659 240.65422241 201.09887695 238.89868164 C202.38368573 230.02941552 202.91516423 221.4067462 202.875 212.4375 C202.87284485 211.77202148 202.8706897 211.10654297 202.86846924 210.42089844 C202.64089529 166.15842314 188.66880703 123.5420463 161.5625 88.375 C160.79292969 87.3746875 160.02335937 86.374375 159.23046875 85.34375 C151.22491037 75.30434706 142.55333688 65.47659856 132.5625 57.375 C131.47510599 56.46372591 130.38788263 55.55224817 129.30078125 54.640625 C120.52776007 47.36672417 111.43658781 41.05918624 101.5625 35.375 C100.84642578 34.96008301 100.13035156 34.54516602 99.39257812 34.11767578 C81.82463436 24.07057338 62.5043741 16.12851784 42.5625 12.375 C41.18312256 12.10647217 41.18312256 12.10647217 39.77587891 11.83251953 C-22.05230762 0.17517649 -89.38475524 16.09692749 -135.4375 60.375 Z M-70.4375 180.375 C-71.60539063 180.63152344 -72.77328125 180.88804687 -73.9765625 181.15234375 C-93.45959241 185.8516667 -111.40273261 195.1444047 -126.4375 208.375 C-127.31792969 209.09945312 -128.19835937 209.82390625 -129.10546875 210.5703125 C-140.71680107 220.45586238 -149.24900576 232.73283928 -156.40234375 246.09887695 C-160.53219545 253.66291527 -165.22968402 257.67821598 -173.4375 260.375 C-177.02001953 260.63623047 -177.02001953 260.63623047 -180.8203125 260.4921875 C-182.23906302 260.45450337 -183.65784784 260.41809334 -185.07666016 260.3828125 C-185.80943176 260.35993164 -186.54220337 260.33705078 -187.29718018 260.31347656 C-218.04650863 259.45184915 -243.07171076 268.14405905 -265.74609375 289.53125 C-278.18156119 302.67061182 -287.1740553 318.77246098 -291.4375 336.375 C-291.70240234 337.35629883 -291.70240234 337.35629883 -291.97265625 338.35742188 C-293.83006256 346.08344173 -293.74045901 353.84666502 -293.69824219 361.74121094 C-293.68758389 364.10638443 -293.69815291 366.47078797 -293.7109375 368.8359375 C-293.7247824 381.82551225 -292.4413475 394.24281729 -288.75 406.75 C-288.48872314 407.64283691 -288.22744629 408.53567383 -287.95825195 409.45556641 C-277.62346816 443.6603078 -254.67356419 471.75096007 -223.23657227 488.89331055 C-211.1686187 495.27414076 -198.80221866 499.59383275 -185.4375 502.375 C-184.2412484 502.62845072 -184.2412484 502.62845072 -183.02083009 502.88702166 C-176.44402234 504.18883101 -170.18684953 504.66415221 -163.49256897 504.64242554 C-161.9254285 504.64922221 -161.9254285 504.64922221 -160.32662863 504.65615618 C-156.85580856 504.66872921 -153.38514684 504.66718439 -149.91430664 504.66552734 C-147.41314494 504.67151718 -144.91198509 504.67832377 -142.41082764 504.68588257 C-136.33827243 504.70167923 -130.26577852 504.70798917 -124.19320846 504.70910732 C-119.24941508 504.71006133 -114.30563438 504.71418912 -109.36184502 504.72050858 C-95.30639666 504.73810592 -81.25097872 504.74735026 -67.19551928 504.74584763 C-66.06124334 504.74572776 -66.06124334 504.74572776 -64.90405273 504.74560547 C-64.14693146 504.74552371 -63.38981019 504.74544195 -62.60974585 504.74535771 C-50.36013607 504.7445461 -38.11064962 504.76365602 -25.86107547 504.7918822 C-13.24516348 504.82072 -0.62931141 504.83441641 11.98663431 504.83269465 C19.0540641 504.83203431 26.12136473 504.83736853 33.18876457 504.85905075 C39.84473926 504.87934166 46.5003982 504.87847848 53.15640259 504.86401749 C55.58458926 504.8619424 58.01279342 504.8665516 60.44095039 504.8787384 C78.70527222 504.96438923 95.90017304 503.19355955 113.25 497.1875 C114.11101318 496.89343262 114.97202637 496.59936523 115.85913086 496.29638672 C133.96083837 489.86593407 148.64402242 479.50998712 162.5625 466.375 C163.29984375 465.70210938 164.0371875 465.02921875 164.796875 464.3359375 C188.45792363 441.93345529 202.05712372 408.43187347 202.96118164 376.15039062 C203.27840075 349.38428017 194.46592358 326.94877138 175.875 307.57421875 C156.12517474 288.65687159 132.47233719 282.84288438 105.92333984 283.01464844 C95.22025413 283.0563578 88.61992141 282.36168824 80.76953125 274.62109375 C78.10704637 270.70512041 76.71443941 266.90898795 75.25 262.4375 C69.03777238 244.64411374 59.53141987 230.08251832 46.5625 216.375 C45.80324219 215.55128906 45.04398437 214.72757813 44.26171875 213.87890625 C33.41842817 202.50321187 20.81070019 194.77151015 6.5625 188.375 C5.92135254 188.08608887 5.28020508 187.79717773 4.61962891 187.49951172 C-17.99044541 177.4845822 -46.23149085 174.69664665 -70.4375 180.375 Z " fill="#030302" transform="translate(301.4375,-0.37499999999999994)"/>
</svg>
