<?xml version="1.0" encoding="UTF-8"?>
<svg version="1.1" xmlns="http://www.w3.org/2000/svg" width="512" height="512">
<path d="M0 0 C11.34839325 10.03102732 20.89971337 20.51263259 28.79296875 33.46875 C29.35105225 34.37246338 29.35105225 34.37246338 29.92041016 35.29443359 C36.51929789 46.17319695 42.50851437 59.45037205 44.13549805 72.14038086 C44.54824458 74.56987945 44.54824458 74.56987945 46.47607422 75.58374023 C47.19682129 75.81262939 47.91756836 76.04151855 48.66015625 76.27734375 C49.45800537 76.54595215 50.25585449 76.81456055 51.07788086 77.09130859 C51.93260986 77.36023926 52.78733887 77.62916992 53.66796875 77.90625 C55.41873703 78.50570578 57.16746351 79.11115908 58.9140625 79.72265625 C59.75952637 80.0180127 60.60499023 80.31336914 61.47607422 80.61767578 C83.74276404 88.79698882 101.7029286 108.33225374 111.77197266 129.35327148 C121.728775 151.47256564 124.10626681 178.43345041 115.79296875 201.46875 C115.57334473 202.10409668 115.3537207 202.73944336 115.12744141 203.39404297 C106.51291023 228.07927775 88.54991673 247.50148074 65.31640625 259.22265625 C49.62917795 266.28722069 34.46678208 268.6212577 17.37203979 268.60919189 C15.90255853 268.6117786 14.43307797 268.61479261 12.96359837 268.6181953 C8.93833635 268.62623261 4.9130922 268.62805304 0.8878231 268.62879276 C-3.45863443 268.63064902 -7.80508282 268.63819918 -12.15153503 268.64492798 C-21.64963102 268.65848828 -31.14772277 268.66453234 -40.64582682 268.66893864 C-46.58051422 268.67170479 -52.51520001 268.67594281 -58.44988632 268.68044281 C-74.89318044 268.69263215 -91.33647327 268.70293233 -107.7797718 268.7063179 C-109.35722338 268.70664725 -109.35722338 268.70664725 -110.96654265 268.70698325 C-112.02063785 268.70720153 -113.07473306 268.70741981 -114.16077054 268.7076447 C-116.29663348 268.70808816 -118.43249643 268.70853472 -120.56835938 268.70898438 C-121.62781249 268.7092058 -122.68726561 268.70942723 -123.77882336 268.70965537 C-140.94073748 268.71360231 -158.10260912 268.73105467 -175.26450683 268.7543439 C-192.89980291 268.77808167 -210.5350777 268.79052085 -228.17039001 268.79168582 C-238.06574626 268.79260118 -247.96104713 268.79831854 -257.85638809 268.81650543 C-266.28319008 268.83193914 -274.70991957 268.8370076 -283.13673301 268.82876733 C-287.43214285 268.82487248 -291.72740684 268.8257332 -296.02279854 268.83982468 C-299.96346395 268.85263364 -303.90387494 268.85130536 -307.84454034 268.83923396 C-309.26177084 268.83728901 -310.6790198 268.84029911 -312.09622444 268.84907833 C-335.20861106 268.98306245 -354.69416258 261.66457159 -371.20703125 245.46875 C-371.98175781 244.73011719 -372.75648438 243.99148438 -373.5546875 243.23046875 C-388.06071549 228.42586043 -392.86711345 208.85367007 -392.67578125 188.67260742 C-392.05634345 167.34878369 -382.86499204 149.52737899 -367.58203125 134.84375 C-355.95079846 124.79294426 -340.69580675 117.41704238 -325.20703125 116.46875 C-325.25923828 115.62957031 -325.25923828 115.62957031 -325.3125 114.7734375 C-325.99203189 94.64634997 -317.19033561 75.01313032 -303.89453125 60.28125 C-290.50290627 46.00154406 -271.61108218 34.64965191 -251.59838867 33.29174805 C-232.40366625 32.8695348 -217.45602654 34.60796475 -200.20703125 43.46875 C-199.96855469 42.62441406 -199.73007813 41.78007813 -199.484375 40.91015625 C-198.04688854 37.03729516 -196.07664884 33.79975038 -193.76953125 30.40625 C-193.32851074 29.75430664 -192.88749023 29.10236328 -192.43310547 28.43066406 C-172.18625268 -0.96614017 -142.6749077 -20.70870697 -107.65014648 -28.078125 C-69.50053447 -35.07243911 -29.84498245 -24.67311744 0 0 Z " fill="#C3DFFE" transform="translate(392.20703125,32.53125)"/>
<path d="M0 0 C11.34839325 10.03102732 20.89971337 20.51263259 28.79296875 33.46875 C29.35105225 34.37246338 29.35105225 34.37246338 29.92041016 35.29443359 C36.51929789 46.17319695 42.50851437 59.45037205 44.13549805 72.14038086 C44.54824458 74.56987945 44.54824458 74.56987945 46.47607422 75.58374023 C47.19682129 75.81262939 47.91756836 76.04151855 48.66015625 76.27734375 C49.45800537 76.54595215 50.25585449 76.81456055 51.07788086 77.09130859 C51.93260986 77.36023926 52.78733887 77.62916992 53.66796875 77.90625 C55.41873703 78.50570578 57.16746351 79.11115908 58.9140625 79.72265625 C59.75952637 80.0180127 60.60499023 80.31336914 61.47607422 80.61767578 C83.74276404 88.79698882 101.7029286 108.33225374 111.77197266 129.35327148 C121.728775 151.47256564 124.10626681 178.43345041 115.79296875 201.46875 C115.57334473 202.10409668 115.3537207 202.73944336 115.12744141 203.39404297 C106.51291023 228.07927775 88.54991673 247.50148074 65.31640625 259.22265625 C49.62917795 266.28722069 34.46678208 268.6212577 17.37203979 268.60919189 C15.90255853 268.6117786 14.43307797 268.61479261 12.96359837 268.6181953 C8.93833635 268.62623261 4.9130922 268.62805304 0.8878231 268.62879276 C-3.45863443 268.63064902 -7.80508282 268.63819918 -12.15153503 268.64492798 C-21.64963102 268.65848828 -31.14772277 268.66453234 -40.64582682 268.66893864 C-46.58051422 268.67170479 -52.51520001 268.67594281 -58.44988632 268.68044281 C-74.89318044 268.69263215 -91.33647327 268.70293233 -107.7797718 268.7063179 C-109.35722338 268.70664725 -109.35722338 268.70664725 -110.96654265 268.70698325 C-112.02063785 268.70720153 -113.07473306 268.70741981 -114.16077054 268.7076447 C-116.29663348 268.70808816 -118.43249643 268.70853472 -120.56835938 268.70898438 C-121.62781249 268.7092058 -122.68726561 268.70942723 -123.77882336 268.70965537 C-140.94073748 268.71360231 -158.10260912 268.73105467 -175.26450683 268.7543439 C-192.89980291 268.77808167 -210.5350777 268.79052085 -228.17039001 268.79168582 C-238.06574626 268.79260118 -247.96104713 268.79831854 -257.85638809 268.81650543 C-266.28319008 268.83193914 -274.70991957 268.8370076 -283.13673301 268.82876733 C-287.43214285 268.82487248 -291.72740684 268.8257332 -296.02279854 268.83982468 C-299.96346395 268.85263364 -303.90387494 268.85130536 -307.84454034 268.83923396 C-309.26177084 268.83728901 -310.6790198 268.84029911 -312.09622444 268.84907833 C-335.20861106 268.98306245 -354.69416258 261.66457159 -371.20703125 245.46875 C-371.98175781 244.73011719 -372.75648438 243.99148438 -373.5546875 243.23046875 C-388.06071549 228.42586043 -392.86711345 208.85367007 -392.67578125 188.67260742 C-392.05634345 167.34878369 -382.86499204 149.52737899 -367.58203125 134.84375 C-355.95079846 124.79294426 -340.69580675 117.41704238 -325.20703125 116.46875 C-325.25923828 115.62957031 -325.25923828 115.62957031 -325.3125 114.7734375 C-325.99203189 94.64634997 -317.19033561 75.01313032 -303.89453125 60.28125 C-290.50290627 46.00154406 -271.61108218 34.64965191 -251.59838867 33.29174805 C-232.40366625 32.8695348 -217.45602654 34.60796475 -200.20703125 43.46875 C-199.96855469 42.62441406 -199.73007813 41.78007813 -199.484375 40.91015625 C-198.04688854 37.03729516 -196.07664884 33.79975038 -193.76953125 30.40625 C-193.32851074 29.75430664 -192.88749023 29.10236328 -192.43310547 28.43066406 C-172.18625268 -0.96614017 -142.6749077 -20.70870697 -107.65014648 -28.078125 C-69.50053447 -35.07243911 -29.84498245 -24.67311744 0 0 Z M-115.20703125 -4.53125 C-116.88345703 -3.98791016 -116.88345703 -3.98791016 -118.59375 -3.43359375 C-148.21607864 7.1075244 -170.2697907 28.201434 -183.78515625 56.390625 C-184.65497229 58.27363334 -185.52059671 60.15859401 -186.37890625 62.046875 C-188.17829759 65.89480417 -189.19666567 67.94911055 -193.20703125 69.46875 C-199.89788968 69.58410963 -203.11036936 67.32460297 -208.35546875 63.38671875 C-222.80111129 53.67054 -241.12460986 52.10851934 -257.99609375 55.15234375 C-260.87674577 56.06822388 -263.49511881 57.13767371 -266.20703125 58.46875 C-267.13257813 58.89285156 -268.058125 59.31695312 -269.01171875 59.75390625 C-276.08709836 63.27199667 -281.62846418 67.91893843 -287.20703125 73.46875 C-287.83351563 74.06042969 -288.46 74.65210937 -289.10546875 75.26171875 C-293.22405433 79.48280307 -295.87198153 84.25215419 -298.51953125 89.46875 C-298.85742676 90.13334229 -299.19532227 90.79793457 -299.54345703 91.48266602 C-304.48092076 101.65134131 -304.54857934 111.12516738 -304.59765625 122.265625 C-304.62085938 123.3896875 -304.6440625 124.51375 -304.66796875 125.671875 C-304.67618652 126.68926758 -304.6844043 127.70666016 -304.69287109 128.75488281 C-305.33703428 132.15493884 -306.55841917 133.31547723 -309.20703125 135.46875 C-311.83052948 136.78049911 -314.38842462 136.84183275 -317.27539062 137.11425781 C-334.39608362 138.73006619 -347.1626898 143.59446233 -359.20703125 156.46875 C-367.79371076 167.69874768 -371.38191817 178.89311906 -371.39453125 192.90625 C-371.40677734 193.61845703 -371.41902344 194.33066406 -371.43164062 195.06445312 C-371.46848664 208.58693944 -365.21454699 221.83162424 -355.95703125 231.53125 C-344.88117093 241.73270029 -332.04963349 247.57287673 -316.95923996 247.60576439 C-315.71830542 247.61083893 -314.47737089 247.61591347 -313.19883227 247.62114179 C-311.82971879 247.62174337 -310.46060526 247.62224249 -309.0914917 247.62265015 C-307.63071173 247.62666807 -306.16993286 247.63110684 -304.70915532 247.6359297 C-300.69850297 247.64786477 -296.68786264 247.65353654 -292.67719603 247.65811086 C-288.34971044 247.66407877 -284.02223912 247.67568579 -279.69476318 247.68640137 C-269.24399397 247.71090062 -258.79322003 247.72555016 -248.34243095 247.73846143 C-245.38838507 247.74217558 -242.43433965 247.74614864 -239.48029423 247.7502141 C-221.11918545 247.77545604 -202.75807588 247.79749985 -184.39695358 247.80994225 C-180.14582059 247.81287174 -175.89468762 247.81583343 -171.64355469 247.81884766 C-170.05873829 247.81996673 -170.05873829 247.81996673 -168.44190541 247.82110842 C-151.34396704 247.83374969 -134.24613295 247.86695751 -117.14824328 247.90864949 C-99.5762729 247.95114453 -82.00435579 247.97464612 -64.43233418 247.97986281 C-54.57366133 247.98326865 -44.71515135 247.99492579 -34.85652924 248.02796555 C-26.45647891 248.05607159 -18.05662487 248.06691939 -9.65653118 248.05577008 C-5.37673947 248.05061005 -1.0973581 248.05329545 3.18237305 248.07823563 C32.37878362 248.23904721 56.11268731 245.37976963 78.19140625 224.1640625 C92.72335453 209.0369491 100.23729271 188.73128496 100.22973633 167.88574219 C99.58556254 147.54996605 90.17750963 128.5786112 75.79296875 114.46875 C63.79634149 103.7906123 48.98770168 96.42356766 33.0546875 94.19140625 C29.88390529 93.17828931 28.77095586 92.18379757 26.79296875 89.46875 C25.72220077 86.25415239 25.08211195 82.97520201 24.41796875 79.65625 C20.23903958 60.69584209 12.49952828 44.21559043 -0.20703125 29.46875 C-0.75875 28.78425781 -1.31046875 28.09976563 -1.87890625 27.39453125 C-18.45018249 7.31172267 -44.71783668 -5.03596331 -70.20703125 -8.53125 C-85.50824483 -9.5929057 -100.57908951 -9.36496856 -115.20703125 -4.53125 Z " fill="#000000" transform="translate(392.20703125,32.53125)"/>
<path d="M0 0 C0.83402344 -0.0309375 1.66804688 -0.061875 2.52734375 -0.09375 C6.14108015 0.75261045 7.92097873 2.6131987 10.0625 5.5 C12.18469195 8.92967706 14.04187592 12.47147212 15.875 16.0625 C16.39690918 17.07812012 16.91881836 18.09374023 17.45654297 19.14013672 C34.92088061 53.67641537 34.92088061 53.67641537 30.94140625 69.09375 C27.47203602 78.59211471 21.82858123 84.52829613 13.19921875 89.59375 C5.55677842 93.12858322 -4.43539815 92.74303497 -12.25 90 C-21.41257111 85.68997477 -27.47386771 78.97860085 -30.9375 69.5 C-35.56670568 49.72881186 -22.37516436 28.92628568 -13.625 11.9375 C-13.21685059 11.13417236 -12.80870117 10.33084473 -12.38818359 9.50317383 C-9.3351762 3.70747498 -7.03402307 0.08670599 0 0 Z " fill="#000000" transform="translate(102.9375,417.5)"/>
<path d="M0 0 C0.66 -0.00515625 1.32 -0.0103125 2 -0.015625 C4.42989488 0.30709541 5.90227522 0.97209878 8 2.25 C9.39697266 4.11572266 9.39697266 4.11572266 10.6640625 6.4140625 C11.38070068 7.70920776 11.38070068 7.70920776 12.11181641 9.03051758 C12.86084229 10.43853638 12.86084229 10.43853638 13.625 11.875 C14.40689697 13.32845825 14.40689697 13.32845825 15.20458984 14.8112793 C19.03455012 22.08099285 22.44719082 29.48665026 25.625 37.0625 C26.2449585 38.53614014 26.2449585 38.53614014 26.87744141 40.03955078 C31.37942827 51.10433312 33.98474465 61.39326878 29.375 72.9375 C25.28058821 81.06824681 19.75500249 86.38445443 11.44140625 90.171875 C2.70431278 92.90903482 -6.11822251 92.5906497 -14.5 88.8125 C-23.41286628 83.67092816 -28.9175143 76.63335839 -31.6875 66.8125 C-34.21341025 46.10003592 -19.92442596 18.66268429 -8 2.25 C-5.32317531 0.43718011 -3.20611403 -0.02504777 0 0 Z " fill="#000000" transform="translate(321,316.75)"/>
<path d="M0 0 C0.74121094 -0.01933594 1.48242188 -0.03867187 2.24609375 -0.05859375 C6.3298618 0.8160075 8.90180759 3.46072555 11.1965332 6.85327148 C11.66406006 7.74602783 12.13158691 8.63878418 12.61328125 9.55859375 C13.40847168 11.07126831 13.40847168 11.07126831 14.21972656 12.61450195 C15.03908691 14.22844849 15.03908691 14.22844849 15.875 15.875 C16.4431543 16.97996826 17.01130859 18.08493652 17.59667969 19.22338867 C34.82594942 53.38107631 34.82594942 53.38107631 30.9140625 70.23046875 C27.65445965 79.21527147 22.07284594 85.12746083 13.67578125 89.52734375 C6.5717513 92.58693521 -2.73557615 92.67167117 -10.17578125 90.71875 C-12.39303484 89.76904553 -14.38796022 88.70646149 -16.4375 87.4375 C-17.06011719 87.086875 -17.68273437 86.73625 -18.32421875 86.375 C-24.48013495 82.52922155 -28.07094171 76.72966315 -30.8125 70.125 C-34.60269805 47.76283151 -20.95091799 24.29549651 -9.97265625 5.51171875 C-7.17800929 1.73574538 -4.7436705 0.00822127 0 0 Z " fill="#000000" transform="translate(144.4375,316.5625)"/>
<path d="M0 0 C0.84304687 -0.02835937 1.68609375 -0.05671875 2.5546875 -0.0859375 C6.02992797 0.53728191 7.53209991 1.99519114 10.125 4.375 C11.86669922 7.09790039 11.86669922 7.09790039 13.4296875 10.22265625 C14.01016846 11.37693115 14.59064941 12.53120605 15.1887207 13.72045898 C15.79353945 14.95895606 16.39727967 16.19798036 17 17.4375 C17.46205338 18.37349533 17.46205338 18.37349533 17.93344116 19.32839966 C35.65589661 55.25572284 35.65589661 55.25572284 30.16015625 71.921875 C26.59911229 80.36087729 19.71215597 86.5046294 11.4375 90.25 C2.95558743 93.02741059 -6.2494496 92.09679733 -14.375 88.68359375 C-23.08155268 84.12625758 -27.43451349 77.47026538 -30.875 68.375 C-36.12384557 49.11888016 -20.16327582 23.48868459 -11 7.3125 C-8.0957144 2.31067479 -5.94429741 0.09033887 0 0 Z " fill="#000000" transform="translate(190.875,417.625)"/>
<path d="M0 0 C0.83402344 -0.0309375 1.66804688 -0.061875 2.52734375 -0.09375 C6.81622356 0.91073341 8.95102762 3.75543332 11.26391602 7.38574219 C12.52986483 9.60419638 13.71308524 11.85034715 14.875 14.125 C15.51804077 15.36612549 15.51804077 15.36612549 16.17407227 16.63232422 C34.54573681 52.68148409 34.54573681 52.68148409 30.37109375 70.44140625 C27.12580235 79.33540571 21.46278696 85.26678453 13.0625 89.5 C5.26350803 92.71134964 -4.23649101 92.80331986 -12.1875 90 C-21.39375371 85.71871779 -27.46486667 79.00323317 -30.9375 69.5 C-33.02934492 62.00858037 -32.21590785 54.73337117 -29.6875 47.5 C-29.30573608 46.37960327 -29.30573608 46.37960327 -28.91625977 45.23657227 C-24.87629181 33.93947711 -19.39680854 23.16613107 -13.9375 12.5 C-13.27258545 11.19313232 -13.27258545 11.19313232 -12.59423828 9.85986328 C-11.96171143 8.66272705 -11.96171143 8.66272705 -11.31640625 7.44140625 C-10.95232666 6.74861572 -10.58824707 6.0558252 -10.21313477 5.34204102 C-7.49765703 1.4208392 -4.69893719 0.05792218 0 0 Z " fill="#000000" transform="translate(455.9375,417.5)"/>
<path d="M0 0 C0.74121094 -0.02835937 1.48242188 -0.05671875 2.24609375 -0.0859375 C6.16574345 0.69402652 8.50397485 2.81755358 10.73364258 6.09814453 C11.98145326 8.24079637 13.12696316 10.41436418 14.25 12.625 C14.88421875 13.85246948 14.88421875 13.85246948 15.53125 15.10473633 C19.00140952 21.96508304 22.08854773 28.97484451 25.0625 36.0625 C25.48362061 37.06506836 25.90474121 38.06763672 26.33862305 39.10058594 C31.21355129 51.00000138 33.85775378 61.41652744 28.88671875 73.765625 C24.76894316 81.87970787 18.09615077 87.2146021 9.7109375 90.48828125 C1.54974768 92.78678012 -7.85776506 92.30420083 -15.4375 88.375 C-23.84229866 83.1496482 -28.73082805 76.88365624 -31.4375 67.375 C-33.76296882 47.81658326 -22.99041396 30.22322653 -14.4375 13.375 C-13.91784668 12.33794922 -13.39819336 11.30089844 -12.86279297 10.23242188 C-12.34990723 9.24306641 -11.83702148 8.25371094 -11.30859375 7.234375 C-10.85282959 6.34717773 -10.39706543 5.45998047 -9.92749023 4.54589844 C-7.36696966 0.81524974 -4.3752428 0.07582743 0 0 Z " fill="#000000" transform="translate(279.4375,417.625)"/>
<path d="M0 0 C5.55271619 2.21578977 7.29693987 6.54618901 9.8125 11.625 C10.45771606 12.89500854 10.45771606 12.89500854 11.1159668 14.19067383 C12.42625004 16.7863079 13.71428176 19.39212819 15 22 C15.3815625 22.75812988 15.763125 23.51625977 16.15625 24.29736328 C31.23311848 54.28283161 31.23311848 54.28283161 26.875 69.5625 C23.49158815 78.42829216 18.52314038 84.66740364 10 89 C1.79922944 92.29616607 -8.10217603 92.44855502 -16.4375 89.4375 C-24.82727905 85.45165812 -30.33807405 79.50258343 -34 71 C-40.18558573 51.63991997 -26.89562151 30.39645307 -18.51171875 13.8046875 C-10.14009658 -1.72715931 -10.14009658 -1.72715931 0 0 Z " fill="#000000" transform="translate(60,317)"/>
<path d="M0 0 C0.75023437 -0.02835937 1.50046875 -0.05671875 2.2734375 -0.0859375 C5.78012926 0.60142068 7.10389011 1.79267955 9.625 4.375 C11.79773137 7.77904753 13.61985409 11.33392154 15.4375 14.9375 C15.95940918 15.95585937 16.48131836 16.97421875 17.01904297 18.0234375 C35.18710464 53.94576073 35.18710464 53.94576073 30.6875 71.0625 C27.51246113 79.21828704 20.48404064 85.81618914 12.625 89.375 C4.73462554 92.37356117 -3.68413881 92.69469963 -11.6875 89.8125 C-20.94606575 85.52891032 -26.38505351 78.63964979 -30.6875 69.625 C-35.17315048 48.42010681 -21.33732221 23.49139374 -10.1875 6.25390625 C-7.43359192 2.10834524 -5.10036796 0.087037 0 0 Z " fill="#000000" transform="translate(367.375,417.625)"/>
<path d="M0 0 C4.00604587 2.00521683 5.83837599 3.78847189 7.8671875 7.76171875 C8.60195313 9.18109741 8.60195313 9.18109741 9.3515625 10.62915039 C9.85429687 11.63840576 10.35703125 12.64766113 10.875 13.6875 C11.4009375 14.72318115 11.926875 15.7588623 12.46875 16.82592773 C31.48651166 54.60674888 31.48651166 54.60674888 26.4375 70.5625 C23.29434702 78.47571964 17.53436075 84.94182657 10 89 C1.79862398 92.29447071 -8.10221588 92.44854062 -16.4375 89.4375 C-24.799987 85.42960822 -30.08439547 79.81432996 -33.92578125 71.36328125 C-39.08540468 55.20896936 -30.91889444 39.0904977 -23.86108398 24.80786133 C-22.92464359 22.91146433 -22.00342967 21.00820227 -21.08398438 19.10351562 C-10.77797377 -2.0472129 -10.77797377 -2.0472129 0 0 Z " fill="#000000" transform="translate(413,317)"/>
<path d="M0 0 C6.92252138 4.1765559 9.60238724 11.25078383 13 18.3125 C13.62254221 19.58464172 14.24526436 20.8566954 14.86816406 22.12866211 C31.08530036 55.49767466 31.08530036 55.49767466 26 71 C22.14296506 79.4732323 16.90970741 85.36507329 8.5 89.375 C0.57940696 92.25301701 -9.04715975 92.59090588 -16.9375 89.4375 C-25.02598338 85.09622361 -31.51523813 78.67373213 -34.74609375 69.99609375 C-40.37023624 50.17583987 -26.45307618 28.5134677 -17.75 11.4375 C-17.35022949 10.63417236 -16.95045898 9.83084473 -16.53857422 9.00317383 C-13.03061656 2.28866688 -8.18100036 -2.24866556 0 0 Z " fill="#000000" transform="translate(237,317)"/>
<path d="M0 0 C6.4578771 5.91790161 11.4185041 18.14459017 11.8125 26.8125 C11.49139791 30.32644738 10.91679711 31.10728794 8.625 34.0625 C4.5100829 37.09970072 2.16090977 37.51609098 -3 37 C-6.39787442 35.04936839 -8.38069596 33.85454633 -9.62890625 30.11669922 C-10.63882263 23.16393628 -8.57017328 18.29907973 -5.625 12.0625 C-5.19960938 11.11826172 -4.77421875 10.17402344 -4.3359375 9.20117188 C-2.93749077 6.10998503 -1.51734786 3.03469572 0 0 Z " fill="#299FEE" transform="translate(455,451)"/>
<path d="M0 0 C3.08160715 3.62986855 4.77242351 7.666855 6.625 12 C6.93695313 12.7115625 7.24890625 13.423125 7.5703125 14.15625 C10.00916159 19.79083239 11.86184058 24.75165583 11 31 C8.63886469 34.28975255 5.87264742 36.50533842 1.9296875 37.546875 C-2.04778274 37.8190973 -3.85571731 37.11665409 -6.9375 34.625 C-10.21293817 30.45626051 -10.55539741 27.2036118 -10 22 C-9.14796662 18.98422343 -7.95819639 16.17348443 -6.6875 13.3125 C-6.37876953 12.57966797 -6.07003906 11.84683594 -5.75195312 11.09179688 C-4.08866605 7.20845926 -2.28601044 3.56617628 0 0 Z " fill="#29A0EF" transform="translate(279,451)"/>
<path d="M0 0 C0.66 0 1.32 0 2 0 C3.53093255 3.27811386 5.01865198 6.57421852 6.5 9.875 C6.92925781 10.7928125 7.35851562 11.710625 7.80078125 12.65625 C10.49096549 18.71983988 12.24231018 24.32744162 11 31 C8.80977082 33.82424288 7.16982793 35.41508603 4 37 C-0.07909806 37.38482057 -2.29089873 37.44121857 -5.8125 35.25 C-8.63487828 32.34698234 -9.79737555 30.55674881 -10.3203125 26.5390625 C-9.84684422 21.30781538 -7.70576033 17.0048507 -5.5625 12.25 C-5.14162109 11.29222656 -4.72074219 10.33445312 -4.28710938 9.34765625 C-1.40973772 2.81947545 -1.40973772 2.81947545 0 0 Z " fill="#299FEE" transform="translate(102,451)"/>
<path d="M0 0 C3.86286743 1.93143371 4.97337219 7.18577203 6.625 11 C7.04523438 11.92167969 7.46546875 12.84335937 7.8984375 13.79296875 C10.38229581 19.51068154 12.12780282 24.72353211 11 31 C9.20606332 33.87029869 8.01736724 35.49131638 5 37 C1.94079426 37.42071592 -0.9467746 37.48514117 -4 37 C-6.75569447 34.81840855 -8.43588747 33.12822506 -10 30 C-10.52503093 23.98116716 -9.06356073 19.81590709 -6.6875 14.4375 C-6.37876953 13.70853516 -6.07003906 12.97957031 -5.75195312 12.22851562 C-3.97667528 8.07623418 -2.06332706 4.01872625 0 0 Z " fill="#299FEE" transform="translate(144,350)"/>
<path d="M0 0 C3.23876946 4.10271063 5.18073196 8.41709815 7.25 13.1875 C7.62640625 14.00025391 8.0028125 14.81300781 8.390625 15.65039062 C10.84384668 21.31895617 11.71436341 25.96139257 10 32 C8 35.0625 8 35.0625 5 37 C0.32357099 37.94884067 -2.93560995 37.66524378 -7 35.125 C-10.17259105 31.754122 -10.36476761 29.24530538 -10.31201172 24.625 C-9.7291767 19.72152416 -7.61229589 15.44796378 -5.5625 11 C-5.14162109 10.04738281 -4.72074219 9.09476562 -4.28710938 8.11328125 C-1.2094293 1.2094293 -1.2094293 1.2094293 0 0 Z " fill="#299FEE" transform="translate(56,350)"/>
<path d="M0 0 C0.66 0 1.32 0 2 0 C3.29322032 2.89514194 4.58429741 5.79123484 5.875 8.6875 C6.23980469 9.50412109 6.60460937 10.32074219 6.98046875 11.16210938 C12.6306843 23.84941156 12.6306843 23.84941156 12 29 C10.36564595 32.03522895 8.944447 34.28352297 6.1875 36.375 C2.94376185 37.30178233 0.35738508 37.35340896 -3 37 C-5.75329021 35.20437595 -7.52627461 33.94745078 -9 31 C-10.02492917 23.02159145 -7.84085579 17.01821119 -4.5 9.875 C-4.07074219 8.91851562 -3.64148438 7.96203125 -3.19921875 6.9765625 C-2.14912007 4.64300988 -1.08278595 2.31851861 0 0 Z " fill="#299FEE" transform="translate(190,451)"/>
<path d="M0 0 C0.66 0 1.32 0 2 0 C4.36874507 4.98409922 6.70260807 9.98261447 9 15 C9.38542969 15.8353125 9.77085937 16.670625 10.16796875 17.53125 C12.07686163 22.04806696 12.33663449 25.27722479 11 30 C9.17660948 32.70567626 7.92542564 34.53728718 5 36 C0.28832614 36.64797087 -2.97763536 36.68157643 -7 34 C-9.41161538 30.38257693 -10.09434411 27.28133577 -10 23 C-9.24532364 19.96332606 -8.05204949 17.2139785 -6.75 14.375 C-6.43675781 13.65054687 -6.12351562 12.92609375 -5.80078125 12.1796875 C-3.99872426 8.05215448 -2.04975973 4.01094959 0 0 Z " fill="#299FEE" transform="translate(320,351)"/>
<path d="M0 0 C0.66 0 1.32 0 2 0 C3.3143315 3.10339436 4.62614781 6.20784568 5.9375 9.3125 C6.49727539 10.63411133 6.49727539 10.63411133 7.06835938 11.98242188 C7.60493164 13.25375977 7.60493164 13.25375977 8.15234375 14.55078125 C8.48226318 15.33106689 8.81218262 16.11135254 9.15209961 16.9152832 C11.09802404 21.69969112 11.67443489 25.87429486 11 31 C9.20606332 33.87029869 8.01736724 35.49131638 5 37 C0.28832614 37.64797087 -2.97763536 37.68157643 -7 35 C-9.4024848 31.39627281 -10.02624259 28.26004692 -10 24 C-9.22696245 21.30420725 -8.45578025 19.07553446 -7.3125 16.5625 C-7.03647949 15.91724365 -6.76045898 15.2719873 -6.47607422 14.60717773 C-5.66834617 12.72976213 -4.83706202 10.86448234 -4 9 C-3.57332031 8.0203125 -3.14664063 7.040625 -2.70703125 6.03125 C-1.82243352 4.01296204 -0.91451921 2.00490749 0 0 Z " fill="#299FEE" transform="translate(232,350)"/>
<path d="M0 0 C3.78111884 3.41518241 5.23950504 7.56937814 7.1875 12.1875 C7.55552734 13.01314453 7.92355469 13.83878906 8.30273438 14.68945312 C10.59079968 20.07638239 11.51274698 24.14827511 11 30 C9.65635159 33.25304353 8.74432243 34.57754673 5.6875 36.3125 C2.49641372 37.1288244 0.28179825 37.46882832 -3 37 C-7.20189134 34.463009 -8.58366128 33.20519103 -10.1875 28.5625 C-10.72217901 18.80921743 -4.51881651 8.34538879 0 0 Z " fill="#299FEF" transform="translate(367,451)"/>
<path d="M0 0 C3.27228845 4.12805505 5.1443323 8.49091981 7.1875 13.3125 C7.55552734 14.14201172 7.92355469 14.97152344 8.30273438 15.82617188 C10.38717488 20.7259606 11.55901578 24.57547647 11 30 C9.76043745 32.78901573 8.71549246 34.44350587 6.3125 36.3125 C2.84767407 37.34258338 -0.45116679 37.5914722 -4 37 C-6.8100346 35.20636089 -8.50940468 33.98119065 -10 31 C-10.66774764 23.26333765 -8.77708252 17.97549774 -5.5625 11 C-5.14162109 10.04738281 -4.72074219 9.09476562 -4.28710938 8.11328125 C-1.2094293 1.2094293 -1.2094293 1.2094293 0 0 Z " fill="#299FEE" transform="translate(409,350)"/>
</svg>
