<?xml version="1.0" encoding="UTF-8"?>
<svg version="1.1" xmlns="http://www.w3.org/2000/svg" width="512" height="512">
<path d="M0 0 C7.79869012 4.66610703 13.3982765 10.92761003 15.96313477 19.74438477 C16.48676969 22.16528674 16.64829202 24.44748455 16.75390625 26.921875 C16.81674805 28.32373047 16.81674805 28.32373047 16.88085938 29.75390625 C16.92017578 30.72199219 16.95949219 31.69007813 17 32.6875 C17.04318359 33.67105469 17.08636719 34.65460938 17.13085938 35.66796875 C17.23672052 38.09101275 17.33880171 40.5141554 17.4375 42.9375 C17.96859375 42.66035156 18.4996875 42.38320312 19.046875 42.09765625 C19.75328125 41.73542969 20.4596875 41.37320313 21.1875 41 C21.88359375 40.64035156 22.5796875 40.28070313 23.296875 39.91015625 C30.30564852 36.72551281 38.46088551 36.90896014 45.625 39.5 C53.8108619 43.20901533 59.21098897 48.55221709 62.4375 56.9375 C64.79180406 64.00041217 64.64306429 73.40760153 61.625 80.25 C56.68771481 88.60752744 48.27287644 94.34038389 40.75 100.25 C40.17620605 100.70093018 39.60241211 101.15186035 39.01123047 101.61645508 C35.71482378 104.19360477 32.38677957 106.71780701 29.0234375 109.20703125 C27.55683721 110.32492486 26.09068276 111.44340366 24.625 112.5625 C23.57469604 113.31527222 23.57469604 113.31527222 22.50317383 114.08325195 C19.64992666 116.29328361 17.75650331 117.78646679 16.77197266 121.33886719 C16.51932259 123.56270962 16.39400217 125.7012736 16.4375 127.9375 C34.88263619 129.79172554 34.88263619 129.79172554 51.48828125 124.31640625 C53.89798436 121.49265328 55.60399977 118.30981926 57.27685547 115.00927734 C59.40807069 111.20500885 62.3148587 108.00297719 65.125 104.6875 C66.23115857 103.34515555 67.3341262 102.00017405 68.43359375 100.65234375 C68.95034668 100.01925293 69.46709961 99.38616211 69.99951172 98.73388672 C71.27399431 97.1417572 72.50201857 95.51268284 73.72265625 93.87890625 C78.65914621 87.27402008 83.59767497 83.55077501 91.4375 80.9375 C102.19878502 80.15040361 109.67756019 81.06061744 118.6875 87.125 C124.83021905 93.4073263 127.58196531 100.28401545 127.8125 109 C127.86148437 110.24910156 127.91046875 111.49820313 127.9609375 112.78515625 C127.70677612 118.06883064 124.99337565 122.42342862 122.4375 126.9375 C123.4119104 126.95151855 123.4119104 126.95151855 124.40600586 126.96582031 C127.39639339 127.02005083 130.38530375 127.1035915 133.375 127.1875 C134.39658203 127.20167969 135.41816406 127.21585938 136.47070312 127.23046875 C146.27035267 127.5435566 153.43471266 130.24965846 160.64453125 136.94140625 C166.86890672 143.87093973 168.76490598 151.18539763 168.65625 160.3125 C167.84517173 170.04543929 162.85412934 176.90339546 155.828125 183.32421875 C148.72539656 188.11739987 141.76416653 188.4426262 133.4375 188.625 C132.37660156 188.65916016 131.31570313 188.69332031 130.22265625 188.72851562 C127.62770999 188.81033825 125.03307364 188.87969995 122.4375 188.9375 C122.79191162 189.57163818 123.14632324 190.20577637 123.51147461 190.85913086 C128.04633622 199.35493179 129.23685546 207.19948805 126.703125 216.6875 C123.44536158 224.59158173 118.11427971 230.24487179 110.4375 233.9375 C102.15564668 237.00710435 93.3741533 236.52462982 85.3125 233 C75.96431219 227.81801243 69.86771192 218.0661096 63.43359375 209.7578125 C61.27910948 206.98848891 59.07792907 204.26334285 56.84765625 201.5546875 C55.94998535 200.46341553 55.94998535 200.46341553 55.03417969 199.35009766 C53.86033425 197.92728391 52.68269548 196.50758981 51.50097656 195.09130859 C50.97084961 194.44758301 50.44072266 193.80385742 49.89453125 193.140625 C49.41991455 192.56989258 48.94529785 191.99916016 48.45629883 191.41113281 C47.4375 189.9375 47.4375 189.9375 47.4375 187.9375 C37.2075 187.9375 26.9775 187.9375 16.4375 187.9375 C16.77469853 196.24192336 16.77469853 196.24192336 21.43603516 201.08056641 C21.99339355 201.48710449 22.55075195 201.89364258 23.125 202.3125 C23.7029834 202.7667334 24.2809668 203.2209668 24.87646484 203.68896484 C26.09684005 204.64405537 27.32592029 205.58811609 28.56298828 206.52148438 C30.40440383 207.91249899 32.21877098 209.33224806 34.02734375 210.765625 C36.36967523 212.62019926 38.71631571 214.46884356 41.0703125 216.30859375 C41.63395508 216.74929199 42.19759766 217.18999023 42.77832031 217.64404297 C44.36722696 218.88271681 45.96085256 220.11533024 47.5546875 221.34765625 C54.9801277 227.21355278 60.88568624 232.5999214 63.4375 241.9375 C64.54370848 252.90954461 63.06490748 260.67291286 56.1875 269.25 C51.26411448 274.56513877 45.18260294 277.54892464 37.95703125 278.140625 C30.25431813 278.27400531 23.91855192 277.25820128 17.4375 272.9375 C17.41562622 273.82103149 17.41562622 273.82103149 17.39331055 274.72241211 C17.31796236 277.44053802 17.22159616 280.15754942 17.125 282.875 C17.10244141 283.80119141 17.07988281 284.72738281 17.05664062 285.68164062 C16.65349754 296.12671154 14.29930743 303.12114524 6.9375 310.6953125 C-0.55715637 317.41708243 -7.9188384 318.8709658 -17.78515625 318.3515625 C-26.37983877 317.40943598 -32.83083326 313.36941562 -38.5625 306.9375 C-41.93420306 301.63632524 -43.69351061 296.6985044 -43.66015625 290.39453125 C-43.65693359 289.32138672 -43.65371094 288.24824219 -43.65039062 287.14257812 C-43.64201172 286.02302734 -43.63363281 284.90347656 -43.625 283.75 C-43.62048828 282.61884766 -43.61597656 281.48769531 -43.61132812 280.32226562 C-43.59953498 277.52729073 -43.5830765 274.7324218 -43.5625 271.9375 C-44.16578125 272.28683594 -44.7690625 272.63617188 -45.390625 272.99609375 C-46.18984375 273.45113281 -46.9890625 273.90617187 -47.8125 274.375 C-48.60140625 274.82746094 -49.3903125 275.27992188 -50.203125 275.74609375 C-56.48521967 278.91834354 -63.81756345 278.88230099 -70.55078125 277.18359375 C-78.76900183 274.34780722 -84.20790227 270.5094122 -88.5625 262.9375 C-92.44150411 254.62314058 -92.7541199 246.78708232 -89.8125 238.125 C-87.28691884 231.34000617 -83.05961957 227.28563872 -77.375 223 C-70.99911574 218.0989553 -64.77702448 213.0350902 -58.60083008 207.88500977 C-57.93075928 207.32869873 -57.26068848 206.7723877 -56.5703125 206.19921875 C-55.91579102 205.64927246 -55.26126953 205.09932617 -54.58691406 204.53271484 C-52.5625 202.9375 -52.5625 202.9375 -50.31152344 201.50244141 C-46.07103559 198.853193 -46.07103559 198.853193 -43.84033203 194.5612793 C-43.59136533 192.32211046 -43.4825059 190.18733398 -43.5625 187.9375 C-60.88006345 186.22815645 -60.88006345 186.22815645 -77.22753906 190.42773438 C-81.49063949 194.17926275 -84.38685673 198.77815652 -87.20654297 203.66601562 C-89.2881183 207.15304784 -91.81583501 210.23142408 -94.375 213.375 C-95.26700687 214.5067247 -96.1576755 215.63950571 -97.046875 216.7734375 C-104.72901538 226.45528007 -111.23359629 234.18481879 -124.0625 235.9375 C-132.06897023 236.33385991 -139.35286406 234.04320066 -145.5625 228.9375 C-152.49332659 222.36516444 -155.56943679 216.05312122 -156 206.5 C-155.83462142 199.97673369 -153.43694852 194.68639705 -150.5625 188.9375 C-151.48361572 188.92348145 -151.48361572 188.92348145 -152.42333984 188.90917969 C-155.26214433 188.85480259 -158.09941732 188.77129448 -160.9375 188.6875 C-161.90300781 188.67332031 -162.86851562 188.65914062 -163.86328125 188.64453125 C-172.76236495 188.34590428 -181.3463045 186.17956791 -187.95703125 179.8671875 C-194.40960828 172.1115353 -196.79402601 163.80406865 -196.13671875 153.84765625 C-194.92373504 145.58781482 -191.62299306 139.22861641 -185.1875 133.875 C-177.632639 128.31496185 -170.15170962 127.45874169 -161.0625 127.25 C-160.04929688 127.21583984 -159.03609375 127.18167969 -157.9921875 127.14648438 C-155.51573583 127.06471474 -153.03960651 126.9953375 -150.5625 126.9375 C-150.83964844 126.40640625 -151.11679688 125.8753125 -151.40234375 125.328125 C-151.94568359 124.26851562 -151.94568359 124.26851562 -152.5 123.1875 C-153.03947266 122.14335937 -153.03947266 122.14335937 -153.58984375 121.078125 C-156.62125404 114.40658749 -156.48221756 106.38007564 -154.625 99.375 C-151.86037101 92.15840976 -146.05941508 85.77446458 -139.125 82.375 C-130.52633546 79.21966397 -121.99670708 79.14386589 -113.57421875 82.80078125 C-105.22864908 87.40004309 -99.35770677 95.57428682 -93.55688477 102.94873047 C-92.63593574 104.11810094 -91.70520789 105.27982922 -90.76538086 106.43408203 C-88.26488725 109.54912906 -86.15402385 112.59199484 -84.2890625 116.12890625 C-81.68147776 120.66801557 -79.30315404 124.4527822 -74.5625 126.9375 C-64.42653515 129.06305184 -53.84642915 128.50389146 -43.5625 127.9375 C-43.48606352 124.00789489 -43.46971477 120.37436118 -45.91943359 117.15332031 C-47.78997842 115.4932836 -49.71707257 114.01917006 -51.75 112.5625 C-52.46744385 112.01577637 -53.1848877 111.46905273 -53.92407227 110.90576172 C-55.40331734 109.77991267 -56.89030053 108.66415974 -58.38476562 107.55859375 C-61.64630786 105.13071926 -64.8177619 102.59277382 -68 100.0625 C-71.03873372 97.66280598 -74.08341878 95.28362035 -77.22265625 93.015625 C-84.611928 87.63712336 -89.94514157 81.15644304 -91.5625 71.9375 C-92.38753347 62.9521355 -90.7290667 54.80835446 -85.140625 47.5703125 C-78.77752273 40.98670668 -71.30664428 37.96896931 -62.25 37.5625 C-55.2144861 37.67894989 -49.36724264 40.06767157 -43.5625 43.9375 C-43.58344727 43.2576001 -43.60439453 42.5777002 -43.62597656 41.87719727 C-43.70989895 38.75161953 -43.7613991 35.62627984 -43.8125 32.5 C-43.84601563 31.43072266 -43.87953125 30.36144531 -43.9140625 29.25976562 C-44.03816716 19.11420994 -41.38906293 12.11731593 -34.5 4.6640625 C-25.67037283 -3.20427462 -10.67432812 -5.02418222 0 0 Z " fill="#000001" transform="translate(229.5625,194.0625)"/>
<path d="M0 0 C6.36610278 3.8607333 10.65778885 9.33969698 12.5625 16.5 C12.83830863 18.78452807 13.0468786 21.07818383 13.1875 23.375 C13.29964844 25.10363281 13.29964844 25.10363281 13.4140625 26.8671875 C13.46304688 27.73601563 13.51203125 28.60484375 13.5625 29.5 C14.5525 29.17 15.5425 28.84 16.5625 28.5 C25.41563288 27.69412315 33.37915244 27.76650241 40.5625 33.5 C46.16407527 40.04089873 48.05804473 45.76487646 47.86328125 54.32421875 C47.06041588 62.80122583 43.04080053 67.37023033 36.73608398 72.72949219 C31.87165376 76.71706093 26.89508475 80.54367623 21.81640625 84.25390625 C21.26154541 84.6605249 20.70668457 85.06714355 20.13500977 85.48608398 C18.66420651 86.55133739 17.17640332 87.59300773 15.6875 88.6328125 C13.34581991 90.6903917 13.13684662 91.5541823 12.5625 94.5 C23.32052829 95.45571242 23.32052829 95.45571242 33.36474609 92.40234375 C36.57534922 89.51001986 38.94264001 86.00244515 41.29443359 82.40087891 C43.0478549 79.77243488 44.97947005 77.30460801 46.93554688 74.82495117 C47.86514549 73.64639798 48.78279456 72.45827441 49.68554688 71.2590332 C53.91716782 65.7168123 58.49586993 60.93949872 65.5625 59.5 C73.85283417 58.6108917 80.81209037 59.28431938 87.5625 64.5 C92.52653232 70.27283596 94.70638269 75.25069389 94.75 82.875 C94.76417969 83.99648437 94.77835938 85.11796875 94.79296875 86.2734375 C94.56615368 89.44884842 93.91640668 91.64234718 92.5625 94.5 C93.5525 94.45359375 94.5425 94.4071875 95.5625 94.359375 C109.90970764 93.87968113 109.90970764 93.87968113 115.5625 98.5 C121.96719065 104.49642351 124.57024704 109.50955775 124.9375 118.3125 C124.78402166 125.20197228 123.40858505 130.39842089 118.69140625 135.5390625 C112.66128905 141.07901894 107.9740948 142.82961863 99.75 142.625 C99.05712891 142.61597656 98.36425781 142.60695312 97.65039062 142.59765625 C95.95427605 142.57426157 94.25834129 142.53839641 92.5625 142.5 C92.8821875 143.18707031 93.201875 143.87414062 93.53125 144.58203125 C95.75553439 150.87574502 95.71152575 158.11173117 93.5703125 164.42578125 C90.13869607 170.81401635 85.45498542 175.13475031 78.5625 177.5 C71.738024 178.48149767 64.46429386 178.69643354 58.40625 175 C50.83473586 168.84012409 45.08063 160.48238361 39.140625 152.796875 C38.70580811 152.25111816 38.27099121 151.70536133 37.82299805 151.14306641 C36.5625 149.5 36.5625 149.5 35.46801758 147.77490234 C33.78875055 145.31363627 32.31189172 143.69395625 29.38916016 142.9375 C26.82579483 142.68627905 24.32532744 142.61731819 21.75 142.625 C20.86634766 142.604375 19.98269531 142.58375 19.07226562 142.5625 C16.9027508 142.51559157 14.7325177 142.50425911 12.5625 142.5 C13.39804341 147.11190773 16.07627201 148.82657716 19.6875 151.5 C20.95975893 152.47770387 22.23188985 153.45557436 23.50390625 154.43359375 C25.53263212 155.97298365 27.56701844 157.50334982 29.61279297 159.02001953 C46.32971318 171.43864615 46.32971318 171.43864615 48.01171875 182.4375 C48.43089152 189.74042115 46.90958028 195.58460262 42.5625 201.5 C38.08324019 206.10341839 33.00567105 208.97283146 26.5625 209.5 C21.43245879 209.41475762 17.08924675 209.03331699 12.5625 206.5 C12.60890625 207.40621094 12.6553125 208.31242188 12.703125 209.24609375 C12.96277148 218.00916243 12.82324379 224.87455789 6.69140625 231.53125 C-0.18352475 237.87334135 -5.70133141 238.9620607 -14.984375 238.81640625 C-22.12511563 238.16210762 -26.86053128 234.96693486 -31.4375 229.5 C-36.40759244 222.96787851 -36.66236739 215.42471103 -37.4375 207.5 C-38.55125 207.850625 -39.665 208.20125 -40.8125 208.5625 C-47.48181407 210.18858718 -53.75572107 209.81198487 -59.75 206.3125 C-65.79683932 202.02119467 -69.12587063 197.2919262 -70.9921875 190.1484375 C-72.16401827 183.17912819 -71.1462519 177.21943259 -67.05859375 171.41796875 C-61.00364427 164.25416105 -53.0499332 158.74345161 -45.671875 153.015625 C-44.85106445 152.37270508 -44.85106445 152.37270508 -44.01367188 151.71679688 C-42.5557539 150.59129142 -41.06802031 149.50469509 -39.578125 148.421875 C-37.24342583 146.32575822 -37.01462552 145.46257767 -36.4375 142.5 C-47.23305383 141.44174285 -47.23305383 141.44174285 -57.22363281 144.6796875 C-60.4416191 147.84121789 -62.77808059 151.63074384 -65.13525391 155.45361328 C-77.65503851 175.12756052 -77.65503851 175.12756052 -87.4375 177.5 C-94.47596657 178.36052763 -101.53889202 178.62187532 -107.76171875 174.82421875 C-113.78857287 170.06173962 -117.75193254 164.18041613 -118.68359375 156.4609375 C-118.83720372 151.78035121 -117.89714388 147.87893165 -116.4375 143.5 C-117.33210938 143.48582031 -118.22671875 143.47164062 -119.1484375 143.45703125 C-127.12887369 143.14223792 -133.97763074 142.52302334 -140.4375 137.5 C-145.17164499 132.14449848 -148.07602572 126.33162735 -148.75 119.1875 C-148.16116689 112.2392693 -145.96223233 105.88076277 -141.4375 100.5 C-135.49859348 96.06385323 -130.67919265 94.41460412 -123.25 93.9375 C-121.97769531 93.85371094 -120.70539063 93.76992187 -119.39453125 93.68359375 C-118.41871094 93.62300781 -117.44289062 93.56242187 -116.4375 93.5 C-116.75976562 92.59765625 -117.08203125 91.6953125 -117.4140625 90.765625 C-119.62382884 83.71461486 -118.78728272 77.60119397 -115.83984375 70.8671875 C-112.54376191 65.3033279 -107.58021537 61.44458741 -101.4375 59.5 C-93.83374536 58.66271076 -86.6935492 58.71192725 -80.4375 63.5 C-76.76938516 66.97631799 -73.44640966 70.7065918 -70.1875 74.5625 C-69.7028125 75.1203418 -69.218125 75.67818359 -68.71875 76.25292969 C-66.3282811 79.04757655 -64.19646424 81.77119811 -62.390625 84.98046875 C-58.99685306 90.92768904 -58.99685306 90.92768904 -53.19482422 94.109375 C-47.59822734 94.90044381 -42.06938202 94.79792255 -36.4375 94.5 C-37.83234166 88.97191429 -41.63532366 86.51467331 -45.9375 83.1875 C-46.65711914 82.61644531 -47.37673828 82.04539062 -48.11816406 81.45703125 C-50.21656352 79.79411317 -52.32472198 78.14459386 -54.4375 76.5 C-56.35673286 75.00328482 -58.27392031 73.50393613 -60.1875 72 C-60.92484375 71.4328125 -61.6621875 70.865625 -62.421875 70.28125 C-67.48038582 65.81093811 -70.16512076 61.07048295 -71.4375 54.5 C-71.73835781 47.02484059 -69.8840693 40.44788847 -64.93359375 34.77734375 C-60.05993888 30.17507569 -54.5188413 27.48222928 -47.74609375 27.51171875 C-44.11209382 27.83438832 -40.90459979 28.34430007 -37.4375 29.5 C-37.36273438 28.53320312 -37.28796875 27.56640625 -37.2109375 26.5703125 C-36.3574411 18.11902465 -35.26404509 11.11701729 -29.4375 4.5 C-21.40356185 -2.04560934 -9.73748341 -4.3511983 0 0 Z " fill="#000101" transform="translate(371.4375,1.5)"/>
<path d="M0 0 C4.70807652 1.75398929 7.32941629 3.75198215 10 8 C10.57386152 11.0343788 10.55764566 14.01635749 10.5390625 17.09765625 C10.55085541 17.96893661 10.56264832 18.84021698 10.57479858 19.73789978 C10.61001018 22.51294935 10.61922374 25.28724544 10.625 28.0625 C10.6413546 30.84109879 10.66341142 33.61936219 10.69662476 36.39781189 C10.71621874 38.12393046 10.72559352 39.85020272 10.72354126 41.57643127 C10.73050018 42.36082077 10.73745911 43.14521027 10.74462891 43.95336914 C10.74588776 44.64000137 10.74714661 45.32663361 10.7484436 46.03407288 C11.0497579 48.38886077 11.76291961 49.9814937 13 52 C16.22599673 53.61299837 18.40890354 53.39980398 22 53 C26.00888813 50.85747819 29.54419913 48.01350872 33.15234375 45.265625 C37.91341342 41.83569487 41.15732523 40.34137065 47.07739258 40.6730957 C51.19292418 41.37286673 53.3983093 43.41457121 56.3125 46.25 C58.51655907 49.84179997 58.58324027 51.8444131 58 56 C53.69818279 64.79066995 44.24183655 70.66677623 36.67114258 76.56323242 C31.84267473 80.32403423 27.06603341 84.1449509 22.3125 88 C21.62921631 88.55196045 20.94593262 89.1039209 20.24194336 89.67260742 C19.60135986 90.19314697 18.96077637 90.71368652 18.30078125 91.25 C17.45253784 91.93835938 17.45253784 91.93835938 16.5871582 92.640625 C16.063396 93.08921875 15.53963379 93.5378125 15 94 C14.44513916 94.42224854 13.89027832 94.84449707 13.31860352 95.27954102 C11.32874369 97.87582729 11.61122555 100.04505411 11.6015625 103.27734375 C11.59769531 104.51291016 11.59382812 105.74847656 11.58984375 107.02148438 C11.60144531 108.31376953 11.61304688 109.60605469 11.625 110.9375 C11.60759766 112.87012695 11.60759766 112.87012695 11.58984375 114.84179688 C11.59371094 116.07865234 11.59757813 117.31550781 11.6015625 118.58984375 C11.60663818 120.28935181 11.60663818 120.28935181 11.61181641 122.02319336 C12.05100153 125.39110798 12.66850849 126.57891573 15 129 C17.27102931 129.61055334 17.27102931 129.61055334 19.85107422 129.53344727 C20.83574677 129.5492836 21.82041931 129.56511993 22.83493042 129.58143616 C23.89745026 129.57647629 24.95997009 129.57151642 26.0546875 129.56640625 C27.14838654 129.57260483 28.24208557 129.57880341 29.368927 129.58518982 C31.68393055 129.59229789 33.99898511 129.58909688 36.31396484 129.57641602 C39.85480139 129.56257893 43.39298174 129.59657531 46.93359375 129.63476562 C49.18229231 129.63571706 51.43099418 129.63385668 53.6796875 129.62890625 C54.73815887 129.64216446 55.79663025 129.65542267 56.88717651 129.66908264 C62.89909562 129.62984159 62.89909562 129.62984159 68.00976562 126.69287109 C68.66654297 125.80422363 69.32332031 124.91557617 70 124 C70.55381348 123.37101807 71.10762695 122.74203613 71.67822266 122.09399414 C72.1685498 121.49707764 72.65887695 120.90016113 73.1640625 120.28515625 C73.72335449 119.60582031 74.28264648 118.92648437 74.85888672 118.2265625 C75.4417041 117.51242187 76.02452148 116.79828125 76.625 116.0625 C77.23746582 115.31613281 77.84993164 114.56976563 78.48095703 113.80078125 C82.34087644 109.08098378 86.13057277 104.31169232 89.875 99.5 C101.27526395 84.86236802 101.27526395 84.86236802 105 83 C110.22949274 82.59773133 113.60684575 83.0712305 118 86 C120.36500119 88.54692436 121.88290696 90.42624621 122.14697266 93.9753418 C121.61577269 100.71275339 118.91588897 104.85418542 114.9375 110.1875 C110.65662707 115.77434199 110.65662707 115.77434199 108.37890625 122.30078125 C109.18890511 125.82096497 110.09571114 126.84146817 113 129 C116.01198279 129.3703826 118.66811371 129.510757 121.67578125 129.46875 C122.5191655 129.47579956 123.36254974 129.48284912 124.23149109 129.4901123 C127.83083934 129.51955296 131.42964457 129.50301505 135.02905273 129.49072266 C137.66162021 129.48833137 140.2933216 129.5093208 142.92578125 129.53125 C144.13238152 129.51427063 144.13238152 129.51427063 145.36335754 129.49694824 C151.04267394 129.54733333 154.31096498 130.7642697 159 134 C162.19863734 137.61136473 162.52652611 141.05257975 162.34765625 145.71875 C161.74812327 149.65276419 160.4245717 151.80977407 158 155 C152.97566487 158.24699673 148.79932321 158.41503063 143.0234375 158.37109375 C141.28385208 158.3884646 139.54426879 158.40604909 137.8046875 158.42382812 C135.081342 158.43392371 132.35812913 158.43748948 129.63476562 158.43579102 C126.99309089 158.43935699 124.35243165 158.46666903 121.7109375 158.49609375 C120.89732758 158.48791122 120.08371765 158.4797287 119.24545288 158.47129822 C115.62559832 158.51902556 113.43733926 158.68446633 110.46142578 160.83154297 C108.7146452 163.006712 108.7146452 163.006712 108.90625 166.19921875 C110.30706334 171.06704511 112.64677309 174.66921206 115.5 178.8125 C116.51090996 180.31867945 117.52134965 181.82517467 118.53125 183.33203125 C118.98048828 183.98921143 119.42972656 184.6463916 119.89257812 185.32348633 C122.31413531 188.98945485 122.36650991 191.60188113 122 196 C119.74794145 200.33729795 117.5613976 203.13397371 113 205 C109.01272269 205.65365202 106.62629274 205.91978852 103.09375 203.921875 C97.53573897 199.41168572 93.32898436 193.55607479 89.0078125 187.90234375 C85.31249737 183.07237265 81.45125444 178.38034816 77.59106445 173.68188477 C74.36199601 169.73377443 71.27552499 165.71594409 68.2902832 161.57958984 C67.06828146 159.86339662 67.06828146 159.86339662 65 159 C63.41281435 158.89478132 61.82133387 158.85128297 60.23071289 158.83886719 C59.23950943 158.82925964 58.24830597 158.8196521 57.22706604 158.80975342 C56.15311081 158.80550354 55.07915558 158.80125366 53.97265625 158.796875 C52.87279892 158.79117493 51.77294159 158.78547485 50.63975525 158.77960205 C48.31038376 158.77014444 45.98099884 158.76361506 43.65161133 158.75976562 C40.08065602 158.7500494 36.51027351 158.71902825 32.93945312 158.6875 C30.67969093 158.68097124 28.41992461 158.67572027 26.16015625 158.671875 C25.08822525 158.6595282 24.01629425 158.6471814 22.91188049 158.63446045 C21.42034706 158.6389621 21.42034706 158.6389621 19.89868164 158.64355469 C19.02313126 158.63990906 18.14758087 158.63626343 17.24549866 158.63250732 C14.50781175 159.08055029 13.6280303 159.78437698 12 162 C11.41094992 166.10074751 11.48496995 170.20203961 11.49902344 174.34179688 C11.49999382 176.36213629 11.45842097 178.37864869 11.4140625 180.3984375 C11.41148437 181.6771875 11.40890625 182.9559375 11.40625 184.2734375 C11.39916016 185.44310059 11.39207031 186.61276367 11.38476562 187.81787109 C12.18258982 191.94439513 13.83149595 193.3251052 17 196 C17.59868896 196.52352051 18.19737793 197.04704102 18.81420898 197.58642578 C19.64674194 198.25907471 19.64674194 198.25907471 20.49609375 198.9453125 C21.44718018 199.71633301 21.44718018 199.71633301 22.41748047 200.50292969 C23.08408691 201.03821289 23.75069336 201.57349609 24.4375 202.125 C25.13762207 202.6912207 25.83774414 203.25744141 26.55908203 203.84082031 C30.54933092 207.05931491 34.56984017 210.23567918 38.61669922 213.38256836 C55.91947347 226.83894695 55.91947347 226.83894695 58 231 C58.40137875 235.17433895 58.26194303 237.49551713 56.3125 241.25 C53.50267436 244.59141427 51.48421054 246.58549173 47.07739258 247.32080078 C40.08754444 247.71950591 36.30606983 245.13618354 30.875 241 C23.77974369 235.49353548 23.77974369 235.49353548 15 235 C14.01 235.33 13.02 235.66 12 236 C11.99589111 237.20011719 11.99178223 238.40023437 11.98754883 239.63671875 C11.96566847 244.11745315 11.91128704 248.59732049 11.84741211 253.07763672 C11.82430949 255.01147103 11.80985466 256.94542979 11.80444336 258.87939453 C11.79509694 261.67037817 11.75398382 264.45942541 11.70703125 267.25 C11.7109639 268.10553467 11.71489655 268.96106934 11.71894836 269.8425293 C11.5718064 275.98680955 9.98625575 280.26684239 6 285 C1.68842077 287.99935946 -1.79960229 288.65004971 -7 288 C-11.84691974 285.52902131 -14.41837987 282.75314622 -17 278 C-17.53355844 274.99836979 -17.51128648 272.06559087 -17.46875 269.0234375 C-17.47932434 267.75193344 -17.47932434 267.75193344 -17.4901123 266.45474243 C-17.51207344 263.76118418 -17.50915542 261.06862122 -17.5 258.375 C-17.48796343 254.81977605 -17.50161752 251.26603131 -17.53125 247.7109375 C-17.51993042 246.89732758 -17.50861084 246.08371765 -17.49694824 245.24545288 C-17.5292598 241.63291558 -17.66919278 239.45393733 -19.82739258 236.49243164 C-23.13262522 234.2219645 -25.05821727 234.38320291 -29 235 C-31.99637902 236.52161562 -34.62580329 238.42807994 -37.3125 240.4375 C-38.72484925 241.45760076 -40.13759105 242.47715831 -41.55078125 243.49609375 C-42.47370972 244.17949829 -42.47370972 244.17949829 -43.4152832 244.87670898 C-47.58901115 247.83516258 -52.04732691 247.56936242 -57 247 C-60.66711159 244.86085157 -62.37072212 242.85102043 -64 239 C-64.37109375 236.8515625 -64.37109375 236.8515625 -64.4375 234.625 C-64.49744141 233.53058594 -64.49744141 233.53058594 -64.55859375 232.4140625 C-63.16353071 226.38504882 -57.3983884 222.48009346 -52.6875 218.9375 C-51.44559423 217.98309708 -50.20475204 217.027309 -48.96484375 216.0703125 C-48.3188623 215.57305664 -47.67288086 215.07580078 -47.00732422 214.56347656 C-43.54488337 211.86663015 -40.14881869 209.0888067 -36.75 206.3125 C-31.44856422 201.98305772 -26.12085558 197.69689408 -20.72265625 193.48828125 C-18.88767335 192.0957233 -18.88767335 192.0957233 -18 190 C-17.72805954 185.35929489 -17.76836154 180.71026483 -17.75 176.0625 C-17.729375 174.76119141 -17.70875 173.45988281 -17.6875 172.11914062 C-17.68234375 170.87455078 -17.6771875 169.62996094 -17.671875 168.34765625 C-17.65785645 166.63074585 -17.65785645 166.63074585 -17.64355469 164.87915039 C-17.75476761 162.04999991 -17.75476761 162.04999991 -19.21731567 160.35125732 C-21.53983939 158.59080701 -22.9795781 158.57886377 -25.87939453 158.50073242 C-26.87117706 158.4686821 -27.86295959 158.43663177 -28.88479614 158.40361023 C-30.49256424 158.3797802 -30.49256424 158.3797802 -32.1328125 158.35546875 C-33.23922089 158.33599686 -34.34562927 158.31652496 -35.48556519 158.29646301 C-37.83076612 158.26371792 -40.1761065 158.23993048 -42.52148438 158.22436523 C-46.09242793 158.18783322 -49.65714546 158.0819881 -53.2265625 157.97460938 C-64.8714845 157.22022099 -64.8714845 157.22022099 -75.43945312 161.05078125 C-77.74198842 163.58490987 -79.36719626 166.00072644 -81 169 C-81.91859916 170.17805669 -82.85861644 171.34003484 -83.828125 172.4765625 C-84.62734375 173.51554688 -85.4265625 174.55453125 -86.25 175.625 C-87.1733799 176.81465612 -88.09791099 178.00341938 -89.0234375 179.19140625 C-89.50135742 179.80516113 -89.97927734 180.41891602 -90.47167969 181.05126953 C-93.2401865 184.58133684 -96.05397288 188.07434894 -98.875 191.5625 C-99.4102832 192.22910645 -99.94556641 192.89571289 -100.49707031 193.58251953 C-108.55057494 203.51685831 -108.55057494 203.51685831 -113 205 C-117.25160217 205.40109454 -119.5006973 205.26378256 -123.3125 203.25 C-126.35937828 200.69912516 -127.67230084 198.84532588 -128.36669922 194.93505859 C-128.55246736 188.55989905 -126.71095427 184.79154017 -123.125 179.625 C-122.43470703 178.57892578 -122.43470703 178.57892578 -121.73046875 177.51171875 C-120.5051113 175.66125141 -119.25679026 173.82917917 -118 172 C-115.53056471 168.29584707 -115.53086911 166.37855495 -116 162 C-118.49887669 159.13524288 -120.1179547 158.98895317 -123.93896484 158.63110352 C-125.52955752 158.61671896 -127.12032534 158.61686675 -128.7109375 158.62890625 C-130.44791862 158.61152217 -132.18489774 158.5939378 -133.921875 158.57617188 C-136.64945184 158.56610792 -139.37689756 158.56250119 -142.10449219 158.56420898 C-144.74453441 158.56062846 -147.38357437 158.53324643 -150.0234375 158.50390625 C-151.23777969 158.51618004 -151.23777969 158.51618004 -152.47665405 158.52870178 C-157.78560626 158.4592789 -160.76446074 157.48072678 -165 154 C-167.89626035 150.70425546 -168.89660298 148.09600845 -169.3125 143.6875 C-168.93513038 139.2345385 -167.86752887 137.39575787 -165 134 C-159.96421437 129.82663661 -156.27957231 129.43286077 -150.0234375 129.49609375 C-148.75193344 129.4819619 -148.75193344 129.4819619 -147.45474243 129.46754456 C-144.76124591 129.43899263 -142.06863534 129.43581347 -139.375 129.4375 C-136.67435379 129.4338908 -133.97434672 129.42436481 -131.27383423 129.39674377 C-129.59778943 129.37996956 -127.9215336 129.37706883 -126.24545288 129.38975525 C-122.93146262 129.35978512 -120.45069696 129.23853458 -117.49243164 127.67285156 C-115.71492041 125.97026107 -115.71492041 125.97026107 -115.41015625 122.86328125 C-116.20110105 117.68285472 -118.47217532 114.42420304 -121.4375 110.1875 C-122.45738447 108.68122868 -123.47693214 107.17472925 -124.49609375 105.66796875 C-125.17949829 104.68219849 -125.17949829 104.68219849 -125.87670898 103.67651367 C-128.74192322 99.40017675 -128.71904287 95.01749695 -128 90 C-125.56543724 86.84164831 -123.30027757 85.20018505 -120 83 C-113.70804999 82.38111967 -111.13740707 83.018838 -106 87 C-104.19644499 89.05644177 -102.55836249 91.06255965 -100.9375 93.25 C-99.98320098 94.50109217 -99.0274085 95.75104624 -98.0703125 97 C-97.57305664 97.65226562 -97.07580078 98.30453125 -96.56347656 98.9765625 C-93.87728756 102.45300448 -91.09320079 105.84903252 -88.3125 109.25 C-84.00245558 114.53274913 -79.71978029 119.83368229 -75.48828125 125.1796875 C-73.23162512 128.16098043 -73.23162512 128.16098043 -69.84352112 129.26069641 C-68.95100143 129.2653038 -68.05848175 129.26991119 -67.13891602 129.2746582 C-66.1276918 129.28419022 -65.11646759 129.29372223 -64.07460022 129.30354309 C-62.4308567 129.30217598 -62.4308567 129.30217598 -60.75390625 129.30078125 C-59.63185287 129.30506638 -58.5097995 129.3093515 -57.35374451 129.31376648 C-54.97729162 129.31951765 -52.60082113 129.32000428 -50.22436523 129.31567383 C-46.58091287 129.31251596 -42.93827363 129.33595694 -39.29492188 129.36132812 C-36.98958436 129.36360117 -34.68424466 129.36430459 -32.37890625 129.36328125 C-31.28510147 129.372491 -30.19129669 129.38170074 -29.06434631 129.39118958 C-28.04996994 129.38496078 -27.03559357 129.37873199 -25.99047852 129.37231445 C-25.09716324 129.37294388 -24.20384796 129.3735733 -23.28346252 129.3742218 C-20.52492997 128.92214387 -19.63872312 128.23345527 -18 126 C-17.34435009 121.4053005 -17.53697584 116.76111541 -17.5625 112.125 C-17.54251953 110.84496094 -17.52253906 109.56492187 -17.50195312 108.24609375 C-17.50259766 107.01246094 -17.50324219 105.77882813 -17.50390625 104.5078125 C-17.50205322 103.38004395 -17.5002002 102.25227539 -17.49829102 101.09033203 C-18.51044751 94.85584204 -23.46700247 91.61419461 -28.25 88 C-29.50099864 87.03645142 -30.75095664 86.0715506 -32 85.10546875 C-32.65226563 84.60192871 -33.30453125 84.09838867 -33.9765625 83.57958984 C-38.13309025 80.3348101 -42.20513457 76.98501461 -46.28662109 73.64672852 C-49.22343522 71.24725971 -52.16251184 68.85730195 -55.1640625 66.5390625 C-56.50597656 65.49878906 -56.50597656 65.49878906 -57.875 64.4375 C-58.63554687 63.85871094 -59.39609375 63.27992188 -60.1796875 62.68359375 C-62.73617056 60.31912122 -63.7807066 58.26959336 -64.37109375 54.8515625 C-64.4973398 50.61860669 -64.37350209 47.85657778 -61.625 44.5 C-57.72607945 40.78674234 -55.11708814 40.48154199 -49.859375 40.51953125 C-43.70745801 41.55325501 -38.79739322 45.79698467 -33.99609375 49.578125 C-31.00709364 51.9051318 -29.10256681 52.98435422 -25.3125 53.5625 C-21.3079653 52.88248467 -20.36958385 52.26293982 -18 49 C-17.6297314 45.97676435 -17.48924825 43.30799418 -17.53125 40.2890625 C-17.52420044 39.44330658 -17.51715088 38.59755066 -17.5098877 37.72616577 C-17.48042913 34.11578619 -17.49700572 30.50594736 -17.50927734 26.89550781 C-17.5116643 24.25553393 -17.49070419 21.61642841 -17.46875 18.9765625 C-17.48572937 17.76222031 -17.48572937 17.76222031 -17.50305176 16.52334595 C-17.45590406 11.20841986 -16.50588715 8.2260455 -13 4 C-8.62840367 0.30842977 -5.69599218 -0.71199902 0 0 Z " fill="#1F7FF3" transform="translate(219,208)"/>
<path d="M0 0 C4.38927696 0.08440917 6.42700344 0.47180692 9.69458008 3.48388672 C12.80584443 7.47694138 12.69690226 11.2928059 12.63671875 16.1953125 C12.64709671 17.06517792 12.65747467 17.93504333 12.66816711 18.83126831 C12.69775216 21.59625217 12.69448626 24.35988706 12.6875 27.125 C12.69640118 29.89687516 12.71236991 32.66839263 12.7389679 35.44015503 C12.75385092 37.16073613 12.75770512 38.8814569 12.74919128 40.6020813 C12.68597763 46.11356157 12.68597763 46.11356157 15 51 C18.22599673 52.61299837 20.40890354 52.39980398 24 52 C28.00888813 49.85747819 31.54419913 47.01350872 35.15234375 44.265625 C39.91341342 40.83569487 43.15732523 39.34137065 49.07739258 39.6730957 C53.19292418 40.37286673 55.3983093 42.41457121 58.3125 45.25 C60.51655907 48.84179997 60.58324027 50.8444131 60 55 C55.69818279 63.79066995 46.24183655 69.66677623 38.67114258 75.56323242 C33.84267473 79.32403423 29.06603341 83.1449509 24.3125 87 C23.62921631 87.55196045 22.94593262 88.1039209 22.24194336 88.67260742 C21.60135986 89.19314697 20.96077637 89.71368652 20.30078125 90.25 C19.73528564 90.70890625 19.16979004 91.1678125 18.5871582 91.640625 C18.063396 92.08921875 17.53963379 92.5378125 17 93 C16.44513916 93.42224854 15.89027832 93.84449707 15.31860352 94.27954102 C13.32874369 96.87582729 13.61122555 99.04505411 13.6015625 102.27734375 C13.59769531 103.51291016 13.59382812 104.74847656 13.58984375 106.02148438 C13.60144531 107.31376953 13.61304688 108.60605469 13.625 109.9375 C13.61339844 111.22591797 13.60179687 112.51433594 13.58984375 113.84179688 C13.59371094 115.07865234 13.59757813 116.31550781 13.6015625 117.58984375 C13.60494629 118.72284912 13.60833008 119.85585449 13.61181641 121.02319336 C14.05100153 124.39110798 14.66850849 125.57891573 17 128 C19.27102931 128.61055334 19.27102931 128.61055334 21.85107422 128.53344727 C22.83574677 128.5492836 23.82041931 128.56511993 24.83493042 128.58143616 C25.89745026 128.57647629 26.95997009 128.57151642 28.0546875 128.56640625 C29.14838654 128.57260483 30.24208557 128.57880341 31.368927 128.58518982 C33.68393055 128.59229789 35.99898511 128.58909688 38.31396484 128.57641602 C41.85480139 128.56257893 45.39298174 128.59657531 48.93359375 128.63476562 C51.18229231 128.63571706 53.43099418 128.63385668 55.6796875 128.62890625 C57.26739456 128.64879356 57.26739456 128.64879356 58.88717651 128.66908264 C64.89909562 128.62984159 64.89909562 128.62984159 70.00976562 125.69287109 C70.66654297 124.80422363 71.32332031 123.91557617 72 123 C72.55381348 122.37101807 73.10762695 121.74203613 73.67822266 121.09399414 C74.1685498 120.49707764 74.65887695 119.90016113 75.1640625 119.28515625 C75.72335449 118.60582031 76.28264648 117.92648437 76.85888672 117.2265625 C77.4417041 116.51242187 78.02452148 115.79828125 78.625 115.0625 C79.23746582 114.31613281 79.84993164 113.56976563 80.48095703 112.80078125 C84.34087644 108.08098378 88.13057277 103.31169232 91.875 98.5 C103.27526395 83.86236802 103.27526395 83.86236802 107 82 C112.22949274 81.59773133 115.60684575 82.0712305 120 85 C122.36500119 87.54692436 123.88290696 89.42624621 124.14697266 92.9753418 C123.61577269 99.71275339 120.91588897 103.85418542 116.9375 109.1875 C112.65662707 114.77434199 112.65662707 114.77434199 110.37890625 121.30078125 C111.18890511 124.82096497 112.09571114 125.84146817 115 128 C118.01198279 128.3703826 120.66811371 128.510757 123.67578125 128.46875 C124.5191655 128.47579956 125.36254974 128.48284912 126.23149109 128.4901123 C129.83083934 128.51955296 133.42964457 128.50301505 137.02905273 128.49072266 C139.66162021 128.48833137 142.2933216 128.5093208 144.92578125 128.53125 C145.73018143 128.51993042 146.5345816 128.50861084 147.36335754 128.49694824 C153.04267394 128.54733333 156.31096498 129.7642697 161 133 C164.19863734 136.61136473 164.52652611 140.05257975 164.34765625 144.71875 C163.74812327 148.65276419 162.4245717 150.80977407 160 154 C154.97566487 157.24699673 150.79932321 157.41503063 145.0234375 157.37109375 C143.28385208 157.3884646 141.54426879 157.40604909 139.8046875 157.42382812 C137.081342 157.43392371 134.35812913 157.43748948 131.63476562 157.43579102 C128.99309089 157.43935699 126.35243165 157.46666903 123.7109375 157.49609375 C122.89732758 157.48791122 122.08371765 157.4797287 121.24545288 157.47129822 C117.62559832 157.51902556 115.43733926 157.68446633 112.46142578 159.83154297 C110.7146452 162.006712 110.7146452 162.006712 110.90625 165.19921875 C112.30706334 170.06704511 114.64677309 173.66921206 117.5 177.8125 C118.51090996 179.31867945 119.52134965 180.82517467 120.53125 182.33203125 C120.98048828 182.98921143 121.42972656 183.6463916 121.89257812 184.32348633 C124.31413531 187.98945485 124.36650991 190.60188113 124 195 C121.74794145 199.33729795 119.5613976 202.13397371 115 204 C111.01272269 204.65365202 108.62629274 204.91978852 105.09375 202.921875 C99.53573897 198.41168572 95.32898436 192.55607479 91.0078125 186.90234375 C87.31249737 182.07237265 83.45125444 177.38034816 79.59106445 172.68188477 C76.36199601 168.73377443 73.27552499 164.71594409 70.2902832 160.57958984 C69.06828146 158.86339662 69.06828146 158.86339662 67 158 C65.41281435 157.89478132 63.82133387 157.85128297 62.23071289 157.83886719 C61.23950943 157.82925964 60.24830597 157.8196521 59.22706604 157.80975342 C58.15311081 157.80550354 57.07915558 157.80125366 55.97265625 157.796875 C54.87279892 157.79117493 53.77294159 157.78547485 52.63975525 157.77960205 C50.31038376 157.77014444 47.98099884 157.76361506 45.65161133 157.75976562 C42.08065602 157.7500494 38.51027351 157.71902825 34.93945312 157.6875 C32.67969093 157.68097124 30.41992461 157.67572027 28.16015625 157.671875 C26.55225975 157.6533548 26.55225975 157.6533548 24.91188049 157.63446045 C23.42034706 157.6389621 23.42034706 157.6389621 21.89868164 157.64355469 C21.02313126 157.63990906 20.14758087 157.63626343 19.24549866 157.63250732 C16.50781175 158.08055029 15.6280303 158.78437698 14 161 C13.41094992 165.10074751 13.48496995 169.20203961 13.49902344 173.34179688 C13.49999382 175.36213629 13.45842097 177.37864869 13.4140625 179.3984375 C13.41148437 180.6771875 13.40890625 181.9559375 13.40625 183.2734375 C13.39561523 185.02793213 13.39561523 185.02793213 13.38476562 186.81787109 C14.18258982 190.94439513 15.83149595 192.3251052 19 195 C19.59868896 195.52352051 20.19737793 196.04704102 20.81420898 196.58642578 C21.36923096 197.0348584 21.92425293 197.48329102 22.49609375 197.9453125 C23.44718018 198.71633301 23.44718018 198.71633301 24.41748047 199.50292969 C25.41739014 200.30585449 25.41739014 200.30585449 26.4375 201.125 C27.13762207 201.6912207 27.83774414 202.25744141 28.55908203 202.84082031 C32.54933092 206.05931491 36.56984017 209.23567918 40.61669922 212.38256836 C57.91947347 225.83894695 57.91947347 225.83894695 60 230 C60.40137875 234.17433895 60.26194303 236.49551713 58.3125 240.25 C55.50267436 243.59141427 53.48421054 245.58549173 49.07739258 246.32080078 C42.08754444 246.71950591 38.30606983 244.13618354 32.875 240 C25.77974369 234.49353548 25.77974369 234.49353548 17 234 C16.01 234.33 15.02 234.66 14 235 C13.99383667 236.80017578 13.99383667 236.80017578 13.98754883 238.63671875 C13.96566847 243.11745315 13.91128704 247.59732049 13.84741211 252.07763672 C13.82430949 254.01147103 13.80985466 255.94542979 13.80444336 257.87939453 C13.79509694 260.67037817 13.75398382 263.45942541 13.70703125 266.25 C13.71293022 267.533302 13.71293022 267.533302 13.71894836 268.8425293 C13.57237915 274.96289318 12.02076614 279.31069124 8 284 C4.68291332 286.12293548 2.92438172 287 -1 287 C-1.02286511 250.58231349 -1.04049758 214.16462823 -1.05106533 177.74693603 C-1.05231611 173.45214028 -1.05361042 169.15734455 -1.05493164 164.86254883 C-1.05519395 164.00749531 -1.05545626 163.1524418 -1.05572652 162.27147757 C-1.06008348 148.40791822 -1.06797117 134.544363 -1.0771528 120.68080611 C-1.08648862 106.46637555 -1.09205546 92.25194717 -1.09408849 78.03751367 C-1.09546387 69.25921083 -1.09981524 60.48091964 -1.10791647 51.70262038 C-1.11318305 45.69139264 -1.1148045 39.68017097 -1.11350138 33.66894109 C-1.11285786 30.19547715 -1.11387705 26.72203365 -1.11920547 23.2485733 C-1.12413501 19.49167236 -1.12300103 15.7348225 -1.12025452 11.97792053 C-1.12316736 10.86802216 -1.1260802 9.75812379 -1.12908131 8.61459213 C-1.12709026 7.61634995 -1.12509921 6.61810777 -1.12304783 5.58961582 C-1.12342755 4.72119543 -1.12380727 3.85277503 -1.1241985 2.95803887 C-1 1 -1 1 0 0 Z " fill="#37A8FC" transform="translate(217,209)"/>
<path d="M0 0 C3.78468638 1.16981215 5.05094717 1.95921063 7.4375 5.0625 C7.91992188 8.20703125 7.91992188 8.20703125 7.90625 11.875 C7.91329956 12.52573486 7.92034912 13.17646973 7.9276123 13.84692383 C7.95703374 16.61918812 7.94046685 19.3907437 7.92822266 22.16308594 C7.92583962 24.19248273 7.94676661 26.2207443 7.96875 28.25 C7.96423828 29.46042969 7.95972656 30.67085937 7.95507812 31.91796875 C8.19604875 35.13769982 8.19604875 35.13769982 10.25610352 37.48803711 C12.44470367 39.39080201 12.44470367 39.39080201 15.80859375 39.06640625 C20.88893809 37.66097192 24.29751417 34.89909913 28.47265625 31.77734375 C31.83977981 29.82982432 33.61312339 29.54727148 37.4375 30.0625 C40.375 32.1875 40.375 32.1875 42.4375 35.0625 C42.41526838 39.12532874 41.7924876 40.68486567 38.98828125 43.66796875 C37.9219267 44.54479019 36.84150072 45.40468701 35.75 46.25 C35.17636719 46.71414307 34.60273438 47.17828613 34.01171875 47.65649414 C32.16643182 49.14205996 30.30368361 50.60330069 28.4375 52.0625 C27.17007621 53.06708199 25.90314691 54.07228816 24.63671875 55.078125 C22.27621969 56.94666125 19.90834086 58.80496673 17.53125 60.65234375 C16.5103125 61.44769531 15.489375 62.24304688 14.4375 63.0625 C13.4990625 63.78566406 12.560625 64.50882812 11.59375 65.25390625 C9.36173289 66.88246244 9.36173289 66.88246244 8.4375 69.0625 C8.19765874 72.5154079 8.25230688 75.97718199 8.25 79.4375 C8.23775391 80.3965625 8.22550781 81.355625 8.21289062 82.34375 C8.21095703 83.26929687 8.20902344 84.19484375 8.20703125 85.1484375 C8.20292236 85.9945459 8.19881348 86.8406543 8.19458008 87.71240234 C8.46050565 90.28506524 9.05934891 91.88423965 10.4375 94.0625 C15.28228666 96.48489333 22.62754785 95.41724564 28.01196289 95.4675293 C29.745239 95.48906772 31.47840757 95.52312168 33.21118164 95.57006836 C35.71810159 95.63734412 38.22277131 95.66457315 40.73046875 95.68359375 C41.88085884 95.72533974 41.88085884 95.72533974 43.05448914 95.76792908 C48.39612539 95.74773185 51.08436495 94.34623712 54.94151306 90.67169189 C57.40245064 88.0245292 59.64485134 85.26506301 61.8125 82.375 C62.75690794 81.1451382 63.70223408 79.91598098 64.6484375 78.6875 C65.34598145 77.77677734 65.34598145 77.77677734 66.05761719 76.84765625 C68.14044276 74.153102 70.28351087 71.51311046 72.4375 68.875 C73.13875 68.01519531 73.84 67.15539062 74.5625 66.26953125 C75.490625 65.17705078 75.490625 65.17705078 76.4375 64.0625 C76.9428125 63.46566406 77.448125 62.86882812 77.96875 62.25390625 C79.4375 61.0625 79.4375 61.0625 82.9375 61.1875 C86.4375 62.0625 86.4375 62.0625 88.375 63.25 C89.99482921 66.01323807 89.7727331 67.89096884 89.4375 71.0625 C87.65641291 73.94263092 85.75015455 76.48845252 83.63671875 79.11914062 C81.4133888 82.0588769 80.43954225 84.04842951 79.90625 87.72265625 C80.54019404 91.70811326 81.27699809 92.63795651 84.4375 95.0625 C87.55627891 95.67105355 87.55627891 95.67105355 91.03125 95.6015625 C92.30871094 95.62476562 93.58617187 95.64796875 94.90234375 95.671875 C96.24739 95.67841865 97.59244345 95.68361349 98.9375 95.6875 C101.57337351 95.70907951 104.20802598 95.74650792 106.84375 95.7890625 C108.59655273 95.79800537 108.59655273 95.79800537 110.38476562 95.80712891 C113.36278081 96.0562495 114.99249366 96.3918386 117.4375 98.0625 C119.4375 101.0625 119.4375 101.0625 119.25 104.5625 C118.4659084 107.94012534 118.16925021 109.09563985 115.4375 111.0625 C112.61559378 112.47345311 110.19163448 112.22647422 107.0390625 112.2734375 C105.75515625 112.30179687 104.47125 112.33015625 103.1484375 112.359375 C101.10547276 112.40060735 99.06274494 112.43749684 97.01953125 112.46386719 C95.04664936 112.49153333 93.07406809 112.5385025 91.1015625 112.5859375 C89.32966553 112.6156665 89.32966553 112.6156665 87.52197266 112.64599609 C84.19073464 113.09582133 82.77426846 113.68083415 80.4375 116.0625 C79.48320286 120.22670569 79.91041581 122.08226032 81.94140625 125.859375 C83.70739465 128.64661348 85.53857908 131.36448566 87.4375 134.0625 C89.4375 137.0625 89.4375 137.0625 89.3125 140.5625 C88.4375 144.0625 88.4375 144.0625 86.6875 146 C83.92853241 147.30284581 82.46707231 147.46912401 79.4375 147.0625 C77.1484375 145.1484375 77.1484375 145.1484375 74.8125 142.4375 C74.38864014 141.95112061 73.96478027 141.46474121 73.52807617 140.96362305 C69.16855204 135.89701993 65.08784652 130.60022306 60.9921875 125.3203125 C56.0035834 118.29309045 56.0035834 118.29309045 49.4375 113.0625 C46.7129406 112.92703809 44.01516237 112.84982404 41.2890625 112.82421875 C40.48012543 112.816147 39.67118835 112.80807526 38.83773804 112.79975891 C37.12459455 112.7859201 35.41142352 112.77519703 33.69824219 112.76733398 C31.07954676 112.75011211 28.46211106 112.70622521 25.84375 112.66210938 C24.17969679 112.65198311 22.51563284 112.6434668 20.8515625 112.63671875 C20.06915192 112.61921066 19.28674133 112.60170258 18.48062134 112.58366394 C15.00214555 112.59752821 12.84722575 112.78078091 9.94702148 114.77490234 C7.23028988 118.89196123 7.82214639 123.20897554 7.875 128 C7.85115234 128.98935547 7.82730469 129.97871094 7.80273438 130.99804688 C7.79879518 136.89276235 7.79879518 136.89276235 10.6015625 141.93359375 C11.53742188 142.63613281 12.47328125 143.33867187 13.4375 144.0625 C14.37464844 144.89007813 15.31179688 145.71765625 16.27734375 146.5703125 C17.30744169 147.44560476 18.34010314 148.31788699 19.375 149.1875 C19.92841064 149.65542969 20.48182129 150.12335938 21.05200195 150.60546875 C25.91199056 154.68549276 30.89328015 158.60366763 35.94311523 162.44580078 C38.64165018 164.52387108 40.52884948 166.19952422 42.4375 169.0625 C42.29565007 172.4668983 42.05523643 174.37612618 39.75 176.9375 C36.66497868 178.43832118 34.86154956 178.43255761 31.4375 178.0625 C28.36397307 176.25225968 25.57974333 174.31190003 22.73632812 172.17382812 C19.45912889 169.86926388 17.67470422 169.0603149 13.62109375 169.09765625 C10.16994908 169.77547748 10.16994908 169.77547748 8.4375 173.0625 C8.10058695 176.09965236 8.10058695 176.09965236 8.09375 179.55859375 C8.06410156 180.83927734 8.03445313 182.11996094 8.00390625 183.43945312 C7.98067446 184.79295038 7.95855028 186.14646706 7.9375 187.5 C7.89625516 190.14506335 7.84241669 192.78879922 7.78125 195.43359375 C7.76255859 196.60849365 7.74386719 197.78339355 7.72460938 198.99389648 C7.4492951 201.93643481 7.03154011 203.61004775 5.4375 206.0625 C2.76116974 208.1440902 1.31996332 208.05837591 -2.125 207.9375 C-5.5625 207.0625 -5.5625 207.0625 -7.24755859 205.43579102 C-9.00706128 202.26012715 -8.98006979 199.83666021 -9.0390625 196.21484375 C-9.05464203 195.56173721 -9.07022156 194.90863068 -9.08627319 194.23573303 C-9.13363721 192.1571671 -9.16149829 190.07893339 -9.1875 188 C-9.22406056 185.91773186 -9.26473668 183.83564904 -9.31015015 181.7535553 C-9.34968324 179.86702263 -9.37752613 177.9802558 -9.40478516 176.09350586 C-9.42992304 173.01605822 -9.42992304 173.01605822 -10.5625 170.0625 C-15.96491217 168.47518349 -15.96491217 168.47518349 -21.26611328 169.8984375 C-23.76661225 171.42844175 -26.15989522 173.061223 -28.51220703 174.81030273 C-32.35311435 177.60066351 -34.8070128 178.73795657 -39.5625 178.0625 C-41.9375 176.4375 -41.9375 176.4375 -43.5625 174.0625 C-43.953125 171.20703125 -43.953125 171.20703125 -43.5625 168.0625 C-41.6484375 165.67578125 -41.6484375 165.67578125 -38.9375 163.375 C-37.93847656 162.5190625 -36.93945312 161.663125 -35.91015625 160.78125 C-31.27419085 156.98304316 -26.55587983 153.28993723 -21.8203125 149.6171875 C-14.79309045 144.6285834 -14.79309045 144.6285834 -9.5625 138.0625 C-9.32302359 134.58868342 -9.37730999 131.10616186 -9.375 127.625 C-9.36275391 126.65755859 -9.35050781 125.69011719 -9.33789062 124.69335938 C-9.33595703 123.76458984 -9.33402344 122.83582031 -9.33203125 121.87890625 C-9.32792236 121.02756104 -9.32381348 120.17621582 -9.31958008 119.29907227 C-9.41939924 116.77706902 -9.41939924 116.77706902 -11.5625 114.0625 C-17.43715863 112.10428046 -24.15782171 112.75543714 -30.32226562 112.71240234 C-32.06231045 112.69583358 -33.80228695 112.66853111 -35.54199219 112.63037109 C-38.05699786 112.57553119 -40.57041407 112.5537214 -43.0859375 112.5390625 C-43.86004974 112.51639313 -44.63416199 112.49372375 -45.43173218 112.47036743 C-49.45703872 112.48606766 -51.28277786 112.83319345 -54.43554688 115.41772461 C-55.13744141 116.29050049 -55.83933594 117.16327637 -56.5625 118.0625 C-57.39007813 118.99964844 -58.21765625 119.93679687 -59.0703125 120.90234375 C-59.94560476 121.93244169 -60.81788699 122.96510314 -61.6875 124 C-62.15542969 124.55341064 -62.62335938 125.10682129 -63.10546875 125.67700195 C-67.18549276 130.53699056 -71.10366763 135.51828015 -74.94580078 140.56811523 C-79.72983326 146.78055127 -79.72983326 146.78055127 -84 147.4375 C-86.5625 147.0625 -86.5625 147.0625 -88.875 145.5 C-91.21685364 142.11732253 -90.98089701 140.12813562 -90.5625 136.0625 C-89.13315307 133.65473106 -87.79362412 131.65480765 -86.0625 129.5 C-83.55344255 126.35425981 -81.6601834 123.97606181 -81.21875 119.84765625 C-81.4791549 116.98313598 -81.4791549 116.98313598 -82.5625 114.0625 C-85.93000121 112.67948133 -89.52985921 112.93681254 -93.12109375 112.921875 C-94.39404297 112.90253906 -95.66699219 112.88320312 -96.97851562 112.86328125 C-98.99094062 112.83431136 -101.00224536 112.81249946 -103.01489258 112.81201172 C-104.9671283 112.8086668 -106.91921569 112.77189213 -108.87109375 112.734375 C-110.03439209 112.7250293 -111.19769043 112.71568359 -112.39624023 112.70605469 C-116.48466932 111.87506548 -117.98565215 110.27681142 -120.5625 107.0625 C-121.1875 104.0625 -121.1875 104.0625 -120.5625 101.0625 C-117.98565215 97.84818858 -116.48466932 96.24993452 -112.39624023 95.41894531 C-111.23294189 95.40959961 -110.06964355 95.40025391 -108.87109375 95.390625 C-107.59685547 95.36613281 -106.32261719 95.34164062 -105.00976562 95.31640625 C-103.67317841 95.31411617 -102.33658914 95.3128239 -101 95.3125 C-98.37353767 95.28393425 -95.74742614 95.24301866 -93.12109375 95.203125 C-91.95892334 95.19829102 -90.79675293 95.19345703 -89.59936523 95.18847656 C-87.05622966 95.08298111 -84.97937707 94.80912316 -82.5625 94.0625 C-81.55207098 90.55571693 -81.09168808 88.62791945 -81.5625 85.0625 C-83.31825172 82.1209079 -85.13936828 79.48350348 -87.31030273 76.8449707 C-89.67473312 73.86827631 -90.55372339 72.14829586 -90.9453125 68.3203125 C-90.5625 65.0625 -90.5625 65.0625 -89 62.5625 C-86.5625 61.0625 -86.5625 61.0625 -83.23828125 61.11328125 C-78.78970504 62.26206342 -76.98290731 64.23354823 -74.3125 67.75 C-73.85286865 68.32363281 -73.3932373 68.89726563 -72.91967773 69.48828125 C-71.44886735 71.33259513 -70.00570835 73.19653849 -68.5625 75.0625 C-67.5602185 76.33071283 -66.5563148 77.59764534 -65.55078125 78.86328125 C-63.6804001 81.22339238 -61.82033299 83.59082489 -59.97265625 85.96875 C-59.17730469 86.9896875 -58.38195312 88.010625 -57.5625 89.0625 C-56.83933594 90.0009375 -56.11617188 90.939375 -55.37109375 91.90625 C-53.74253756 94.13826711 -53.74253756 94.13826711 -51.5625 95.0625 C-48.83777289 95.17367903 -46.13939337 95.22661246 -43.4140625 95.23046875 C-42.20065689 95.23546135 -42.20065689 95.23546135 -40.96273804 95.24055481 C-39.24957854 95.24562186 -37.53640917 95.2479632 -35.82324219 95.24780273 C-33.20491192 95.24998548 -30.58700547 95.26813294 -27.96875 95.28710938 C-26.30468894 95.2900441 -24.64062588 95.29202837 -22.9765625 95.29296875 C-21.80294662 95.30374702 -21.80294662 95.30374702 -20.60562134 95.31474304 C-15.24072009 95.35535334 -15.24072009 95.35535334 -10.5625 93.0625 C-9.14830902 88.81992707 -9.21762804 84.75864576 -9.125 80.3125 C-9.07923828 79.43078125 -9.03347656 78.5490625 -8.98632812 77.640625 C-8.90684118 72.99582286 -9.15724224 69.91441811 -12.171875 66.2578125 C-15.30051525 63.11486092 -18.70598241 60.34563754 -22.25 57.6875 C-23.4798618 56.74309206 -24.70901902 55.79776592 -25.9375 54.8515625 C-26.54464844 54.3865332 -27.15179688 53.92150391 -27.77734375 53.44238281 C-30.471898 51.35955724 -33.11188954 49.21648913 -35.75 47.0625 C-36.60980469 46.36125 -37.46960938 45.66 -38.35546875 44.9375 C-43.48554376 40.57920619 -43.48554376 40.57920619 -44 37.125 C-43.5625 34.0625 -43.5625 34.0625 -41.9375 31.6875 C-38.80548053 29.54453931 -37.32174253 29.61891834 -33.5625 30.0625 C-31.15254709 31.51186207 -28.99192395 32.95800003 -26.75 34.625 C-21.03823598 38.68240234 -21.03823598 38.68240234 -14.1875 39.125 C-12.99125 38.774375 -11.795 38.42375 -10.5625 38.0625 C-9.46623114 34.51379271 -9.43726837 31.20472895 -9.421875 27.50390625 C-9.39287109 25.59448242 -9.39287109 25.59448242 -9.36328125 23.64648438 C-9.33431136 21.63405938 -9.31249946 19.62275464 -9.31201172 17.61010742 C-9.3086668 15.6578717 -9.27189213 13.70578431 -9.234375 11.75390625 C-9.2250293 10.59060791 -9.21568359 9.42730957 -9.20605469 8.22875977 C-8.12490152 2.90953538 -5.45648222 0.09572776 0 0 Z " fill="#8DC9F4" transform="translate(360.5625,15.9375)"/>
<path d="M0 0 C6 2 6 2 8 5 C8.25537109 8.03100586 8.25537109 8.03100586 8.2734375 11.71484375 C8.29372514 13.05404484 8.3145759 14.39323749 8.3359375 15.73242188 C8.3585373 17.83690525 8.37500988 19.94105512 8.38085938 22.0456543 C8.39039536 24.08182549 8.42417714 26.11650726 8.4609375 28.15234375 C8.46915527 29.36913818 8.47737305 30.58593262 8.48583984 31.83959961 C9.09362252 35.57547177 9.95767059 36.80278105 13 39 C19.85693147 39.00794546 23.75411341 35.66348156 29.03515625 31.71484375 C32.40227981 29.76732432 34.17562339 29.48477148 38 30 C40.9375 32.125 40.9375 32.125 43 35 C42.97776838 39.06282874 42.3549876 40.62236567 39.55078125 43.60546875 C38.4844267 44.48229019 37.40400072 45.34218701 36.3125 46.1875 C35.73886719 46.65164307 35.16523438 47.11578613 34.57421875 47.59399414 C32.72893182 49.07955996 30.86618361 50.54080069 29 52 C27.73257621 53.00458199 26.46564691 54.00978816 25.19921875 55.015625 C22.83871969 56.88416125 20.47084086 58.74246673 18.09375 60.58984375 C17.0728125 61.38519531 16.051875 62.18054688 15 63 C13.59234375 64.08474609 13.59234375 64.08474609 12.15625 65.19140625 C9.92423289 66.81996244 9.92423289 66.81996244 9 69 C8.76015874 72.4529079 8.81480688 75.91468199 8.8125 79.375 C8.80025391 80.3340625 8.78800781 81.293125 8.77539062 82.28125 C8.77345703 83.20679687 8.77152344 84.13234375 8.76953125 85.0859375 C8.76336792 86.3551001 8.76336792 86.3551001 8.75708008 87.64990234 C9.02300565 90.22256524 9.62184891 91.82173965 11 94 C15.84478666 96.42239333 23.19004785 95.35474564 28.57446289 95.4050293 C30.307739 95.42656772 32.04090757 95.46062168 33.77368164 95.50756836 C36.28060159 95.57484412 38.78527131 95.60207315 41.29296875 95.62109375 C42.44335884 95.66283974 42.44335884 95.66283974 43.61698914 95.70542908 C48.95862539 95.68523185 51.64686495 94.28373712 55.50401306 90.60919189 C57.96495064 87.9620292 60.20735134 85.20256301 62.375 82.3125 C63.31940794 81.0826382 64.26473408 79.85348098 65.2109375 78.625 C65.90848145 77.71427734 65.90848145 77.71427734 66.62011719 76.78515625 C68.70294276 74.090602 70.84601087 71.45061046 73 68.8125 C73.70125 67.95269531 74.4025 67.09289062 75.125 66.20703125 C75.74375 65.47871094 76.3625 64.75039062 77 64 C77.5053125 63.40316406 78.010625 62.80632812 78.53125 62.19140625 C80 61 80 61 83.5 61.125 C87 62 87 62 88.9375 63.1875 C90.55732921 65.95073807 90.3352331 67.82846884 90 71 C88.21891291 73.88013092 86.31265455 76.42595252 84.19921875 79.05664062 C81.9758888 81.9963769 81.00204225 83.98592951 80.46875 87.66015625 C81.10269404 91.64561326 81.83949809 92.57545651 85 95 C88.11877891 95.60855355 88.11877891 95.60855355 91.59375 95.5390625 C92.87121094 95.56226562 94.14867187 95.58546875 95.46484375 95.609375 C96.80989 95.61591865 98.15494345 95.62111349 99.5 95.625 C102.13587351 95.64657951 104.77052598 95.68400792 107.40625 95.7265625 C109.15905273 95.73550537 109.15905273 95.73550537 110.94726562 95.74462891 C113.92528081 95.9937495 115.55499366 96.3293386 118 98 C120 101 120 101 119.8125 104.5 C119.0284084 107.87762534 118.73175021 109.03313985 116 111 C113.17809378 112.41095311 110.75413448 112.16397422 107.6015625 112.2109375 C106.31765625 112.23929687 105.03375 112.26765625 103.7109375 112.296875 C101.66797276 112.33810735 99.62524494 112.37499684 97.58203125 112.40136719 C95.60914936 112.42903333 93.63656809 112.4760025 91.6640625 112.5234375 C89.89216553 112.5531665 89.89216553 112.5531665 88.08447266 112.58349609 C84.75323464 113.03332133 83.33676846 113.61833415 81 116 C80.04570286 120.16420569 80.47291581 122.01976032 82.50390625 125.796875 C84.26989465 128.58411348 86.10107908 131.30198566 88 134 C90 137 90 137 89.875 140.5 C89 144 89 144 87.25 145.9375 C84.49103241 147.24034581 83.02957231 147.40662401 80 147 C77.7109375 145.0859375 77.7109375 145.0859375 75.375 142.375 C74.95114014 141.88862061 74.52728027 141.40224121 74.09057617 140.90112305 C69.73105204 135.83451993 65.65034652 130.53772306 61.5546875 125.2578125 C56.5660834 118.23059045 56.5660834 118.23059045 50 113 C47.2754406 112.86453809 44.57766237 112.78732404 41.8515625 112.76171875 C41.04262543 112.753647 40.23368835 112.74557526 39.40023804 112.73725891 C37.68709455 112.7234201 35.97392352 112.71269703 34.26074219 112.70483398 C31.64204676 112.68761211 29.02461106 112.64372521 26.40625 112.59960938 C24.74219679 112.58948311 23.07813284 112.5809668 21.4140625 112.57421875 C20.24044662 112.54795662 20.24044662 112.54795662 19.04312134 112.52116394 C15.56464555 112.53502821 13.40972575 112.71828091 10.50952148 114.71240234 C7.79278988 118.82946123 8.38464639 123.14647554 8.4375 127.9375 C8.41365234 128.92685547 8.38980469 129.91621094 8.36523438 130.93554688 C8.36129518 136.83026235 8.36129518 136.83026235 11.1640625 141.87109375 C12.09992188 142.57363281 13.03578125 143.27617187 14 144 C14.93714844 144.82757813 15.87429688 145.65515625 16.83984375 146.5078125 C17.86994169 147.38310476 18.90260314 148.25538699 19.9375 149.125 C20.76761597 149.82689453 20.76761597 149.82689453 21.61450195 150.54296875 C26.47449056 154.62299276 31.45578015 158.54116763 36.50561523 162.38330078 C39.20415018 164.46137108 41.09134948 166.13702422 43 169 C42.85815007 172.4043983 42.61773643 174.31362618 40.3125 176.875 C37.22747868 178.37582118 35.42404956 178.37005761 32 178 C28.92647307 176.18975968 26.14224333 174.24940003 23.29882812 172.11132812 C20.02162889 169.80676388 18.23720422 168.9978149 14.18359375 169.03515625 C10.73244908 169.71297748 10.73244908 169.71297748 9 173 C8.66308695 176.03715236 8.66308695 176.03715236 8.65625 179.49609375 C8.62660156 180.77677734 8.59695313 182.05746094 8.56640625 183.37695312 C8.54317446 184.73045038 8.52105028 186.08396706 8.5 187.4375 C8.45875516 190.08256335 8.40491669 192.72629922 8.34375 195.37109375 C8.32505859 196.54599365 8.30636719 197.72089355 8.28710938 198.93139648 C7.84378008 203.66966685 7.84378008 203.66966685 6 206 C3.03 206.99 3.03 206.99 0 208 C0 139.36 0 70.72 0 0 Z " fill="#C1DEE5" transform="translate(360,16)"/>
<path d="M0 0 C8.34468007 4.97590182 13.53387008 11.86345977 16.109375 21.2578125 C17.10789012 32.35758522 16.45884702 41.9922991 9.359375 51.0703125 C3.68970122 57.1408723 -3.36319277 60.85433149 -11.66015625 61.59375 C-19.4412515 61.76746925 -26.16911331 61.58646603 -32.890625 57.2578125 C-33.59703125 56.82210937 -34.3034375 56.38640625 -35.03125 55.9375 C-41.93709584 51.25687115 -45.68778524 45.25759899 -47.890625 37.2578125 C-48.88914012 26.15803978 -48.24009702 16.5233259 -41.140625 7.4453125 C-30.84272373 -3.5807232 -13.59449082 -6.52353083 0 0 Z " fill="#000000" transform="translate(447.890625,250.7421875)"/>
<path d="M0 0 C8.34468007 4.97590182 13.53387008 11.86345977 16.109375 21.2578125 C17.10789012 32.35758522 16.45884702 41.9922991 9.359375 51.0703125 C3.68970122 57.1408723 -3.36319277 60.85433149 -11.66015625 61.59375 C-19.4412515 61.76746925 -26.16911331 61.58646603 -32.890625 57.2578125 C-33.59703125 56.82210937 -34.3034375 56.38640625 -35.03125 55.9375 C-41.93709584 51.25687115 -45.68778524 45.25759899 -47.890625 37.2578125 C-48.88914012 26.15803978 -48.24009702 16.5233259 -41.140625 7.4453125 C-30.84272373 -3.5807232 -13.59449082 -6.52353083 0 0 Z " fill="#000000" transform="translate(175.890625,106.7421875)"/>
<path d="M0 0 C5.82485779 3.51996782 10.54466582 8.98962934 12.5625 15.5 C13.36764105 23.33608208 13.68710392 31.11922577 8.5625 37.5 C3.75801361 42.54521222 -0.59927055 46.10562995 -7.70703125 46.8359375 C-16.22326573 46.92983204 -22.11345494 46.6177288 -28.40234375 40.62890625 C-34.7841668 33.72505269 -35.91792252 28.29832071 -35.7421875 18.9453125 C-35.04689797 11.08319245 -31.38995981 6.95041296 -25.53515625 1.9453125 C-18.47077988 -2.92213491 -7.84396301 -3.47595223 0 0 Z " fill="#000000" transform="translate(491.4375,345.5)"/>
<path d="M0 0 C5.82485779 3.51996782 10.54466582 8.98962934 12.5625 15.5 C13.36764105 23.33608208 13.68710392 31.11922577 8.5625 37.5 C3.75801361 42.54521222 -0.59927055 46.10562995 -7.70703125 46.8359375 C-16.22326573 46.92983204 -22.11345494 46.6177288 -28.40234375 40.62890625 C-34.7841668 33.72505269 -35.91792252 28.29832071 -35.7421875 18.9453125 C-35.04689797 11.08319245 -31.38995981 6.95041296 -25.53515625 1.9453125 C-18.47077988 -2.92213491 -7.84396301 -3.47595223 0 0 Z " fill="#000000" transform="translate(91.4375,169.5)"/>
<path d="M0 0 C5.82485779 3.51996782 10.54466582 8.98962934 12.5625 15.5 C13.36764105 23.33608208 13.68710392 31.11922577 8.5625 37.5 C3.75801361 42.54521222 -0.59927055 46.10562995 -7.70703125 46.8359375 C-16.22326573 46.92983204 -22.11345494 46.6177288 -28.40234375 40.62890625 C-34.7841668 33.72505269 -35.91792252 28.29832071 -35.7421875 18.9453125 C-35.04689797 11.08319245 -31.38995981 6.95041296 -25.53515625 1.9453125 C-18.47077988 -2.92213491 -7.84396301 -3.47595223 0 0 Z " fill="#000000" transform="translate(147.4375,33.5)"/>
<path d="M0 0 C5.67476113 1.96434039 9.31400331 5.62800662 12 11 C12.59057744 16.67862925 12.29370905 21.16922672 9 26 C4.99653611 30.03627917 1.41408246 32.12458106 -4.3125 32.3125 C-8.94226662 32.25237316 -11.4369151 31.06591027 -15 28 C-19.3022759 23.23261319 -20.36282503 19.56252705 -20.28125 13.28125 C-19.69180611 8.50020514 -16.85179203 5.75038822 -13.375 2.6875 C-8.92314854 -0.47565762 -5.3540278 -0.48837416 0 0 Z " fill="#8BC6F1" transform="translate(436,264)"/>
<path d="M0 0 C5.67476113 1.96434039 9.31400331 5.62800662 12 11 C12.59057744 16.67862925 12.29370905 21.16922672 9 26 C4.99653611 30.03627917 1.41408246 32.12458106 -4.3125 32.3125 C-8.94226662 32.25237316 -11.4369151 31.06591027 -15 28 C-19.3022759 23.23261319 -20.36282503 19.56252705 -20.28125 13.28125 C-19.69180611 8.50020514 -16.85179203 5.75038822 -13.375 2.6875 C-8.92314854 -0.47565762 -5.3540278 -0.48837416 0 0 Z " fill="#8BC6F1" transform="translate(164,120)"/>
<path d="M0 0 C2.5 1.5 2.5 1.5 4 4 C4.791013 8.02098277 4.62153384 10.96411027 2.5 14.5 C-1.03588973 16.62153384 -3.97901723 16.791013 -8 16 C-10.5 14.5 -10.5 14.5 -12 12 C-12.791013 7.97901723 -12.62153384 5.03588973 -10.5 1.5 C-6.96411027 -0.62153384 -4.02098277 -0.791013 0 0 Z " fill="#000000" transform="translate(428,344)"/>
<path d="M0 0 C2.5 1.5 2.5 1.5 4 4 C4.791013 8.02098277 4.62153384 10.96411027 2.5 14.5 C-1.03588973 16.62153384 -3.97901723 16.791013 -8 16 C-10.5 14.5 -10.5 14.5 -12 12 C-12.791013 7.97901723 -12.62153384 5.03588973 -10.5 1.5 C-6.96411027 -0.62153384 -4.02098277 -0.791013 0 0 Z " fill="#000000" transform="translate(484,216)"/>
<path d="M0 0 C2.5 1.5 2.5 1.5 4 4 C4.791013 8.02098277 4.62153384 10.96411027 2.5 14.5 C-1.03588973 16.62153384 -3.97901723 16.791013 -8 16 C-10.5 14.5 -10.5 14.5 -12 12 C-12.791013 7.97901723 -12.62153384 5.03588973 -10.5 1.5 C-6.96411027 -0.62153384 -4.02098277 -0.791013 0 0 Z " fill="#000000" transform="translate(140,184)"/>
<path d="M0 0 C2.5 1.5 2.5 1.5 4 4 C4.791013 8.02098277 4.62153384 10.96411027 2.5 14.5 C-1.03588973 16.62153384 -3.97901723 16.791013 -8 16 C-10.5 14.5 -10.5 14.5 -12 12 C-12.791013 7.97901723 -12.62153384 5.03588973 -10.5 1.5 C-6.96411027 -0.62153384 -4.02098277 -0.791013 0 0 Z " fill="#000000" transform="translate(100,96)"/>
<path d="M0 0 C2.5 1.5 2.5 1.5 4 4 C4.791013 8.02098277 4.62153384 10.96411027 2.5 14.5 C-1.03588973 16.62153384 -3.97901723 16.791013 -8 16 C-10.5 14.5 -10.5 14.5 -12 12 C-12.791013 7.97901723 -12.62153384 5.03588973 -10.5 1.5 C-6.96411027 -0.62153384 -4.02098277 -0.791013 0 0 Z " fill="#000000" transform="translate(204,56)"/>
<path d="M0 0 C4.0743356 0.84881992 5.54405875 2.30225596 8 5.625 C8.625 8.625 8.625 8.625 8 11.625 C5.54405875 14.94774404 4.0743356 16.40118008 0 17.25 C-4.0743356 16.40118008 -5.54405875 14.94774404 -8 11.625 C-8.625 8.625 -8.625 8.625 -8 5.625 C-5.54405875 2.30225596 -4.0743356 0.84881992 0 0 Z " fill="#BAD6DD" transform="translate(480,359.375)"/>
<path d="M0 0 C4.0743356 0.84881992 5.54405875 2.30225596 8 5.625 C8.625 8.625 8.625 8.625 8 11.625 C5.54405875 14.94774404 4.0743356 16.40118008 0 17.25 C-4.0743356 16.40118008 -5.54405875 14.94774404 -8 11.625 C-8.625 8.625 -8.625 8.625 -8 5.625 C-5.54405875 2.30225596 -4.0743356 0.84881992 0 0 Z " fill="#BAD6DD" transform="translate(80,183.375)"/>
<path d="M0 0 C4.0743356 0.84881992 5.54405875 2.30225596 8 5.625 C8.625 8.625 8.625 8.625 8 11.625 C5.54405875 14.94774404 4.0743356 16.40118008 0 17.25 C-4.0743356 16.40118008 -5.54405875 14.94774404 -8 11.625 C-8.625 8.625 -8.625 8.625 -8 5.625 C-5.54405875 2.30225596 -4.0743356 0.84881992 0 0 Z " fill="#BAD6DD" transform="translate(136,47.375)"/>
</svg>
