<?xml version="1.0" encoding="UTF-8"?>
<svg version="1.1" xmlns="http://www.w3.org/2000/svg" width="512" height="512">
<path d="M0 0 C0.97018066 0.31348389 0.97018066 0.31348389 1.95996094 0.63330078 C14.22776596 4.75862061 26.2462527 10.78828642 35.125 20.3125 C37.39254969 22.63116567 37.39254969 22.63116567 40 24 C43.31302271 23.60129813 45.96322951 22.47630084 49.0546875 21.2265625 C60.65209326 17.05540498 75.54298669 19.06296781 86.79296875 23.44140625 C91.6331333 25.79369085 95.83865729 28.6023494 100 32 C100.60585938 32.47953125 101.21171875 32.9590625 101.8359375 33.453125 C104.36792218 35.50341504 106.71534996 37.68204602 109 40 C109.62648438 39.4225 110.25296875 38.845 110.8984375 38.25 C112.12433594 37.13625 112.12433594 37.13625 113.375 36 C114.18710937 35.2575 114.99921875 34.515 115.8359375 33.75 C118 32 118 32 120 32 C119.6596875 30.6696875 119.6596875 30.6696875 119.3125 29.3125 C119 26 119 26 119.8125 23.4375 C126.88686425 15.55463698 139.77298865 12.56312835 149.9765625 11.76806641 C172.20397994 10.70690807 193.3710168 14.25796363 210.859375 29.04296875 C211.91898437 30.01169922 211.91898437 30.01169922 213 31 C213.89203125 31.80050781 214.7840625 32.60101563 215.703125 33.42578125 C222.88063043 40.20126793 229.13694111 47.8028217 232.83105469 57.08911133 C233.84392434 59.14426703 233.84392434 59.14426703 235.91674805 59.87792969 C236.69058838 60.05743164 237.46442871 60.23693359 238.26171875 60.421875 C239.12611572 60.63811523 239.9905127 60.85435547 240.88110352 61.07714844 C241.80721436 61.29918945 242.7333252 61.52123047 243.6875 61.75 C265.08436113 67.40536563 282.70390168 79.54179927 294.09082031 98.84960938 C296.40931717 103.101307 298.2834053 107.47595783 300 112 C300.433125 113.11117187 300.86625 114.22234375 301.3125 115.3671875 C307.84349719 135.3683664 305.24322972 157.7327544 296.1875 176.375 C293.07747734 182.46004784 289.50127268 187.84123805 285 193 C284.22785156 193.96808594 283.45570313 194.93617188 282.66015625 195.93359375 C274.81728123 205.32914903 263.44196611 211.97008822 252 216 C250.62165733 216.49978867 250.62165733 216.49978867 249.21546936 217.00967407 C236.62501525 220.96881827 224.04711454 220.5811828 210.95703125 220.53125 C208.45456288 220.53394889 205.95209554 220.5378346 203.44963074 220.54284668 C198.2360931 220.54871101 193.0228315 220.54026986 187.80932617 220.52148438 C181.78937252 220.5008498 175.77008486 220.50687088 169.75015432 220.52879 C163.93070611 220.54912541 158.11146281 220.54698318 152.29199791 220.53526306 C149.82519136 220.53259472 147.358371 220.53586926 144.89158058 220.54518127 C141.45704822 220.55531416 138.02356524 220.53989601 134.58911133 220.51757812 C133.57042465 220.52567505 132.55173798 220.53377197 131.50218201 220.54211426 C124.68677607 220.45986379 124.68677607 220.45986379 121.33818054 218.21765137 C120 216 120 216 120 212 C105.49005994 211.97738375 92.16009503 212.17393869 78.57421875 217.625 C72.65453727 219.90229823 67.01003177 220.14870211 60.72416687 220.14717102 C59.90615736 220.15084771 59.08814786 220.1545244 58.24535018 220.1583125 C55.51211177 220.16930009 52.77891144 220.17318486 50.0456543 220.17700195 C48.0822284 220.18327057 46.11880368 220.18991772 44.15538025 220.19691467 C37.71166809 220.21791872 31.26795581 220.22831701 24.82421875 220.23828125 C22.60012106 220.24233085 20.37602349 220.24644784 18.15192604 220.25063133 C7.69584561 220.26967883 -2.7602278 220.28390804 -13.21632224 220.2922433 C-25.25413314 220.30199961 -37.29175937 220.32827906 -49.32950526 220.36874419 C-58.65295857 220.39900039 -67.97635925 220.41372135 -77.29986066 220.41702431 C-82.85879196 220.41936489 -88.41752591 220.42819477 -93.97640419 220.45348549 C-99.21564411 220.47693652 -104.45455912 220.48093162 -109.69383812 220.47072411 C-111.60404421 220.47023267 -113.51426723 220.4764355 -115.42442322 220.49028015 C-130.28224009 220.59183557 -145.2221084 219.49653173 -158.5 212.125 C-159.4904834 211.59966675 -159.4904834 211.59966675 -160.50097656 211.0637207 C-162.35010965 210.06836632 -164.17784648 209.04374232 -166 208 C-166.85078125 207.51660156 -167.7015625 207.03320312 -168.578125 206.53515625 C-188.6099136 194.10535936 -201.36593763 173.56808033 -207 151 C-212.22276504 128.31331267 -207.22215638 105.78055435 -196 86 C-195.51660156 85.14792969 -195.03320312 84.29585938 -194.53515625 83.41796875 C-181.4454915 62.36068198 -160.12732409 50.24797313 -136.5625 44.39453125 C-134 44 -134 44 -130.73046875 44.0703125 C-123.68674541 44.30078796 -123.68674541 44.30078796 -117.80078125 40.98046875 C-116.54331139 39.11744942 -115.33301541 37.22210056 -114.16015625 35.3046875 C-100.34060581 14.16302444 -75.94979832 2.26555849 -52 -3 C-35.17014664 -6.15868642 -16.3058951 -5.30124392 0 0 Z " fill="#DAE5FC" transform="translate(208,4)"/>
<path d="M0 0 C0.97018066 0.31348389 0.97018066 0.31348389 1.95996094 0.63330078 C14.22776596 4.75862061 26.2462527 10.78828642 35.125 20.3125 C37.39254969 22.63116567 37.39254969 22.63116567 40 24 C43.31302271 23.60129813 45.96322951 22.47630084 49.0546875 21.2265625 C60.65209326 17.05540498 75.54298669 19.06296781 86.79296875 23.44140625 C91.6331333 25.79369085 95.83865729 28.6023494 100 32 C100.60585938 32.47953125 101.21171875 32.9590625 101.8359375 33.453125 C104.36792218 35.50341504 106.71534996 37.68204602 109 40 C109.62648438 39.4225 110.25296875 38.845 110.8984375 38.25 C112.12433594 37.13625 112.12433594 37.13625 113.375 36 C114.18710937 35.2575 114.99921875 34.515 115.8359375 33.75 C118 32 118 32 120 32 C119.6596875 30.6696875 119.6596875 30.6696875 119.3125 29.3125 C119 26 119 26 119.8125 23.4375 C126.88686425 15.55463698 139.77298865 12.56312835 149.9765625 11.76806641 C172.20397994 10.70690807 193.3710168 14.25796363 210.859375 29.04296875 C211.91898437 30.01169922 211.91898437 30.01169922 213 31 C213.89203125 31.80050781 214.7840625 32.60101563 215.703125 33.42578125 C222.88063043 40.20126793 229.13694111 47.8028217 232.83105469 57.08911133 C233.84392434 59.14426703 233.84392434 59.14426703 235.91674805 59.87792969 C236.69058838 60.05743164 237.46442871 60.23693359 238.26171875 60.421875 C239.12611572 60.63811523 239.9905127 60.85435547 240.88110352 61.07714844 C241.80721436 61.29918945 242.7333252 61.52123047 243.6875 61.75 C265.08436113 67.40536563 282.70390168 79.54179927 294.09082031 98.84960938 C296.40931717 103.101307 298.2834053 107.47595783 300 112 C300.433125 113.11117187 300.86625 114.22234375 301.3125 115.3671875 C307.84349719 135.3683664 305.24322972 157.7327544 296.1875 176.375 C293.07747734 182.46004784 289.50127268 187.84123805 285 193 C284.22785156 193.96808594 283.45570313 194.93617188 282.66015625 195.93359375 C274.81728123 205.32914903 263.44196611 211.97008822 252 216 C250.62165733 216.49978867 250.62165733 216.49978867 249.21546936 217.00967407 C236.62501525 220.96881827 224.04711454 220.5811828 210.95703125 220.53125 C208.45456288 220.53394889 205.95209554 220.5378346 203.44963074 220.54284668 C198.2360931 220.54871101 193.0228315 220.54026986 187.80932617 220.52148438 C181.78937252 220.5008498 175.77008486 220.50687088 169.75015432 220.52879 C163.93070611 220.54912541 158.11146281 220.54698318 152.29199791 220.53526306 C149.82519136 220.53259472 147.358371 220.53586926 144.89158058 220.54518127 C141.45704822 220.55531416 138.02356524 220.53989601 134.58911133 220.51757812 C133.57042465 220.52567505 132.55173798 220.53377197 131.50218201 220.54211426 C124.68677607 220.45986379 124.68677607 220.45986379 121.33818054 218.21765137 C120 216 120 216 120 212 C105.49005994 211.97738375 92.16009503 212.17393869 78.57421875 217.625 C72.65453727 219.90229823 67.01003177 220.14870211 60.72416687 220.14717102 C59.90615736 220.15084771 59.08814786 220.1545244 58.24535018 220.1583125 C55.51211177 220.16930009 52.77891144 220.17318486 50.0456543 220.17700195 C48.0822284 220.18327057 46.11880368 220.18991772 44.15538025 220.19691467 C37.71166809 220.21791872 31.26795581 220.22831701 24.82421875 220.23828125 C22.60012106 220.24233085 20.37602349 220.24644784 18.15192604 220.25063133 C7.69584561 220.26967883 -2.7602278 220.28390804 -13.21632224 220.2922433 C-25.25413314 220.30199961 -37.29175937 220.32827906 -49.32950526 220.36874419 C-58.65295857 220.39900039 -67.97635925 220.41372135 -77.29986066 220.41702431 C-82.85879196 220.41936489 -88.41752591 220.42819477 -93.97640419 220.45348549 C-99.21564411 220.47693652 -104.45455912 220.48093162 -109.69383812 220.47072411 C-111.60404421 220.47023267 -113.51426723 220.4764355 -115.42442322 220.49028015 C-130.28224009 220.59183557 -145.2221084 219.49653173 -158.5 212.125 C-159.4904834 211.59966675 -159.4904834 211.59966675 -160.50097656 211.0637207 C-162.35010965 210.06836632 -164.17784648 209.04374232 -166 208 C-166.85078125 207.51660156 -167.7015625 207.03320312 -168.578125 206.53515625 C-188.6099136 194.10535936 -201.36593763 173.56808033 -207 151 C-212.22276504 128.31331267 -207.22215638 105.78055435 -196 86 C-195.51660156 85.14792969 -195.03320312 84.29585938 -194.53515625 83.41796875 C-181.4454915 62.36068198 -160.12732409 50.24797313 -136.5625 44.39453125 C-134 44 -134 44 -130.73046875 44.0703125 C-123.68674541 44.30078796 -123.68674541 44.30078796 -117.80078125 40.98046875 C-116.54331139 39.11744942 -115.33301541 37.22210056 -114.16015625 35.3046875 C-100.34060581 14.16302444 -75.94979832 2.26555849 -52 -3 C-35.17014664 -6.15868642 -16.3058951 -5.30124392 0 0 Z M-92 35 C-92.67417969 35.57234375 -93.34835938 36.1446875 -94.04296875 36.734375 C-98.84080209 41.16990056 -102.30229065 46.59369333 -105.88671875 52.01171875 C-110.65889874 58.7598106 -110.65889874 58.7598106 -113.86889648 59.3347168 C-116.20982386 59.478263 -118.52976253 59.50207809 -120.875 59.5 C-141.53806012 60.09350718 -158.79426236 68.27054853 -173 83 C-173.66386719 83.63292969 -174.32773438 84.26585938 -175.01171875 84.91796875 C-186.36519652 96.47555399 -192.30895328 114.67307756 -192.4375 130.5 C-192.14202197 151.47477857 -184.62297911 168.94927508 -170.3125 184.1875 C-152.57537682 201.27371957 -131.57693323 204.30552938 -108.14306641 204.29052734 C-106.2625553 204.29652225 -104.38204663 204.30332999 -102.50154114 204.31088257 C-97.42501401 204.32844863 -92.34855443 204.33323387 -87.27199984 204.33451414 C-84.09315455 204.33594127 -80.91432615 204.3402214 -77.73548508 204.34550858 C-66.62540354 204.3639755 -55.51536981 204.3721831 -44.40527344 204.37060547 C-34.0805696 204.36940395 -23.75607475 204.39051708 -13.43142378 204.4220928 C-4.53845769 204.44831227 4.35444034 204.45897044 13.24744475 204.45769465 C18.54628789 204.45718683 23.84494492 204.46277072 29.14374924 204.48405075 C34.12946048 204.50352983 39.11480983 204.50349193 44.10053444 204.48901749 C45.92008434 204.48694047 47.7396575 204.49156347 49.55916786 204.5037384 C60.45749504 204.57188537 69.64586872 203.72593252 80 200 C81.08806128 199.61165167 82.17612255 199.22330334 83.29715538 198.82318687 C99.75067627 192.71398365 113.25626369 179.66574568 121 164 C128.73448355 145.38213373 131.15341684 126.24459045 124 107 C119.80624132 96.97744761 114.27240628 88.63602051 106.84765625 80.69921875 C104.56321582 77.36190725 104.12534985 74.28805201 103.625 70.375 C101.75543027 58.64465526 96.65317559 49.7398817 87.09375 42.5703125 C77.61481374 36.21340684 67.25867036 34.40744515 56 36 C51.75999715 37.27337007 47.91043066 38.93653745 44 41 C40.69257439 42.6537128 38.6761184 42.53363009 35 42 C32.92947797 40.3000412 31.2203802 38.38909098 29.40625 36.41796875 C12.18728774 19.11514791 -12.03514842 11.68834902 -35.93652344 11.6171875 C-57.25973274 11.98842945 -76.05433153 21.37739214 -92 35 Z " fill="#DAE5FC" transform="translate(208,4)"/>
<path d="M0 0 C0.97018066 0.31348389 0.97018066 0.31348389 1.95996094 0.63330078 C14.22776596 4.75862061 26.2462527 10.78828642 35.125 20.3125 C37.39254969 22.63116567 37.39254969 22.63116567 40 24 C43.31302271 23.60129813 45.96322951 22.47630084 49.0546875 21.2265625 C60.65209326 17.05540498 75.54298669 19.06296781 86.79296875 23.44140625 C91.64133617 25.79767738 95.81168201 28.62717682 100 32 C101.546875 33.051875 101.546875 33.051875 103.125 34.125 C111.33181911 41.16607776 117.55942369 54.2873922 118.6875 64.875 C119.58859568 71.23094272 122.42545947 74.52583581 126.62109375 79.2265625 C141.56622169 96.65027488 145.53227229 119.79315526 144 142 C141.50549917 165.04596893 128.64972898 187.25206059 110.71679688 201.69677734 C95.78876563 213.02866454 79.70665876 220.15179471 60.72416687 220.14717102 C59.90615736 220.15084771 59.08814786 220.1545244 58.24535018 220.1583125 C55.51211177 220.16930009 52.77891144 220.17318486 50.0456543 220.17700195 C48.0822284 220.18327057 46.11880368 220.18991772 44.15538025 220.19691467 C37.71166809 220.21791872 31.26795581 220.22831701 24.82421875 220.23828125 C22.60012106 220.24233085 20.37602349 220.24644784 18.15192604 220.25063133 C7.69584561 220.26967883 -2.7602278 220.28390804 -13.21632224 220.2922433 C-25.25413314 220.30199961 -37.29175937 220.32827906 -49.32950526 220.36874419 C-58.65295857 220.39900039 -67.97635925 220.41372135 -77.29986066 220.41702431 C-82.85879196 220.41936489 -88.41752591 220.42819477 -93.97640419 220.45348549 C-99.21564411 220.47693652 -104.45455912 220.48093162 -109.69383812 220.47072411 C-111.60404421 220.47023267 -113.51426723 220.4764355 -115.42442322 220.49028015 C-130.28224009 220.59183557 -145.2221084 219.49653173 -158.5 212.125 C-159.4904834 211.59966675 -159.4904834 211.59966675 -160.50097656 211.0637207 C-162.35010965 210.06836632 -164.17784648 209.04374232 -166 208 C-166.85078125 207.51660156 -167.7015625 207.03320312 -168.578125 206.53515625 C-188.6099136 194.10535936 -201.36593763 173.56808033 -207 151 C-212.22276504 128.31331267 -207.22215638 105.78055435 -196 86 C-195.51660156 85.14792969 -195.03320312 84.29585938 -194.53515625 83.41796875 C-181.4454915 62.36068198 -160.12732409 50.24797313 -136.5625 44.39453125 C-134 44 -134 44 -130.73046875 44.0703125 C-123.68674541 44.30078796 -123.68674541 44.30078796 -117.80078125 40.98046875 C-116.54331139 39.11744942 -115.33301541 37.22210056 -114.16015625 35.3046875 C-100.34060581 14.16302444 -75.94979832 2.26555849 -52 -3 C-35.17014664 -6.15868642 -16.3058951 -5.30124392 0 0 Z M-92 35 C-92.67417969 35.57234375 -93.34835938 36.1446875 -94.04296875 36.734375 C-98.84080209 41.16990056 -102.30229065 46.59369333 -105.88671875 52.01171875 C-110.65889874 58.7598106 -110.65889874 58.7598106 -113.86889648 59.3347168 C-116.20982386 59.478263 -118.52976253 59.50207809 -120.875 59.5 C-141.53806012 60.09350718 -158.79426236 68.27054853 -173 83 C-173.66386719 83.63292969 -174.32773438 84.26585938 -175.01171875 84.91796875 C-186.36519652 96.47555399 -192.30895328 114.67307756 -192.4375 130.5 C-192.14202197 151.47477857 -184.62297911 168.94927508 -170.3125 184.1875 C-152.57537682 201.27371957 -131.57693323 204.30552938 -108.14306641 204.29052734 C-106.2625553 204.29652225 -104.38204663 204.30332999 -102.50154114 204.31088257 C-97.42501401 204.32844863 -92.34855443 204.33323387 -87.27199984 204.33451414 C-84.09315455 204.33594127 -80.91432615 204.3402214 -77.73548508 204.34550858 C-66.62540354 204.3639755 -55.51536981 204.3721831 -44.40527344 204.37060547 C-34.0805696 204.36940395 -23.75607475 204.39051708 -13.43142378 204.4220928 C-4.53845769 204.44831227 4.35444034 204.45897044 13.24744475 204.45769465 C18.54628789 204.45718683 23.84494492 204.46277072 29.14374924 204.48405075 C34.12946048 204.50352983 39.11480983 204.50349193 44.10053444 204.48901749 C45.92008434 204.48694047 47.7396575 204.49156347 49.55916786 204.5037384 C60.45749504 204.57188537 69.64586872 203.72593252 80 200 C81.08806128 199.61165167 82.17612255 199.22330334 83.29715538 198.82318687 C99.75067627 192.71398365 113.25626369 179.66574568 121 164 C128.73448355 145.38213373 131.15341684 126.24459045 124 107 C119.80624132 96.97744761 114.27240628 88.63602051 106.84765625 80.69921875 C104.56321582 77.36190725 104.12534985 74.28805201 103.625 70.375 C101.75543027 58.64465526 96.65317559 49.7398817 87.09375 42.5703125 C77.61481374 36.21340684 67.25867036 34.40744515 56 36 C51.75999715 37.27337007 47.91043066 38.93653745 44 41 C40.69257439 42.6537128 38.6761184 42.53363009 35 42 C32.92947797 40.3000412 31.2203802 38.38909098 29.40625 36.41796875 C12.18728774 19.11514791 -12.03514842 11.68834902 -35.93652344 11.6171875 C-57.25973274 11.98842945 -76.05433153 21.37739214 -92 35 Z " fill="#010101" transform="translate(208,4)"/>
<path d="M0 0 C0.77415253 -0.0065712 1.54830505 -0.0131424 2.34591675 -0.01991272 C4.91306652 -0.0396571 7.48015781 -0.05130995 10.04736328 -0.0612793 C10.92314152 -0.06535482 11.79891975 -0.06943035 12.70123672 -0.07362938 C17.3353273 -0.0944936 21.96938822 -0.10879457 26.60351562 -0.11816406 C31.39443961 -0.1292377 36.18490031 -0.16364737 40.97566032 -0.20333576 C44.65594356 -0.22945416 48.33611553 -0.23785156 52.01648331 -0.24144554 C53.78275817 -0.24632281 55.54902769 -0.25796912 57.31521225 -0.27648354 C59.78603836 -0.30077728 62.25565405 -0.29992847 64.7265625 -0.29296875 C65.45709839 -0.30577881 66.18763428 -0.31858887 66.94030762 -0.33178711 C70.39126027 -0.2963256 72.1711243 -0.07484354 74.92550659 2.08244324 C76.55523905 4.26061925 77.27954328 5.47623397 77.49267578 8.17700195 C75.28238806 17.05876742 69.86482123 25.66032905 65.74267578 33.80200195 C65.03787316 35.20155248 64.3334433 36.60129079 63.62939453 38.0012207 C61.92143974 41.39532551 60.2084778 44.78685782 58.49267578 48.17700195 C59.93900391 48.10739258 59.93900391 48.10739258 61.41455078 48.03637695 C62.67783203 48.0002832 63.94111328 47.96418945 65.24267578 47.92700195 C67.12212891 47.85739258 67.12212891 47.85739258 69.03955078 47.78637695 C72.49267578 48.17700195 72.49267578 48.17700195 74.94580078 49.69262695 C77.17251909 53.26887151 77.21608145 56.13696141 76.49267578 60.17700195 C74.61517707 65.10581726 72.22730553 69.76118941 69.83911133 74.45581055 C69.12342526 75.89147822 68.40912596 77.32783791 67.69610596 78.76483154 C65.76220539 82.65196468 63.80852842 86.52883993 61.85064673 90.40393782 C59.80353192 94.46296171 57.77334975 98.53044107 55.74092102 102.59683228 C52.32767138 109.41958996 48.90210488 116.23604656 45.46850586 123.04858398 C41.49721632 130.92817553 37.54278356 138.81603956 33.59784287 146.70885217 C29.80188258 154.30321235 25.99680599 161.89296357 22.18659401 169.48018265 C20.56494115 172.70935672 18.9460196 175.93987846 17.32916832 179.1714592 C15.42674063 182.97230215 13.51622024 186.76896743 11.5993042 190.56252289 C10.89633057 191.95677038 10.19607011 193.35238956 9.49869728 194.74944687 C8.54807738 196.65264473 7.58779435 198.5506413 6.62480164 200.44760132 C6.08923991 201.51202139 5.55367819 202.57644146 5.00188732 203.67311668 C3.49267578 206.17700195 3.49267578 206.17700195 0.49267578 208.17700195 C-6.56230764 208.84890514 -6.56230764 208.84890514 -9.61390686 206.67922974 C-12.28897782 203.14401504 -11.99039825 199.92618625 -11.8371582 195.68041992 C-11.8212007 194.84118925 -11.80524321 194.00195858 -11.78880215 193.13729668 C-11.56625292 183.78227098 -10.92465409 174.45197413 -10.22998047 165.12231445 C-10.09735378 163.27818333 -9.96523853 161.43401536 -9.83360291 159.58981323 C-9.55951038 155.76943784 -9.28097689 151.94942376 -8.9987793 148.12963867 C-8.63769262 143.24022717 -8.28555566 138.3502215 -7.93636417 133.45994759 C-7.66530076 129.67138798 -7.39087534 125.88307821 -7.1152935 122.09484482 C-6.98418709 120.29040761 -6.85382363 118.48591625 -6.72422981 116.68136978 C-6.54325867 114.17201466 -6.35806783 111.66300693 -6.17163086 109.15405273 C-6.1191217 108.41641693 -6.06661255 107.67878113 -6.01251221 106.91879272 C-5.73676188 103.27007421 -5.32481859 99.74565995 -4.50732422 96.17700195 C-5.70276855 96.20842285 -5.70276855 96.20842285 -6.92236328 96.24047852 C-10.53388856 96.32363517 -14.14521246 96.37566229 -17.75732422 96.42700195 C-19.01158203 96.46051758 -20.26583984 96.4940332 -21.55810547 96.52856445 C-23.36601562 96.54790039 -23.36601562 96.54790039 -25.21044922 96.56762695 C-26.3206543 96.58857422 -27.43085938 96.60952148 -28.57470703 96.63110352 C-31.50732422 96.17700195 -31.50732422 96.17700195 -33.90087891 94.71508789 C-36.5165852 90.58243095 -35.99047702 85.87108604 -35.14216805 81.14087296 C-34.63468127 79.12712109 -34.05748762 77.15013039 -33.44360352 75.16625977 C-33.22409027 74.42195206 -33.00457703 73.67764435 -32.77841187 72.91078186 C-32.05812507 70.48012951 -31.32033368 68.05521287 -30.58154297 65.63012695 C-30.07218407 63.92887247 -29.56371987 62.22734988 -29.05610657 60.52557373 C-27.99356543 56.97293919 -26.92275087 53.42294459 -25.84545898 49.87475586 C-24.46708134 45.33375595 -23.10581075 40.78785135 -21.75020123 36.24000931 C-20.70300734 32.73133158 -19.648743 29.22481121 -18.59214211 25.71895599 C-18.08767887 24.04338201 -17.58495293 22.36728392 -17.08402061 20.69065094 C-16.3826272 18.34834483 -15.67222565 16.0089621 -14.95922852 13.67016602 C-14.75494736 12.98227493 -14.5506662 12.29438385 -14.3401947 11.58564758 C-13.16361206 7.76535102 -11.81139051 4.45548239 -9.50732422 1.17700195 C-6.47607284 -0.33862374 -3.32633991 0.01217588 0 0 Z " fill="#010000" transform="translate(235.50732421875,239.822998046875)"/>
<path d="M0 0 C2.24928516 1.66791912 4.31222555 3.42307111 6.37890625 5.3125 C7.71695313 6.51326172 7.71695313 6.51326172 9.08203125 7.73828125 C16.25953668 14.51376793 22.51584736 22.1153217 26.20996094 31.40161133 C27.22283059 33.45676703 27.22283059 33.45676703 29.2956543 34.19042969 C30.06949463 34.36993164 30.84333496 34.54943359 31.640625 34.734375 C32.93722046 35.05873535 32.93722046 35.05873535 34.26000977 35.38964844 C35.18612061 35.61168945 36.11223145 35.83373047 37.06640625 36.0625 C58.46326738 41.71786563 76.08280793 53.85429927 87.46972656 73.16210938 C89.78822342 77.413807 91.66231155 81.78845783 93.37890625 86.3125 C93.81203125 87.42367187 94.24515625 88.53484375 94.69140625 89.6796875 C101.22240344 109.6808664 98.62213597 132.0452544 89.56640625 150.6875 C86.45638359 156.77254784 82.88017893 162.15373805 78.37890625 167.3125 C77.60675781 168.28058594 76.83460938 169.24867188 76.0390625 170.24609375 C68.19618748 179.64164903 56.82087236 186.28258822 45.37890625 190.3125 C44.46001114 190.64569244 43.54111603 190.97888489 42.59437561 191.32217407 C30.0039215 195.28131827 17.42602079 194.8936828 4.3359375 194.84375 C1.83346913 194.84644889 -0.66899821 194.8503346 -3.17146301 194.85534668 C-8.38500065 194.86121101 -13.59826225 194.85276986 -18.81176758 194.83398438 C-24.83172123 194.8133498 -30.85100889 194.81937088 -36.87093943 194.84129 C-42.69038764 194.86162541 -48.50963094 194.85948318 -54.32909584 194.84776306 C-56.79590239 194.84509472 -59.26272275 194.84836926 -61.72951317 194.85768127 C-65.16404553 194.86781416 -68.59752851 194.85239601 -72.03198242 194.83007812 C-73.0506691 194.83817505 -74.06935577 194.84627197 -75.11891174 194.85461426 C-81.956891 194.77209137 -81.956891 194.77209137 -85.24775696 192.49499512 C-87.30886245 189.21950386 -87.21897444 187.0990777 -86.62109375 183.3125 C-84.60276256 180.45414455 -83.00671983 178.6037778 -79.48522186 177.86351013 C-76.78086213 177.69072862 -74.11876513 177.68615528 -71.40917969 177.73242188 C-70.38237091 177.72996964 -69.35556213 177.7275174 -68.29763794 177.72499084 C-66.06870661 177.72281925 -63.83974139 177.73210137 -61.61089325 177.7514801 C-58.06853524 177.78156366 -54.52738468 177.78050663 -50.98492432 177.7713623 C-42.17701306 177.75508146 -33.36947163 177.79223869 -24.56164551 177.82794189 C-17.13259334 177.85605596 -9.70405635 177.86343183 -2.27497101 177.84437561 C1.18870678 177.84376427 4.65128426 177.87280131 8.11480713 177.90319824 C29.62253089 177.94945264 47.85677969 173.7714552 63.65234375 158.22265625 C76.14457153 144.88926127 80.9563338 127.95052793 80.65234375 110.0546875 C79.95226508 92.88543147 71.75272703 77.92342356 59.37890625 66.3125 C52.73844933 60.70264199 45.50712733 57.27730195 37.37890625 54.3125 C36.41726563 53.95414062 35.455625 53.59578125 34.46484375 53.2265625 C29.91988299 51.88033362 25.32871445 51.59823516 20.62109375 51.16796875 C16.53349767 50.08943436 15.59258434 48.86218646 13.37890625 45.3125 C12.24794082 43.10711742 11.16720818 40.87549422 10.12890625 38.625 C2.06738849 21.95157095 -11.03917753 11.70488567 -28.37109375 5.5 C-42.13941541 1.33520519 -58.30874737 1.8218632 -71.37109375 8 C-75.66797369 9.73527844 -78.00743556 9.98222458 -82.62109375 9.3125 C-85.22283863 7.52264714 -85.97549321 6.17902998 -87.62109375 3.3125 C-87.74609375 0.1875 -87.74609375 0.1875 -86.62109375 -2.6875 C-83.1508893 -5.89650627 -79.77735548 -7.66281264 -75.37109375 -9.3125 C-74.3140625 -9.71726562 -73.25703125 -10.12203125 -72.16796875 -10.5390625 C-47.4153873 -18.55366487 -21.57518436 -13.89043166 0 0 Z " fill="#010101" transform="translate(414.62109375,29.6875)"/>
<path d="M0 0 C0.66 0.33 1.32 0.66 2 1 C1.38511719 1.51046875 0.77023438 2.0209375 0.13671875 2.546875 C-8.01224972 9.8770476 -9.72490302 16.16749086 -10.3046875 26.875 C-11.11675328 50.56680076 -3.72807828 72.2107992 12.6328125 89.78125 C32.05151977 107.98228256 54.77745602 112.48903764 80.58984375 112.37231445 C82.50038348 112.37474873 84.41092192 112.37847417 86.32145691 112.38337708 C91.459382 112.39269765 96.59711366 112.38343852 101.7350235 112.37004495 C107.13243094 112.35864551 112.52983005 112.36284414 117.92724609 112.36479187 C126.97838466 112.36567157 136.02944785 112.35465744 145.08056641 112.33618164 C155.53265705 112.31496778 165.98463781 112.31151696 176.43674564 112.3177436 C186.52068082 112.32344222 196.60457746 112.317789 206.68850708 112.30657005 C210.96901159 112.3019359 215.24949245 112.30104501 219.52999878 112.3031559 C224.56656189 112.30504277 229.60301348 112.29690426 234.63955116 112.2810955 C236.48419038 112.27686332 238.32884093 112.27599491 240.17348289 112.27878571 C242.69666849 112.28202341 245.2195241 112.27288631 247.74267578 112.26069641 C248.46719405 112.26447573 249.19171232 112.26825506 249.93818569 112.27214891 C254.95948435 112.22941698 259.19252519 111.29832765 264 110 C267 109.875 267 109.875 269 110 C259.39879314 120.92551126 244.97543428 126.25319035 231 129 C228.22743719 129.17599047 225.55979666 129.27113249 222.79168701 129.25396729 C222.0051928 129.25708727 221.21869858 129.26020725 220.40837121 129.26342177 C217.7939793 129.27134796 215.17982299 129.26509918 212.56542969 129.25878906 C210.68226486 129.2615014 208.7991011 129.2650637 206.91593933 129.26940918 C201.81450379 129.278509 196.71314937 129.27499817 191.61171246 129.26865101 C186.26150487 129.26357559 180.91130406 129.26828702 175.56109619 129.27142334 C166.57310749 129.27505975 157.58515167 129.27027373 148.59716797 129.26074219 C138.22712522 129.24987153 127.85716121 129.25337445 117.48712039 129.264395 C108.56709331 129.27349297 99.64708983 129.2747405 90.7270596 129.26951766 C85.40704386 129.26641004 80.08706502 129.26595501 74.7670517 129.27259064 C69.76013855 129.27839956 64.75332607 129.2743027 59.74642372 129.26280212 C57.91636891 129.26017385 56.08630552 129.260889 54.2562542 129.26532745 C30.59041479 129.3173993 10.68185894 124.38536634 -6.875 107.75 C-15.8973052 98.21023906 -21.28428321 87.51609867 -25 75 C-25.24621094 74.195625 -25.49242188 73.39125 -25.74609375 72.5625 C-30.51061798 53.63583824 -25.79741973 34.44735689 -16.22412109 17.89550781 C-12.84872466 12.66882693 -8.43673578 8.32650632 -4 4 C-3.23171875 3.23171875 -2.4634375 2.4634375 -1.671875 1.671875 C-1.12015625 1.12015625 -0.5684375 0.5684375 0 0 Z " fill="#BACEF0" transform="translate(43,79)"/>
<path d="M0 0 C1.40897804 0.00333092 1.40897804 0.00333092 2.84642029 0.00672913 C3.90744461 0.00680466 4.96846893 0.00688019 6.06164551 0.00695801 C7.79286903 0.01469994 7.79286903 0.01469994 9.55906677 0.02259827 C10.73404221 0.02401321 11.90901764 0.02542816 13.11959839 0.02688599 C16.88981116 0.0325046 20.65996556 0.04506026 24.43016052 0.05775452 C26.97898779 0.06276712 29.52781599 0.06733044 32.0766449 0.07142639 C38.34033685 0.08248007 44.60399452 0.0992363 50.86766052 0.12025452 C41.0048194 21.12542848 41.0048194 21.12542848 35.62742615 31.12220764 C33.50911143 35.22060489 32.01213685 38.39803332 32.86766052 43.12025452 C34.30339053 45.59812352 34.30339053 45.59812352 36.86766052 47.12025452 C40.36038304 47.81804833 40.36038304 47.81804833 44.11766052 47.87025452 C46.36766052 47.95358785 48.61766052 48.03692118 50.86766052 48.12025452 C44.96521455 60.69743884 38.90614832 73.18276763 32.67625427 85.60072327 C31.83697065 87.27741773 30.99786817 88.95420288 30.15893555 90.631073 C27.98585426 94.97347797 25.81037099 99.31467491 23.63432312 103.65559387 C21.40005568 108.11376639 19.16814771 112.57311982 16.9360199 117.03236389 C12.58216228 125.72946156 8.22575717 134.42528033 3.86766052 143.12025452 C2.78301071 139.69177037 2.87145077 136.78159081 3.12132263 133.20936584 C3.20148117 132.01745132 3.28163971 130.8255368 3.36422729 129.59750366 C3.4568837 128.31208176 3.5495401 127.02665985 3.64500427 125.70228577 C3.73675167 124.36197177 3.82785169 123.02161331 3.91833496 121.68121338 C4.15795651 118.15139436 4.4045954 114.62210412 4.65324402 111.09291077 C5.04918218 105.46292141 5.43641266 99.83234127 5.81999397 94.20149803 C5.95444884 92.24670766 6.09324764 90.29221761 6.23214722 88.33773804 C7.79173562 76.7430554 7.79173562 76.7430554 4.86766052 66.12025452 C1.88398326 65.12569543 -0.33275868 64.92465819 -3.45655823 64.80384827 C-4.48458557 64.76195374 -5.51261292 64.7200592 -6.5717926 64.67689514 C-7.64364807 64.63757874 -8.71550354 64.59826233 -9.81983948 64.55775452 C-10.90329651 64.51457092 -11.98675354 64.47138733 -13.1030426 64.42689514 C-15.77934739 64.32078614 -18.45574474 64.21873091 -21.13233948 64.12025452 C-19.8304303 56.5455102 -17.74222966 49.40552372 -15.31983948 42.12025452 C-12.37407075 33.10162924 -9.64062122 24.06549189 -7.15968323 14.90931702 C-6.26639052 11.6146633 -5.34626685 8.33234033 -4.38233948 5.05775452 C-4.04976135 3.92660217 -4.04976135 3.92660217 -3.71046448 2.77259827 C-2.85877992 0.33839173 -2.63404267 0.14854836 0 0 Z " fill="#FAAA67" transform="translate(240.13233947753906,255.87974548339844)"/>
<path d="M0 0 C10.18898253 7.94740638 16.03259144 18.10805804 17.6875 31 C18.68556675 36.64977068 21.92621368 39.93150539 25.62109375 44.16015625 C38.98573066 60.11432872 43.50688896 81.35512141 42.23828125 101.76611328 C40.39491366 119.04768439 32.22704982 135.77295018 20 148 C36.49914005 148.04682957 52.99825837 148.08204235 69.49744892 148.10362434 C77.15921063 148.11391392 84.82093091 148.12792966 92.48266602 148.15087891 C99.16471374 148.17088406 105.84673145 148.18373327 112.5288083 148.18817699 C116.06320711 148.19077236 119.59752009 148.19682366 123.13189125 148.21146011 C127.08835012 148.22770989 131.04472688 148.22797514 135.0012207 148.22705078 C136.1585672 148.23424133 137.3159137 148.24143188 138.5083313 148.24884033 C145.54823274 148.23111813 152.12317242 147.51530168 159 146 C150.84576496 156.99785972 136.15973206 162.59567269 123 165 C119.41153636 165.27210431 115.83869151 165.27059009 112.24121094 165.25537109 C110.66901794 165.26080177 110.66901794 165.26080177 109.06506348 165.26634216 C106.80180478 165.27320736 104.53852963 165.27574703 102.27526093 165.27439499 C98.6944819 165.27342671 95.11400049 165.28640552 91.53326416 165.30337524 C81.35715988 165.34957359 71.18108846 165.37427606 61.00488281 165.38085938 C54.77100063 165.38586398 48.53743323 165.41005202 42.30365753 165.44618607 C39.92897681 165.45600035 37.5542529 165.45830719 35.1795578 165.45301437 C31.86643056 165.44597159 28.55424873 165.46316646 25.24121094 165.48583984 C24.25828064 165.47766739 23.27535034 165.46949493 22.26263428 165.46107483 C16.99060883 165.46842864 16.99060883 165.46842864 12.42242432 167.84463501 C10.84580268 170.03157238 10.84580268 170.03157238 10 173 C1.42 173 -7.16 173 -16 173 C-12.56789741 170.25431793 -9.64297002 168.12277719 -5.9375 165.9375 C14.67767023 152.86920232 26.55111908 132.40675192 32 109 C36.63157829 86.80572551 31.22672342 63.36925397 19 44.5625 C16.75763214 41.2954172 14.51374161 38.45062455 11.6875 35.6875 C7.91246343 31.53899724 7.79487721 26.30043578 6.921875 20.9453125 C5.85941978 15.57753498 3.21662343 11.25500049 0.42578125 6.609375 C-1 4 -1 4 -1 1 C-0.67 0.67 -0.34 0.34 0 0 Z " fill="#B9CDF0" transform="translate(318,43)"/>
<path d="M0 0 C8.48219971 4.27865126 16.6370015 9.81145261 21.625 18.07080078 C22.03234375 18.73337891 22.4396875 19.39595703 22.859375 20.07861328 C26.12520961 26.08272461 25.89117978 34.06689738 24.19140625 40.55517578 C20.97720893 48.29058843 16.35607214 53.74925918 8.70703125 57.21923828 C2.12804753 59.82838747 -5.25463363 60.20119552 -12.02734375 58.00439453 C-25.87706731 51.36069255 -32.47597635 37.50984061 -38.125 23.94580078 C-39.41227467 20.19494872 -39.32808582 16.45300134 -39.375 12.50830078 C-39.40078125 11.21021484 -39.4265625 9.91212891 -39.453125 8.57470703 C-38.94261795 2.92874221 -36.31583778 -0.38721617 -32.125 -4.05419922 C-21.21994926 -7.68921613 -10.03304873 -4.67012122 0 0 Z " fill="#000000" transform="translate(335.125,453.05419921875)"/>
<path d="M0 0 C8.48219971 4.27865126 16.6370015 9.81145261 21.625 18.07080078 C22.03234375 18.73337891 22.4396875 19.39595703 22.859375 20.07861328 C26.12520961 26.08272461 25.89117978 34.06689738 24.19140625 40.55517578 C20.97720893 48.29058843 16.35607214 53.74925918 8.70703125 57.21923828 C2.12804753 59.82838747 -5.25463363 60.20119552 -12.02734375 58.00439453 C-25.87706731 51.36069255 -32.47597635 37.50984061 -38.125 23.94580078 C-39.41227467 20.19494872 -39.32808582 16.45300134 -39.375 12.50830078 C-39.40078125 11.21021484 -39.4265625 9.91212891 -39.453125 8.57470703 C-38.94261795 2.92874221 -36.31583778 -0.38721617 -32.125 -4.05419922 C-21.21994926 -7.68921613 -10.03304873 -4.67012122 0 0 Z " fill="#000000" transform="translate(103.125,389.05419921875)"/>
<path d="M0 0 C8.48219971 4.27865126 16.6370015 9.81145261 21.625 18.07080078 C22.03234375 18.73337891 22.4396875 19.39595703 22.859375 20.07861328 C26.12520961 26.08272461 25.89117978 34.06689738 24.19140625 40.55517578 C20.97720893 48.29058843 16.35607214 53.74925918 8.70703125 57.21923828 C2.12804753 59.82838747 -5.25463363 60.20119552 -12.02734375 58.00439453 C-25.87706731 51.36069255 -32.47597635 37.50984061 -38.125 23.94580078 C-39.41227467 20.19494872 -39.32808582 16.45300134 -39.375 12.50830078 C-39.40078125 11.21021484 -39.4265625 9.91212891 -39.453125 8.57470703 C-38.94261795 2.92874221 -36.31583778 -0.38721617 -32.125 -4.05419922 C-21.21994926 -7.68921613 -10.03304873 -4.67012122 0 0 Z " fill="#000000" transform="translate(167.125,245.05419921875)"/>
<path d="M0 0 C12.15116064 4.07708206 24.82168438 10.80764398 31.62109375 22.06640625 C32.0284375 22.72898437 32.43578125 23.3915625 32.85546875 24.07421875 C36.12130336 30.07833008 35.88727353 38.06250285 34.1875 44.55078125 C30.97330268 52.28619389 26.35216589 57.74486465 18.703125 61.21484375 C12.12414128 63.82399294 4.74146012 64.19680099 -2.03125 62 C-15.88097356 55.35629802 -22.4798826 41.50544608 -28.12890625 27.94140625 C-29.41618092 24.19055419 -29.33199207 20.44860681 -29.37890625 16.50390625 C-29.4046875 15.20582031 -29.43046875 13.90773438 -29.45703125 12.5703125 C-28.99479698 7.45822159 -27.36853768 5.02986311 -23.56640625 1.69140625 C-17.01311224 -3.01352278 -7.53223749 -2.18307526 0 0 Z " fill="#000000" transform="translate(429.12890625,297.05859375)"/>
<path d="M0 0 C2.05078125 0.03255208 4.1015625 0.06510417 6.15234375 0.09765625 C5.57384128 2.49474893 4.99053086 4.89043312 4.40234375 7.28515625 C4.22477539 8.01114014 4.04720703 8.73712402 3.86425781 9.48510742 C2.73000926 14.03655385 1.40270338 18.46266163 -0.09765625 22.91015625 C-1.90412817 28.68083044 -2.86307877 34.07620073 -1.84765625 40.09765625 C0.27808945 43.81771123 2.28634794 45.4398058 6.15234375 47.09765625 C7.7909232 47.409386 9.43803413 47.67854658 11.08984375 47.91015625 C15.83465536 48.79063675 18.1196891 50.21206747 21.15234375 54.09765625 C26.88302455 62.69367746 22.63629808 80.36375821 21.86425781 90.10913086 C21.77370117 91.26807861 21.68314453 92.42702637 21.58984375 93.62109375 C21.50605469 94.65153809 21.42226563 95.68198242 21.3359375 96.74365234 C21.10558467 99.89067383 21.10558467 99.89067383 21.25622559 102.21134949 C21.52386805 108.21849416 20.24183817 112.14837605 17.43359375 117.4140625 C17.05626099 118.1559935 16.67892822 118.8979245 16.29016113 119.66233826 C15.09434848 122.00403502 13.87400618 124.33185962 12.65234375 126.66015625 C11.83166976 128.25630722 11.01264268 129.85330609 10.1953125 131.45117188 C8.19988724 135.34339087 6.18237568 139.22338223 4.15234375 143.09765625 C3.06769394 139.6691721 3.156134 136.75899254 3.40600586 133.18676758 C3.4861644 131.99485306 3.56632294 130.80293854 3.64891052 129.5749054 C3.74156693 128.28948349 3.83422333 127.00406158 3.9296875 125.6796875 C4.0214349 124.3393735 4.11253491 122.99901504 4.20301819 121.65861511 C4.44263974 118.1287961 4.68927862 114.59950586 4.93792725 111.0703125 C5.33386541 105.44032314 5.72109589 99.809743 6.1046772 94.17889977 C6.23913206 92.22410939 6.37793087 90.26961935 6.51683044 88.31513977 C8.07641884 76.72045714 8.07641884 76.72045714 5.15234375 66.09765625 C2.16866649 65.10309716 -0.04807545 64.90205993 -3.171875 64.78125 C-4.19990234 64.73935547 -5.22792969 64.69746094 -6.28710938 64.65429688 C-7.35896484 64.61498047 -8.43082031 64.57566406 -9.53515625 64.53515625 C-10.61861328 64.49197266 -11.70207031 64.44878906 -12.81835938 64.40429688 C-15.49466416 64.29818787 -18.17106151 64.19613264 -20.84765625 64.09765625 C-19.54574707 56.52291193 -17.45754644 49.38292545 -15.03515625 42.09765625 C-12.08938752 33.07903097 -9.35593799 24.04289363 -6.875 14.88671875 C-5.98170729 11.59206504 -5.06158362 8.30974206 -4.09765625 5.03515625 C-3.76507813 3.90400391 -3.76507813 3.90400391 -3.42578125 2.75 C-2.63543415 0.49110253 -2.42991594 0.12843108 0 0 Z " fill="#E78C48" transform="translate(239.84765625,255.90234375)"/>
<path d="M0 0 C8.24404715 2.1727606 16.25008216 13.55055944 22.18701172 19.50805664 C24.05688073 21.38334485 25.93211219 23.25315387 27.80786133 25.12255859 C28.99893781 26.31429487 30.18970461 27.50634077 31.38012695 28.69873047 C31.94046127 29.25704056 32.50079559 29.81535065 33.07810974 30.39057922 C38.00552289 35.34817132 38.00552289 35.34817132 38.4152832 40.42919922 C38.35618947 43.38388574 38.16843284 44.44478315 36.6027832 47.05419922 C33.77096243 48.75329169 31.51757909 49.3140106 28.20556641 49.10839844 C19.96151926 46.93563784 11.95548425 35.557839 6.01855469 29.6003418 C4.14868567 27.72505359 2.27345421 25.85524457 0.39770508 23.98583984 C-0.79337141 22.79410356 -1.9841382 21.60205767 -3.17456055 20.40966797 C-3.73489487 19.85135788 -4.29522919 19.29304779 -4.87254333 18.71781921 C-9.79995648 13.76022711 -9.79995648 13.76022711 -10.2097168 8.67919922 C-10.15062307 5.72451269 -9.96286644 4.66361529 -8.3972168 2.05419922 C-5.56539602 0.35510675 -3.31201269 -0.20561216 0 0 Z " fill="#000000" transform="translate(41.897216796875,303.44580078125)"/>
<path d="M0 0 C8.24404715 2.1727606 16.25008216 13.55055944 22.18701172 19.50805664 C24.05688073 21.38334485 25.93211219 23.25315387 27.80786133 25.12255859 C28.99893781 26.31429487 30.18970461 27.50634077 31.38012695 28.69873047 C31.94046127 29.25704056 32.50079559 29.81535065 33.07810974 30.39057922 C38.00552289 35.34817132 38.00552289 35.34817132 38.4152832 40.42919922 C38.35618947 43.38388574 38.16843284 44.44478315 36.6027832 47.05419922 C33.77096243 48.75329169 31.51757909 49.3140106 28.20556641 49.10839844 C19.96151926 46.93563784 11.95548425 35.557839 6.01855469 29.6003418 C4.14868567 27.72505359 2.27345421 25.85524457 0.39770508 23.98583984 C-0.79337141 22.79410356 -1.9841382 21.60205767 -3.17456055 20.40966797 C-3.73489487 19.85135788 -4.29522919 19.29304779 -4.87254333 18.71781921 C-9.79995648 13.76022711 -9.79995648 13.76022711 -10.2097168 8.67919922 C-10.15062307 5.72451269 -9.96286644 4.66361529 -8.3972168 2.05419922 C-5.56539602 0.35510675 -3.31201269 -0.20561216 0 0 Z " fill="#000000" transform="translate(145.897216796875,351.44580078125)"/>
<path d="M0 0 C2.57552221 0.69278193 3.80084494 1.70112153 5.76293945 3.49951172 C6.80200439 4.4499939 6.80200439 4.4499939 7.86206055 5.41967773 C11.98586657 9.34938555 16.03738054 13.34517789 20.0559082 17.38232422 C20.91764648 18.24019531 21.77938477 19.09806641 22.66723633 19.98193359 C23.48514648 20.80113281 24.30305664 21.62033203 25.14575195 22.46435547 C25.88559326 23.20532471 26.62543457 23.94629395 27.38769531 24.7097168 C30.29665457 27.83616067 30.47307438 30.33651555 30.38793945 34.59326172 C30.1184082 36.56982422 30.1184082 36.56982422 28.6184082 39.06982422 C25.79477203 40.76400593 23.53970528 41.32198636 20.23681641 41.13964844 C17.6612942 40.4468665 16.43597147 39.43852691 14.47387695 37.64013672 C13.78116699 37.00648193 13.08845703 36.37282715 12.37475586 35.7199707 C8.25094984 31.79026289 4.19943587 27.79447054 0.1809082 23.75732422 C-0.68083008 22.89945312 -1.54256836 22.04158203 -2.43041992 21.15771484 C-3.65728516 19.92891602 -3.65728516 19.92891602 -4.90893555 18.67529297 C-5.64877686 17.93432373 -6.38861816 17.19335449 -7.15087891 16.42993164 C-10.05983817 13.30348777 -10.23625797 10.80313289 -10.15112305 6.54638672 C-9.8815918 4.56982422 -9.8815918 4.56982422 -8.3815918 2.06982422 C-5.55795562 0.37564251 -3.30288887 -0.18233793 0 0 Z " fill="#000000" transform="translate(345.881591796875,287.43017578125)"/>
<path d="M0 0 C2.57552221 0.69278193 3.80084494 1.70112153 5.76293945 3.49951172 C6.80200439 4.4499939 6.80200439 4.4499939 7.86206055 5.41967773 C11.98586657 9.34938555 16.03738054 13.34517789 20.0559082 17.38232422 C20.91764648 18.24019531 21.77938477 19.09806641 22.66723633 19.98193359 C23.48514648 20.80113281 24.30305664 21.62033203 25.14575195 22.46435547 C25.88559326 23.20532471 26.62543457 23.94629395 27.38769531 24.7097168 C30.29665457 27.83616067 30.47307438 30.33651555 30.38793945 34.59326172 C30.1184082 36.56982422 30.1184082 36.56982422 28.6184082 39.06982422 C25.79477203 40.76400593 23.53970528 41.32198636 20.23681641 41.13964844 C17.6612942 40.4468665 16.43597147 39.43852691 14.47387695 37.64013672 C13.78116699 37.00648193 13.08845703 36.37282715 12.37475586 35.7199707 C8.25094984 31.79026289 4.19943587 27.79447054 0.1809082 23.75732422 C-0.68083008 22.89945312 -1.54256836 22.04158203 -2.43041992 21.15771484 C-3.65728516 19.92891602 -3.65728516 19.92891602 -4.90893555 18.67529297 C-5.64877686 17.93432373 -6.38861816 17.19335449 -7.15087891 16.42993164 C-10.05983817 13.30348777 -10.23625797 10.80313289 -10.15112305 6.54638672 C-9.8815918 4.56982422 -9.8815918 4.56982422 -8.3815918 2.06982422 C-5.55795562 0.37564251 -3.30288887 -0.18233793 0 0 Z " fill="#000000" transform="translate(449.881591796875,247.43017578125)"/>
<path d="M0 0 C4.35452658 1.15055381 7.06397766 4.42229247 10.12890625 7.5625 C11.09831831 8.51240272 12.06979752 9.4601989 13.04296875 10.40625 C22.01879295 19.19709505 22.01879295 19.19709505 22.44140625 24.4375 C22.38231252 27.39218653 22.19455589 28.45308393 20.62890625 31.0625 C17.80837833 32.75481675 15.5581084 33.31949258 12.2578125 33.125 C7.90328592 31.97444619 5.19383484 28.70270753 2.12890625 25.5625 C1.15949419 24.61259728 0.18801498 23.6648011 -0.78515625 22.71875 C-9.76098045 13.92790495 -9.76098045 13.92790495 -10.18359375 8.6875 C-10.12450002 5.73281347 -9.93674339 4.67191607 -8.37109375 2.0625 C-5.55056583 0.37018325 -3.3002959 -0.19449258 0 0 Z " fill="#000000" transform="translate(73.87109375,255.4375)"/>
<path d="M0 0 C6.12875835 0.47249645 10.63642721 1.84779632 16.0625 4.6875 C16.76060791 5.04473145 17.45871582 5.40196289 18.17797852 5.77001953 C29.31105164 11.62210328 29.31105164 11.62210328 32 17 C32.58029015 24.07953977 32.58029015 24.07953977 30.1875 27.875 C27.1059411 30.86851436 25.52008147 31.94031852 21.1875 32.4375 C17.48073564 32.30874585 15.16887145 31.38030075 12.43359375 28.7265625 C6.09317095 21.09041297 0 10.04006157 0 0 Z " fill="#A2CADA" transform="translate(312,464)"/>
<path d="M0 0 C6.12875835 0.47249645 10.63642721 1.84779632 16.0625 4.6875 C16.76060791 5.04473145 17.45871582 5.40196289 18.17797852 5.77001953 C29.31105164 11.62210328 29.31105164 11.62210328 32 17 C32.58029015 24.07953977 32.58029015 24.07953977 30.1875 27.875 C27.1059411 30.86851436 25.52008147 31.94031852 21.1875 32.4375 C17.48073564 32.30874585 15.16887145 31.38030075 12.43359375 28.7265625 C6.09317095 21.09041297 0 10.04006157 0 0 Z " fill="#A2CADA" transform="translate(80,400)"/>
<path d="M0 0 C6.12875835 0.47249645 10.63642721 1.84779632 16.0625 4.6875 C16.76060791 5.04473145 17.45871582 5.40196289 18.17797852 5.77001953 C29.31105164 11.62210328 29.31105164 11.62210328 32 17 C32.58029015 24.07953977 32.58029015 24.07953977 30.1875 27.875 C27.1059411 30.86851436 25.52008147 31.94031852 21.1875 32.4375 C17.48073564 32.30874585 15.16887145 31.38030075 12.43359375 28.7265625 C6.09317095 21.09041297 0 10.04006157 0 0 Z " fill="#A2CADA" transform="translate(416,312)"/>
<path d="M0 0 C6.12875835 0.47249645 10.63642721 1.84779632 16.0625 4.6875 C16.76060791 5.04473145 17.45871582 5.40196289 18.17797852 5.77001953 C29.31105164 11.62210328 29.31105164 11.62210328 32 17 C32.58029015 24.07953977 32.58029015 24.07953977 30.1875 27.875 C27.1059411 30.86851436 25.52008147 31.94031852 21.1875 32.4375 C17.48073564 32.30874585 15.16887145 31.38030075 12.43359375 28.7265625 C6.09317095 21.09041297 0 10.04006157 0 0 Z " fill="#A2CADA" transform="translate(144,256)"/>
<path d="M0 0 C4.35452658 1.15055381 7.06397766 4.42229247 10.12890625 7.5625 C11.09831831 8.51240272 12.06979752 9.4601989 13.04296875 10.40625 C22.01879295 19.19709505 22.01879295 19.19709505 22.44140625 24.4375 C22.38231252 27.39218653 22.19455589 28.45308393 20.62890625 31.0625 C17.80837833 32.75481675 15.5581084 33.31949258 12.2578125 33.125 C7.90328592 31.97444619 5.19383484 28.70270753 2.12890625 25.5625 C1.15949419 24.61259728 0.18801498 23.6648011 -0.78515625 22.71875 C-9.76098045 13.92790495 -9.76098045 13.92790495 -10.18359375 8.6875 C-10.12450002 5.73281347 -9.93674339 4.67191607 -8.37109375 2.0625 C-5.55056583 0.37018325 -3.3002959 -0.19449258 0 0 Z " fill="#000000" transform="translate(153.87109375,479.4375)"/>
<path d="M0 0 C4.35452658 1.15055381 7.06397766 4.42229247 10.12890625 7.5625 C11.09831831 8.51240272 12.06979752 9.4601989 13.04296875 10.40625 C22.01879295 19.19709505 22.01879295 19.19709505 22.44140625 24.4375 C22.38231252 27.39218653 22.19455589 28.45308393 20.62890625 31.0625 C17.80837833 32.75481675 15.5581084 33.31949258 12.2578125 33.125 C7.90328592 31.97444619 5.19383484 28.70270753 2.12890625 25.5625 C1.15949419 24.61259728 0.18801498 23.6648011 -0.78515625 22.71875 C-9.76098045 13.92790495 -9.76098045 13.92790495 -10.18359375 8.6875 C-10.12450002 5.73281347 -9.93674339 4.67191607 -8.37109375 2.0625 C-5.55056583 0.37018325 -3.3002959 -0.19449258 0 0 Z " fill="#000000" transform="translate(409.87109375,431.4375)"/>
<path d="M0 0 C6.71096151 0.88131904 14.78422548 3.04548226 19.2421875 8.42578125 C19.9116824 12.51713896 19.62720022 14.671798 17.7421875 18.36328125 C14.8762819 20.72765337 13.06208026 21.02444364 9.37890625 20.79296875 C6.51097412 20.30012484 3.9991996 19.34588027 1.328125 18.2109375 C-0.96004962 17.34965829 -3.1662977 16.92007032 -5.5703125 16.48828125 C-8.40553974 15.88701754 -9.57025871 15.5849178 -11.8203125 13.67578125 C-13.08363087 10.64381716 -13.22353531 8.68584091 -12.7578125 5.42578125 C-10.14376235 -0.58653409 -5.87231355 -0.25126036 0 0 Z " fill="#FCFCFD" transform="translate(276.7578125,39.57421875)"/>
<path d="M0 0 C5.85655174 1.59145428 10.93188641 7.68490484 14.15625 12.5859375 C15.44553561 15.93808009 15.24146289 17.31432143 14.15625 20.7734375 C12.15625 23.5859375 12.15625 23.5859375 8.84375 25.1484375 C4.27391855 25.69062089 2.92669339 25.20216352 -0.84375 22.5859375 C-9.68307068 14.57836101 -9.68307068 14.57836101 -10.15625 8.7109375 C-10.09715627 5.75625097 -9.90939964 4.69535357 -8.34375 2.0859375 C-5.53672352 0.40172161 -3.2851966 -0.15935655 0 0 Z " fill="#000000" transform="translate(41.84375,447.4140625)"/>
<path d="M0 0 C4.33159896 1.17706493 7.14266241 4.41233641 10.15625 7.5859375 C11.39375 8.7925 11.39375 8.7925 12.65625 10.0234375 C14.90185721 13.85968316 14.71752081 16.16592984 14.15625 20.5859375 C12.65625 23.0859375 12.65625 23.0859375 10.15625 24.5859375 C5.88533683 25.36893825 3.66633607 25.56530492 0 23.1875 C-2.07404434 21.41527554 -3.96590585 19.56349018 -5.84375 17.5859375 C-6.66875 16.7815625 -7.49375 15.9771875 -8.34375 15.1484375 C-10.58935721 11.31219184 -10.40502081 9.00594516 -9.84375 4.5859375 C-7.45735798 0.60861746 -4.61578931 -0.22390023 0 0 Z " fill="#000000" transform="translate(465.84375,391.4140625)"/>
<path d="M0 0 C4.33159896 1.17706493 7.14266241 4.41233641 10.15625 7.5859375 C11.39375 8.7925 11.39375 8.7925 12.65625 10.0234375 C14.90185721 13.85968316 14.71752081 16.16592984 14.15625 20.5859375 C12.65625 23.0859375 12.65625 23.0859375 10.15625 24.5859375 C5.88533683 25.36893825 3.66633607 25.56530492 0 23.1875 C-2.07404434 21.41527554 -3.96590585 19.56349018 -5.84375 17.5859375 C-6.66875 16.7815625 -7.49375 15.9771875 -8.34375 15.1484375 C-10.58935721 11.31219184 -10.40502081 9.00594516 -9.84375 4.5859375 C-7.45735798 0.60861746 -4.61578931 -0.22390023 0 0 Z " fill="#000000" transform="translate(353.84375,391.4140625)"/>
</svg>
