<?xml version="1.0" encoding="UTF-8"?>
<svg version="1.1" xmlns="http://www.w3.org/2000/svg" width="512" height="512">
<path d="M0 0 C0.82371094 0.57878906 1.64742188 1.15757813 2.49609375 1.75390625 C17.8824162 13.35202789 33.2477831 29.04247 41.75 46.5 C45.40574961 53.0039605 52.63713619 55.20347161 59.14404297 58.13134766 C78.2795527 67.08743074 93.61798608 86.82995409 101.10058594 106.2590332 C109.55489363 129.87226635 107.87350019 157.36138765 97.17578125 179.99609375 C93.33094812 187.69344584 88.81278855 194.63313282 83 201 C82.55640137 201.48597656 82.11280273 201.97195312 81.65576172 202.47265625 C75.10711872 209.5561088 68.4878645 215.25481591 60 220 C60.63991162 223.85353372 61.80711077 227.15197992 63.3125 230.75 C67.55771082 241.59066878 70.56771554 253.32831953 71 265 C71.03996094 265.95519531 71.07992188 266.91039062 71.12109375 267.89453125 C71.82126114 301.29663433 59.49740585 332.51546576 36.625 356.75 C11.01709805 380.89806906 -21.14652976 390.77115718 -55.875 390.26171875 C-64.66791077 389.99374174 -73.48617185 388.77070091 -81.8828125 386.07421875 C-89.051064 383.9879366 -93.68784647 386.28952933 -100.0456543 389.55102539 C-140.27257187 410.17537875 -186.91025296 408.41351939 -229 395 C-243.55798407 390.17500593 -258.74496031 383.74990854 -271.26416016 374.7956543 C-273.56194202 373.74242348 -274.70747843 374.14306329 -277.0625 374.9375 C-277.80242187 375.25332031 -278.54234375 375.56914062 -279.3046875 375.89453125 C-282.68873152 377.28247974 -286.15562327 378.20463422 -289.6875 379.125 C-291.54955078 379.62386719 -291.54955078 379.62386719 -293.44921875 380.1328125 C-313.97642488 385.14605756 -336.11182295 382.26844739 -355 373 C-356.39798828 372.32130859 -356.39798828 372.32130859 -357.82421875 371.62890625 C-378.43870731 361.01977615 -394.45136857 342.17616869 -401.62109375 320.08642578 C-408.70251892 296.52217355 -407.92414969 272.2623342 -397 250 C-396.32130859 248.60201172 -396.32130859 248.60201172 -395.62890625 247.17578125 C-385.47836327 227.45236848 -367.80187592 211.70092021 -347 204 C-338.52903453 201.32628584 -329.89276613 199.42753683 -321 199 C-320.85304688 198.175 -320.70609375 197.35 -320.5546875 196.5 C-315.64352763 171.21034918 -303.01789187 146.29285311 -286 127 C-285.2575 126.14792969 -284.515 125.29585937 -283.75 124.41796875 C-281.533094 121.91240312 -279.28039996 119.44784192 -277 117 C-276.30390625 116.24976563 -275.6078125 115.49953125 -274.890625 114.7265625 C-259.38425973 98.59767892 -237.32846526 84.01488097 -215.70703125 77.6796875 C-215.02020264 77.47649902 -214.33337402 77.27331055 -213.62573242 77.06396484 C-211.75292977 76.53606074 -209.86496097 76.06281686 -207.9765625 75.59375 C-204.23706203 73.59149778 -203.82429514 72.08924547 -202.63623047 68.17138672 C-202.42627441 67.4548291 -202.21631836 66.73827148 -202 66 C-201.49425262 64.71707349 -200.96842137 63.44186494 -200.421875 62.17578125 C-200.15197754 61.54639648 -199.88208008 60.91701172 -199.60400391 60.26855469 C-192.10371017 43.08949424 -182.89339469 28.68611696 -170 15 C-169.40058594 14.33613281 -168.80117187 13.67226563 -168.18359375 12.98828125 C-149.86287309 -6.51952714 -121.54347891 -20.29391819 -95 -23 C-94.12988281 -23.10828125 -93.25976562 -23.2165625 -92.36328125 -23.328125 C-59.52304218 -26.97171357 -26.99597561 -19.0343372 0 0 Z M-105 2 C-106.15757812 2.35191406 -107.31515625 2.70382813 -108.5078125 3.06640625 C-137.55859861 12.73936031 -160.89359728 32.34591539 -174.625 59.75 C-177.05308273 64.1733231 -177.05308273 64.1733231 -178 69 C-168.40847629 69.61197512 -168.40847629 69.61197512 -159 68 C-155.29849915 64.72502971 -153.23885489 61.03183163 -150.99902344 56.72021484 C-148.85019135 53.02014864 -145.68942944 50.09554952 -142.75 47.0234375 C-140.79622811 45.02435095 -140.79622811 45.02435095 -140 42 C-138.68232003 41.30290479 -137.34608299 40.64053323 -136 40 C-134.65721769 38.82541013 -133.34720023 37.61284935 -132.0625 36.375 C-110.42368338 16.88247251 -80.20028984 8.39912792 -51.5625 8.796875 C-46.16420461 9.10467254 -40.84719358 9.79881479 -35.49609375 10.5625 C-32.60545342 10.92423376 -29.90495063 11.08921154 -27 11 C-30.42956588 8.07529408 -34.19994966 6.55050225 -38.375 5 C-39.31666016 4.62875 -39.31666016 4.62875 -40.27734375 4.25 C-51.74864049 -0.06015455 -63.24182223 -1.51587282 -75.4375 -1.375 C-76.70795166 -1.36557373 -77.97840332 -1.35614746 -79.28735352 -1.34643555 C-88.20323394 -1.20289851 -96.42655433 -0.60976525 -105 2 Z M-251 122 C-251.84175781 122.7321875 -252.68351563 123.464375 -253.55078125 124.21875 C-256.06535089 126.44713949 -258.53825389 128.71351065 -261 131 C-261.98226562 131.88365234 -261.98226562 131.88365234 -262.984375 132.78515625 C-283.66686431 152.22840549 -296.23090647 179.88780122 -301.53320312 207.43310547 C-302.45610612 211.89562575 -303.72294396 214.8009691 -307 218 C-310.26215143 219.04444236 -313.53539598 219.25492159 -316.93945312 219.54394531 C-330.66922694 220.76836724 -343.65679959 223.77430169 -355 232 C-355.90234375 232.64710938 -356.8046875 233.29421875 -357.734375 233.9609375 C-372.05116559 244.91605074 -381.3549049 260.70916549 -384.56640625 278.40234375 C-386.94639642 298.14982974 -382.86711923 316.85093053 -371 333 C-369.97281632 329.91844896 -369.93685541 328.01509625 -370.04296875 324.80078125 C-370.59202687 301.56514735 -366.57912215 281.99388608 -351 264 C-350.278125 263.01 -349.55625 262.02 -348.8125 261 C-333.56550362 243.12933217 -310.12686936 238.23622616 -288 236 C-287.81993408 235.17145508 -287.81993408 235.17145508 -287.63623047 234.32617188 C-278.62328557 193.39061404 -257.77113451 155.78707305 -221.97460938 132.26025391 C-204.7051127 121.23835209 -186.01794903 113.45629254 -166 109 C-164.59041016 108.68095703 -164.59041016 108.68095703 -163.15234375 108.35546875 C-135.34454846 102.91906433 -107.65105997 106.85248528 -81.02026367 115.38330078 C-79.02659716 115.99188104 -77.02634308 116.51254006 -75 117 C-91.16260041 99.06897257 -123.78184569 90.67340243 -147 89 C-184.77551529 87.1609481 -222.04990358 96.78383561 -251 122 Z " fill="#DFF4FE" transform="translate(406,28)"/>
<path d="M0 0 C0.82371094 0.57878906 1.64742188 1.15757813 2.49609375 1.75390625 C17.8824162 13.35202789 33.2477831 29.04247 41.75 46.5 C45.40574961 53.0039605 52.63713619 55.20347161 59.14404297 58.13134766 C78.2795527 67.08743074 93.61798608 86.82995409 101.10058594 106.2590332 C109.55489363 129.87226635 107.87350019 157.36138765 97.17578125 179.99609375 C93.33094812 187.69344584 88.81278855 194.63313282 83 201 C82.55640137 201.48597656 82.11280273 201.97195312 81.65576172 202.47265625 C75.10711872 209.5561088 68.4878645 215.25481591 60 220 C60.63991162 223.85353372 61.80711077 227.15197992 63.3125 230.75 C67.55771082 241.59066878 70.56771554 253.32831953 71 265 C71.03996094 265.95519531 71.07992188 266.91039062 71.12109375 267.89453125 C71.82126114 301.29663433 59.49740585 332.51546576 36.625 356.75 C11.01709805 380.89806906 -21.14652976 390.77115718 -55.875 390.26171875 C-64.66791077 389.99374174 -73.48617185 388.77070091 -81.8828125 386.07421875 C-89.051064 383.9879366 -93.68784647 386.28952933 -100.0456543 389.55102539 C-140.27257187 410.17537875 -186.91025296 408.41351939 -229 395 C-243.55798407 390.17500593 -258.74496031 383.74990854 -271.26416016 374.7956543 C-273.56194202 373.74242348 -274.70747843 374.14306329 -277.0625 374.9375 C-277.80242187 375.25332031 -278.54234375 375.56914062 -279.3046875 375.89453125 C-282.68873152 377.28247974 -286.15562327 378.20463422 -289.6875 379.125 C-291.54955078 379.62386719 -291.54955078 379.62386719 -293.44921875 380.1328125 C-313.97642488 385.14605756 -336.11182295 382.26844739 -355 373 C-356.39798828 372.32130859 -356.39798828 372.32130859 -357.82421875 371.62890625 C-378.43870731 361.01977615 -394.45136857 342.17616869 -401.62109375 320.08642578 C-408.70251892 296.52217355 -407.92414969 272.2623342 -397 250 C-396.32130859 248.60201172 -396.32130859 248.60201172 -395.62890625 247.17578125 C-385.47836327 227.45236848 -367.80187592 211.70092021 -347 204 C-338.52903453 201.32628584 -329.89276613 199.42753683 -321 199 C-320.85304688 198.175 -320.70609375 197.35 -320.5546875 196.5 C-315.64352763 171.21034918 -303.01789187 146.29285311 -286 127 C-285.2575 126.14792969 -284.515 125.29585937 -283.75 124.41796875 C-281.533094 121.91240312 -279.28039996 119.44784192 -277 117 C-276.30390625 116.24976563 -275.6078125 115.49953125 -274.890625 114.7265625 C-259.38425973 98.59767892 -237.32846526 84.01488097 -215.70703125 77.6796875 C-215.02020264 77.47649902 -214.33337402 77.27331055 -213.62573242 77.06396484 C-211.75292977 76.53606074 -209.86496097 76.06281686 -207.9765625 75.59375 C-204.23706203 73.59149778 -203.82429514 72.08924547 -202.63623047 68.17138672 C-202.42627441 67.4548291 -202.21631836 66.73827148 -202 66 C-201.49425262 64.71707349 -200.96842137 63.44186494 -200.421875 62.17578125 C-200.15197754 61.54639648 -199.88208008 60.91701172 -199.60400391 60.26855469 C-192.10371017 43.08949424 -182.89339469 28.68611696 -170 15 C-169.40058594 14.33613281 -168.80117187 13.67226563 -168.18359375 12.98828125 C-149.86287309 -6.51952714 -121.54347891 -20.29391819 -95 -23 C-94.12988281 -23.10828125 -93.25976562 -23.2165625 -92.36328125 -23.328125 C-59.52304218 -26.97171357 -26.99597561 -19.0343372 0 0 Z M-105 2 C-106.15757812 2.35191406 -107.31515625 2.70382813 -108.5078125 3.06640625 C-137.55859861 12.73936031 -160.89359728 32.34591539 -174.625 59.75 C-177.05308273 64.1733231 -177.05308273 64.1733231 -178 69 C-168.40847629 69.61197512 -168.40847629 69.61197512 -159 68 C-155.29849915 64.72502971 -153.23885489 61.03183163 -150.99902344 56.72021484 C-148.85019135 53.02014864 -145.68942944 50.09554952 -142.75 47.0234375 C-140.79622811 45.02435095 -140.79622811 45.02435095 -140 42 C-138.68232003 41.30290479 -137.34608299 40.64053323 -136 40 C-134.65721769 38.82541013 -133.34720023 37.61284935 -132.0625 36.375 C-110.42368338 16.88247251 -80.20028984 8.39912792 -51.5625 8.796875 C-46.16420461 9.10467254 -40.84719358 9.79881479 -35.49609375 10.5625 C-32.60545342 10.92423376 -29.90495063 11.08921154 -27 11 C-30.42956588 8.07529408 -34.19994966 6.55050225 -38.375 5 C-39.31666016 4.62875 -39.31666016 4.62875 -40.27734375 4.25 C-51.74864049 -0.06015455 -63.24182223 -1.51587282 -75.4375 -1.375 C-76.70795166 -1.36557373 -77.97840332 -1.35614746 -79.28735352 -1.34643555 C-88.20323394 -1.20289851 -96.42655433 -0.60976525 -105 2 Z M-251 122 C-251.84175781 122.7321875 -252.68351563 123.464375 -253.55078125 124.21875 C-256.06535089 126.44713949 -258.53825389 128.71351065 -261 131 C-261.98226562 131.88365234 -261.98226562 131.88365234 -262.984375 132.78515625 C-283.66686431 152.22840549 -296.23090647 179.88780122 -301.53320312 207.43310547 C-302.45610612 211.89562575 -303.72294396 214.8009691 -307 218 C-310.26215143 219.04444236 -313.53539598 219.25492159 -316.93945312 219.54394531 C-330.66922694 220.76836724 -343.65679959 223.77430169 -355 232 C-355.90234375 232.64710938 -356.8046875 233.29421875 -357.734375 233.9609375 C-372.05116559 244.91605074 -381.3549049 260.70916549 -384.56640625 278.40234375 C-387.45701748 302.38660451 -379.89924143 322.47836886 -365.2890625 341.19140625 C-357.73180104 349.45835978 -346.50869822 355.47753132 -336 359 C-334.989375 359.391875 -333.97875 359.78375 -332.9375 360.1875 C-315.29646016 365.06693655 -298.22433232 361.40357333 -282 354 C-281.3915625 353.61972656 -280.783125 353.23945313 -280.15625 352.84765625 C-275.76125768 351.1199147 -271.89825791 351.21900025 -267.59912109 352.98779297 C-264.91064404 354.39416126 -262.2994671 355.89374919 -259.6875 357.4375 C-257.72212004 358.5492367 -255.75463507 359.65725958 -253.78515625 360.76171875 C-252.80820801 361.31263184 -251.83125977 361.86354492 -250.82470703 362.43115234 C-231.67074045 373.0693018 -210.76841194 381.00684336 -189 384 C-187.07027344 384.27263672 -187.07027344 384.27263672 -185.1015625 384.55078125 C-156.06000651 388.06769556 -126.48691861 380.75269065 -100.89819336 367.15014648 C-92.05325118 362.56990658 -85.82041535 363.7221623 -76.5 366.4375 C-50.1358573 373.99127122 -23.53510459 370.07939297 0.6875 357.75 C25.43933068 343.78114506 40.28628949 322.00000603 47.984375 295.015625 C53.41709593 274.45636164 51.1640693 249.31418567 41.17578125 230.578125 C27.94461518 208.43086864 9.28089749 190.37285895 -15.5 182.125 C-19.2071038 180.69232248 -20.828955 179.29594876 -22.9140625 175.92578125 C-23.42291992 175.12108398 -23.93177734 174.31638672 -24.45605469 173.48730469 C-24.96555664 172.66649414 -25.47505859 171.84568359 -26 171 C-26.97204212 169.50876242 -27.94851637 168.02040323 -28.9296875 166.53515625 C-29.41074951 165.80296875 -29.89181152 165.07078125 -30.38745117 164.31640625 C-35.26725714 156.92261523 -40.19933321 149.71406422 -46 143 C-46.68191406 142.20851562 -47.36382812 141.41703125 -48.06640625 140.6015625 C-50.33642646 138.02697787 -52.66057237 135.51160951 -55 133 C-56.25490234 131.59427734 -56.25490234 131.59427734 -57.53515625 130.16015625 C-79.89413367 105.84396287 -116.80039845 90.50591005 -149.53613281 88.87353516 C-186.55497181 87.79684792 -222.62185553 97.28201822 -251 122 Z " fill="#010202" transform="translate(406,28)"/>
<path d="M0 0 C3.0826324 2.75077709 6.05216113 5.61011888 9.0234375 8.48046875 C9.8071875 9.20105469 10.5909375 9.92164062 11.3984375 10.6640625 C21.12862556 19.85561515 28.5666441 31.1475457 35.07421875 42.7734375 C38.5488912 47.5989846 43.12146973 49.68434415 48.5859375 51.66796875 C66.46719689 58.89608977 79.95587335 73.41334107 88.02734375 90.78515625 C93.567423 105.77595894 94.1471189 123.33760468 89.0234375 138.48046875 C88.53037109 140.04667969 88.53037109 140.04667969 88.02734375 141.64453125 C82.44072231 157.84380033 71.66925621 170.07869272 57.50390625 179.4609375 C55.0234375 180.48046875 55.0234375 180.48046875 52.890625 179.875 C50.90532532 178.39225526 49.50972922 176.91348757 47.9609375 174.98046875 C38.45215077 163.8668235 26.46826386 153.96057009 12.640625 148.7421875 C0.23385346 143.99630699 -4.23118487 137.2522639 -10.59130859 125.83544922 C-16.25949012 116.19934084 -24.32393747 107.55343183 -31.9765625 99.48046875 C-32.66758057 98.74062744 -32.66758057 98.74062744 -33.37255859 97.98583984 C-54.43575497 75.55660584 -80.41882801 60.76062836 -110.11279297 52.97558594 C-111.75364006 52.53968891 -113.38378393 52.06391672 -115.01171875 51.58203125 C-126.67833785 48.41021825 -138.96555711 48.22955956 -150.9765625 47.48046875 C-149.64238074 42.57126957 -147.43888074 39.0209207 -144.2890625 35.10546875 C-143.83845459 34.53602539 -143.38784668 33.96658203 -142.92358398 33.37988281 C-141.61735217 31.73888105 -140.29825656 30.10902204 -138.9765625 28.48046875 C-138.37328125 27.71992187 -137.77 26.959375 -137.1484375 26.17578125 C-132.42714771 20.46897951 -126.80740763 16.00935805 -120.9765625 11.48046875 C-120.17992187 10.82175781 -119.38328125 10.16304687 -118.5625 9.484375 C-89.1082303 -13.75177109 -31.09708936 -26.32233942 0 0 Z " fill="#DFF4FE" transform="translate(397.9765625,49.51953125)"/>
<path d="M0 0 C0.78769775 0.22389404 1.57539551 0.44778809 2.38696289 0.6784668 C13.86548676 4.17410697 22.83238816 9.31882411 31.125 18 C31.938479 18.8353125 32.75195801 19.670625 33.59008789 20.53125 C45.17489959 32.62969658 54.40790216 45.88458055 63.12890625 60.140625 C67.10692999 66.47781872 69.83345294 69.70473726 77.125 72 C90.57625221 76.68102354 100.6323285 84.36414802 110.6875 94.1875 C111.41710937 94.85523438 112.14671875 95.52296875 112.8984375 96.2109375 C128.26146639 110.60239144 137.80982922 130.88687812 138.81396484 151.82446289 C139.62813717 180.98687104 132.32869336 206.1448556 112.6875 228.1875 C110.1373112 230.693651 107.53073403 233.02045056 104.6875 235.1875 C103.03036556 231.87323111 104.67787783 228.50725387 105.5625 225.0625 C112.18744136 199.01962706 108.62928158 172.16799082 95.19897461 148.83154297 C91.833234 143.19998607 88.00900737 138.12512589 83.6875 133.1875 C83.08679688 132.44371094 82.48609375 131.69992187 81.8671875 130.93359375 C74.6188734 122.21438746 65.50339366 115.60309433 55.75 109.9375 C54.87867432 109.43101929 54.87867432 109.43101929 53.98974609 108.91430664 C51.09128189 107.29928783 48.36516763 106.09047688 45.18359375 105.1328125 C33.6530339 101.60278635 30.00099702 93.87748341 24.1328125 83.890625 C19.46715381 75.97138726 13.72380599 69.0875218 7.6875 62.1875 C7.2121582 61.63916504 6.73681641 61.09083008 6.24707031 60.52587891 C-14.59280849 36.63074845 -39.79017528 20.89211275 -70.3125 12.1875 C-72.06433594 11.68283203 -72.06433594 11.68283203 -73.8515625 11.16796875 C-81.10429975 9.3042907 -88.4200498 8.53119915 -95.86767578 7.9206543 C-97.03339111 7.81877808 -97.03339111 7.81877808 -98.22265625 7.71484375 C-98.91496338 7.66062256 -99.60727051 7.60640137 -100.32055664 7.55053711 C-102.58899473 7.13710808 -104.30429012 6.30079872 -106.3125 5.1875 C-92.8253821 0.39658415 -79.59644569 -4.25647654 -65.3125 -5.8125 C-64.6426709 -5.88549316 -63.9728418 -5.95848633 -63.28271484 -6.03369141 C-41.83085854 -8.17224192 -20.65287241 -5.97268717 0 0 Z " fill="#3FBCFE" transform="translate(317.3125,139.8125)"/>
<path d="M0 0 C3.0625 0.375 3.0625 0.375 4.75 2.0625 C5.67092859 3.68508846 6.58719577 5.31032723 7.5 6.9375 C9.21511054 9.61307245 10.23304017 10.92203414 13.0625 12.375 C17.79227268 12.75037878 21.90751597 12.94131367 26.0625 10.375 C27.32395768 8.01313861 27.32395768 8.01313861 28.0625 5.375 C28.8125 3.125 28.8125 3.125 30.0625 1.375 C33.15340653 0.38854047 35.02296237 -0.12800208 38 1.3125 C39.75437203 4.7180457 39.10785985 7.84934536 38.0625 11.375 C35.29617601 17.15697331 30.75934474 20.63417211 25.0625 23.375 C18.75560428 25.27804784 13.78160779 24.99555944 7.875 22.1875 C1.70169145 18.81679778 -2.35581146 15.03303886 -4.9375 8.375 C-5.25 5.125 -5.25 5.125 -4.9375 2.375 C-2.9375 0.375 -2.9375 0.375 0 0 Z " fill="#070708" transform="translate(221.9375,283.625)"/>
<path d="M0 0 C4.28635138 2.26924485 7.60201503 4.7574112 10 9 C10.86127169 13.36575649 11.01494269 17.23419062 8.75390625 21.16796875 C5.74519677 24.80693159 3.58920753 26.68804729 -1.26953125 27.2734375 C-8.98442334 27.58155915 -8.98442334 27.58155915 -12.5 24.8125 C-15.90837051 20.97808318 -16.82261505 18.62602872 -17.375 13.5625 C-16.78688714 7.97542783 -14.40354499 5.18521577 -10.1875 1.625 C-6.35990051 -0.32632523 -4.24556929 -0.6065099 0 0 Z " fill="#040404" transform="translate(290,259)"/>
<path d="M0 0 C4.29651555 2.52186782 6.23981719 5.36793996 8 10 C8.88794625 15.10569091 7.12094545 18.06664243 4.484375 22.265625 C2.17526563 24.963637 0.10013157 25.86225995 -3.40234375 26.30078125 C-12.19767442 26.34143763 -12.19767442 26.34143763 -16 23 C-19.60590219 19.02107345 -19.50634057 14.72684289 -19.34765625 9.59375 C-18.86221539 5.97203396 -17.78409065 4.34449739 -15 2 C-10.00221918 -1.48682383 -5.72111488 -1.54396076 0 0 Z " fill="#040505" transform="translate(194,260)"/>
<path d="M0 0 C4.57520713 1.79029844 7.22619873 4.99339816 10 9 C11.75187878 14.80309845 10.76242291 19.71278197 8 25 C4.97602564 28.47715853 1.64181782 30.68769208 -3.015625 31.23828125 C-8.62130623 31.42448395 -12.6954987 30.76922653 -17 27 C-20.66681559 22.8124532 -21.60040933 18.63052295 -21.3203125 13.140625 C-20.62880912 8.51935851 -18.8614884 5.77744075 -15.4375 2.6875 C-10.46210215 -0.7570062 -5.92979676 -0.46474459 0 0 Z M-10.875 8.5625 C-13.45248068 11.51902195 -14 13.08967888 -14 17 C-12.76356597 19.86332091 -11.66847461 21.49288133 -9.1875 23.375 C-6.04769336 24.27208761 -4.11164779 23.97238994 -1 23 C1.85723315 20.36833788 2.87277368 18.77926119 3.5 14.9375 C3.19998756 11.95294497 3.19998756 11.95294497 1.4375 9.6875 C-2.7894046 6.76118143 -6.29430981 6.07299446 -10.875 8.5625 Z " fill="#3EBCFF" transform="translate(176,38)"/>
<path d="M0 0 C3.7205853 3.90207727 4.65096883 6.77958146 4.9375 12.0625 C4.796958 16.75504118 3.77853541 20.20045037 0.5625 23.6875 C-4.50277922 27.47525305 -9.23545901 28.47506076 -15.4375 27.6875 C-19.4068542 26.24850805 -21.97509501 24.17361806 -24.875 21.125 C-27.0878958 16.25662923 -27.09051091 11.95189658 -26.4375 6.6875 C-24.64630171 2.10999325 -21.38896926 -0.46744213 -17.4375 -3.3125 C-11.76733648 -5.61121494 -4.71158911 -3.66071997 0 0 Z M-19.4375 8.6875 C-20.16259943 12.55469695 -19.77517324 14.12471126 -17.75 17.5 C-15.12188995 19.98605004 -14.03991706 20.6875 -10.4375 20.6875 C-7.26571798 19.50585572 -5.11934802 18.54722142 -3 15.875 C-2.19402319 12.74064573 -2.47238821 10.77585773 -3.4375 7.6875 C-6.03331908 4.86918215 -7.66758205 3.83185962 -11.4375 3.125 C-15.54139613 3.89448052 -16.97709272 5.35871368 -19.4375 8.6875 Z " fill="#EDD902" transform="translate(502.4375,394.3125)"/>
<path d="M0 0 C2.5 0.125 2.5 0.125 3.5 1.125 C3.57205511 2.81108966 3.58386068 4.50000659 3.5625 6.1875 C3.55347656 7.10660156 3.54445313 8.02570313 3.53515625 8.97265625 C3.52355469 9.68292969 3.51195313 10.39320312 3.5 11.125 C4.21027344 11.11339844 4.92054687 11.10179688 5.65234375 11.08984375 C6.57144531 11.08082031 7.49054688 11.07179688 8.4375 11.0625 C9.35402344 11.05089844 10.27054688 11.03929688 11.21484375 11.02734375 C13.5 11.125 13.5 11.125 14.5 12.125 C14.625 14.625 14.625 14.625 14.5 17.125 C13.5 18.125 13.5 18.125 11.21484375 18.22265625 C9.84005859 18.20525391 9.84005859 18.20525391 8.4375 18.1875 C7.51839844 18.17847656 6.59929687 18.16945313 5.65234375 18.16015625 C4.94207031 18.14855469 4.23179688 18.13695313 3.5 18.125 C3.51160156 18.83527344 3.52320312 19.54554687 3.53515625 20.27734375 C3.54417969 21.19644531 3.55320312 22.11554688 3.5625 23.0625 C3.57410156 23.97902344 3.58570312 24.89554688 3.59765625 25.83984375 C3.5 28.125 3.5 28.125 2.5 29.125 C0 29.25 0 29.25 -2.5 29.125 C-3.5 28.125 -3.5 28.125 -3.59765625 25.83984375 C-3.58605469 24.92332031 -3.57445313 24.00679687 -3.5625 23.0625 C-3.55347656 22.14339844 -3.54445313 21.22429687 -3.53515625 20.27734375 C-3.52355469 19.56707031 -3.51195313 18.85679688 -3.5 18.125 C-4.21027344 18.13660156 -4.92054687 18.14820312 -5.65234375 18.16015625 C-6.57144531 18.16917969 -7.49054688 18.17820312 -8.4375 18.1875 C-9.35402344 18.19910156 -10.27054687 18.21070312 -11.21484375 18.22265625 C-13.5 18.125 -13.5 18.125 -14.5 17.125 C-14.625 14.625 -14.625 14.625 -14.5 12.125 C-13.5 11.125 -13.5 11.125 -11.21484375 11.02734375 C-9.84005859 11.04474609 -9.84005859 11.04474609 -8.4375 11.0625 C-7.51839844 11.07152344 -6.59929687 11.08054687 -5.65234375 11.08984375 C-4.94207031 11.10144531 -4.23179688 11.11304687 -3.5 11.125 C-3.51160156 10.41472656 -3.52320312 9.70445313 -3.53515625 8.97265625 C-3.54869141 7.59400391 -3.54869141 7.59400391 -3.5625 6.1875 C-3.57410156 5.27097656 -3.58570312 4.35445313 -3.59765625 3.41015625 C-3.4600356 0.18983308 -3.22968262 0.16148413 0 0 Z " fill="#EDD903" transform="translate(110.5,63.875)"/>
<path d="M0 0 C2.82424288 2.19022918 4.41508603 3.83017207 6 7 C6.68128376 13.81283762 6.68128376 13.81283762 4.953125 16.82421875 C1.82207185 20.62752744 0.13366332 21.88663367 -4.75 22.375 C-8.10058068 22.35058775 -9.84894532 21.75601354 -12.4375 19.625 C-16.18982278 15.78115715 -16.33475161 13.45115053 -16.29296875 8.26171875 C-15.86344199 4.9457722 -14.39075646 3.25012373 -12 1 C-8.28546768 -0.85726616 -4.04420575 -0.58501089 0 0 Z M-9.875 6.625 C-11.36314994 9.76664987 -10.82738966 11.69044136 -10 15 C-7.28104472 16.37963682 -7.28104472 16.37963682 -4 17 C-1.1099784 15.25590249 -1.1099784 15.25590249 1 13 C0.73343428 10.06556598 0.73343428 10.06556598 0 7 C-3.67635971 4.54909352 -6.31579093 3.54035214 -9.875 6.625 Z " fill="#3EBDFF" transform="translate(485,464)"/>
<path d="M0 0 C0.8971875 0.309375 0.8971875 0.309375 1.8125 0.625 C2.1425 2.605 2.4725 4.585 2.8125 6.625 C3.616875 6.604375 4.42125 6.58375 5.25 6.5625 C7.8125 6.625 7.8125 6.625 8.8125 7.625 C8.9375 10.125 8.9375 10.125 8.8125 12.625 C7.8125 13.625 7.8125 13.625 5.25 13.6875 C4.445625 13.666875 3.64125 13.64625 2.8125 13.625 C2.4825 15.605 2.1525 17.585 1.8125 19.625 C0 20.3125 0 20.3125 -2.1875 20.625 C-3.9375 19.4375 -3.9375 19.4375 -5.1875 17.625 C-5.1875 16.305 -5.1875 14.985 -5.1875 13.625 C-5.991875 13.645625 -6.79625 13.66625 -7.625 13.6875 C-10.1875 13.625 -10.1875 13.625 -11.1875 12.625 C-11.3125 10.125 -11.3125 10.125 -11.1875 7.625 C-10.1875 6.625 -10.1875 6.625 -7.625 6.5625 C-6.4184375 6.5934375 -6.4184375 6.5934375 -5.1875 6.625 C-5.2803125 5.449375 -5.2803125 5.449375 -5.375 4.25 C-5.313125 3.38375 -5.25125 2.5175 -5.1875 1.625 C-2.1875 -0.375 -2.1875 -0.375 0 0 Z " fill="#3EBDFF" transform="translate(28.1875,115.375)"/>
<path d="M0 0 C2.5 0.125 2.5 0.125 3.5 1.125 C3.54063832 2.79117115 3.542721 4.45888095 3.5 6.125 C4.28375 6.08375 5.0675 6.0425 5.875 6 C8.5 6.125 8.5 6.125 10.5 8.125 C10.125 10.75 10.125 10.75 9.5 13.125 C7.52 13.125 5.54 13.125 3.5 13.125 C3.5 15.105 3.5 17.085 3.5 19.125 C1.125 19.75 1.125 19.75 -1.5 20.125 C-3.5 18.125 -3.5 18.125 -3.625 15.5 C-3.58375 14.71625 -3.5425 13.9325 -3.5 13.125 C-5.48 13.125 -7.46 13.125 -9.5 13.125 C-10.125 11.3125 -10.125 11.3125 -10.5 9.125 C-9.84 8.135 -9.18 7.145 -8.5 6.125 C-5.875 5.9375 -5.875 5.9375 -3.5 6.125 C-3.520625 5.320625 -3.54125 4.51625 -3.5625 3.6875 C-3.47911354 0.26865518 -3.40649644 0.17032482 0 0 Z " fill="#ED9000" transform="translate(312.5,490.875)"/>
<path d="M0 0 C3.4375 0.9375 3.4375 0.9375 5.4375 2 C6.87807326 4.79111069 6.43050122 7.03989918 6.0546875 10.09765625 C5.4375 11.9375 5.4375 11.9375 2.4375 13.9375 C-3.58237353 14.47498871 -3.58237353 14.47498871 -6.5 12.875 C-8.20152633 9.7722167 -7.98769574 7.39980815 -7.5625 3.9375 C-5.29401339 0.30792142 -4.30870043 -0.07559124 0 0 Z " fill="#9AE2FF" transform="translate(313.5625,295.0625)"/>
<path d="M0 0 C2.375 1.625 2.375 1.625 4 4 C4.48288863 7.31123632 4.29618989 9.296549 3 12.375 C0.29455964 14.5731703 -1.7087924 14.5712063 -5.125 14.3828125 C-7 14 -7 14 -9 12.375 C-10.29618989 9.296549 -10.48288863 7.31123632 -10 4 C-7.21921757 -0.06422047 -4.81255755 -0.80209293 0 0 Z " fill="#9AE2FF" transform="translate(167,295)"/>
<path d="M0 0 C1.32850242 6.40096618 1.32850242 6.40096618 -0.0625 8.9375 C-2.89875113 10.49286352 -4.82282567 10.46333792 -8 10 C-9.9375 8.375 -9.9375 8.375 -11 6 C-10.9375 2.875 -10.9375 2.875 -10 0 C-6.59554942 -3.02617829 -3.89949725 -1.59524888 0 0 Z " fill="#EE9000" transform="translate(109,126)"/>
<path d="M0 0 C3.625 0.3125 3.625 0.3125 5.625 2 C6.88826211 4.92129364 6.64516252 6.33048647 5.625 9.3125 C3.625 11.3125 3.625 11.3125 0.6875 11.625 C-2.375 11.3125 -2.375 11.3125 -4.3125 10.25 C-6.00681173 7.16037273 -5.11451685 4.64032582 -4.375 1.3125 C-3.375 0.3125 -3.375 0.3125 0 0 Z " fill="#EC8E00" transform="translate(134.375,17.6875)"/>
<path d="M0 0 C0.598125 0.226875 1.19625 0.45375 1.8125 0.6875 C2.91013864 4.08020125 2.87151808 5.52597682 1.625 8.9375 C-0.1875 11.6875 -0.1875 11.6875 -2.25 12.6875 C-2.889375 12.6875 -3.52875 12.6875 -4.1875 12.6875 C-4.8475 12.0275 -5.5075 11.3675 -6.1875 10.6875 C-5.85661765 3.73897059 -5.85661765 3.73897059 -3.875 0.625 C-2.1875 -0.3125 -2.1875 -0.3125 0 0 Z " fill="#EDD902" transform="translate(418.1875,490.3125)"/>
<path d="M0 0 C1.43861294 0.08746284 2.87597508 0.19565348 4.3125 0.3125 C5.11300781 0.37050781 5.91351563 0.42851562 6.73828125 0.48828125 C9.36272334 1.08206694 10.30820672 1.95780294 12 4 C11.34 5.65 10.68 7.3 10 9 C5.44262737 8.56179109 2.42346555 8.14958831 -1 5 C-0.67 3.35 -0.34 1.7 0 0 Z " fill="#EDD902" transform="translate(431,483)"/>
<path d="M0 0 C7.39449541 0.59633028 7.39449541 0.59633028 11 3 C11.25 5.5625 11.25 5.5625 11 8 C10.67 8.33 10.34 8.66 10 9 C2.60550459 8.40366972 2.60550459 8.40366972 -1 6 C-1.25 3.4375 -1.25 3.4375 -1 1 C-0.67 0.67 -0.34 0.34 0 0 Z " fill="#ECD902" transform="translate(402,472)"/>
<path d="M0 0 C0.680625 0.4125 1.36125 0.825 2.0625 1.25 C1.875 3.5625 1.875 3.5625 1.0625 6.25 C-1.58484263 8.38258157 -3.29699135 9.19177194 -6.6875 9.5 C-8.9375 9.25 -8.9375 9.25 -9.9375 8.25 C-9.97813832 6.58382885 -9.980221 4.91611905 -9.9375 3.25 C-3.66057692 -0.93461538 -3.66057692 -0.93461538 0 0 Z " fill="#EDD802" transform="translate(439.9375,470.75)"/>
<path d="M0 0 C1.98 0 3.96 0 6 0 C9.07692308 5.29230769 9.07692308 5.29230769 8.6875 8.875 C8.460625 9.57625 8.23375 10.2775 8 11 C6.1875 11.6875 6.1875 11.6875 4 12 C1.48501683 10.16212769 0.03111693 7.92149796 -1 5 C-0.625 2.25 -0.625 2.25 0 0 Z " fill="#EDD802" transform="translate(411,462)"/>
<path d="M0 0 C1.2065625 0.0309375 1.2065625 0.0309375 2.4375 0.0625 C4.57253265 3.88776683 5.94305836 6.63886432 5.4375 11.0625 C4.4375 12.0625 4.4375 12.0625 2.0625 12.4375 C-0.5625 12.0625 -0.5625 12.0625 -2.375 9.9375 C-3.7001956 6.7291317 -3.87512039 4.50132425 -3.5625 1.0625 C-2.5625 0.0625 -2.5625 0.0625 0 0 Z " fill="#EDD902" transform="translate(427.5625,489.9375)"/>
<path d="M0 0 C1.67542976 0.28604898 3.34385343 0.61781233 5 1 C5.95465783 3.16967689 6.14401212 4.56328793 5.3984375 6.82421875 C4.64129615 8.5684743 3.82390802 10.28627131 3 12 C1.35 12 -0.3 12 -2 12 C-3.1875 10.4375 -3.1875 10.4375 -4 8 C-1.78947368 1.78947368 -1.78947368 1.78947368 0 0 Z " fill="#EDDA02" transform="translate(426,461)"/>
<path d="M0 0 C0.33 1.65 0.66 3.3 1 5 C-2.79692186 7.82561627 -5.18569279 9.56638908 -10 9 C-10.66 7.68 -11.32 6.36 -12 5 C-7.81374099 0.67419902 -6.05150555 -0.13155447 0 0 Z " fill="#EDD802" transform="translate(413,484)"/>
<path d="M0 0 C3.29714793 0.32971479 4.6226839 0.6226839 7 3 C6.625 6.125 6.625 6.125 6 9 C0.56559513 10.32841008 0.56559513 10.32841008 -1.9375 8.875 C-3 7 -3 7 -2.8125 4.4375 C-2 2 -2 2 0 0 Z " fill="#CFD46E" transform="translate(64,91)"/>
<path d="M0 0 C2.5 0.25 2.5 0.25 4.5 2.25 C4.8125 5.25 4.8125 5.25 4.5 8.25 C1.5 10.25 1.5 10.25 -1.125 9.9375 C-3.5 9.25 -3.5 9.25 -4.5 8.25 C-4.6875 5.3125 -4.6875 5.3125 -4.5 2.25 C-2.5 0.25 -2.5 0.25 0 0 Z " fill="#467EC5" transform="translate(369.5,469.75)"/>
<path d="M0 0 C2.5 0.25 2.5 0.25 4.5 2.25 C4.8125 5.25 4.8125 5.25 4.5 8.25 C1.5 10.25 1.5 10.25 -1.125 9.9375 C-3.5 9.25 -3.5 9.25 -4.5 8.25 C-4.6875 5.3125 -4.6875 5.3125 -4.5 2.25 C-2.5 0.25 -2.5 0.25 0 0 Z " fill="#CED36E" transform="translate(462.5,433.75)"/>
</svg>
