<?xml version="1.0" encoding="UTF-8"?>
<svg version="1.1" xmlns="http://www.w3.org/2000/svg" width="512" height="512">
<path d="M0 0 C6.1548897 4.05387702 11.16041342 10.13441801 16.3125 15.34375 C19.22026762 18.21770637 22.22596482 20.92030917 25.34375 23.5625 C27 25 27 25 28.24658203 26.54858398 C30.70627285 28.58462714 32.54337302 28.49402871 35.7109375 28.66015625 C37.45262207 28.75707764 37.45262207 28.75707764 39.22949219 28.85595703 C46.37489023 29.12892937 53.52105156 29.33941744 60.67041016 29.47680664 C62.6476497 29.51638935 64.62462501 29.56854727 66.6015625 29.62109375 C67.75994629 29.6461499 68.91833008 29.67120605 70.11181641 29.69702148 C73 30 73 30 76 32 C77.22321946 35.66965837 77.19287154 39.09778317 77.24609375 42.921875 C77.27904596 44.52083852 77.31225737 46.11979672 77.34570312 47.71875 C77.3929808 50.23108087 77.43739635 52.74339233 77.47680664 55.25585938 C77.51678941 57.68642894 77.56828044 60.11655493 77.62109375 62.546875 C77.63371498 63.65974884 77.63371498 63.65974884 77.64659119 64.79510498 C77.77530829 70.29072153 78.18134371 75.6963687 81.69921875 80.15234375 C82.35535156 80.74144531 83.01148438 81.33054687 83.6875 81.9375 C86.39039091 84.46601086 88.92347949 86.98491534 91.3125 89.8125 C94.78506413 93.86516765 98.53805042 97.59658005 102.35668945 101.31958008 C105.15661986 104.06819898 106.73266649 105.75244363 107.5625 109.625 C106.79570051 114.22579691 104.54335187 115.85199069 101.1953125 118.94921875 C99.23724372 120.77837553 97.53063782 122.63695863 95.8125 124.6875 C93.57084695 127.33150103 91.22356746 129.76986153 88.70703125 132.1484375 C88.11881592 132.71087158 87.53060059 133.27330566 86.92456055 133.8527832 C85.74714153 134.97141913 84.55752189 136.07738601 83.35473633 137.16870117 C82.80712646 137.69181885 82.2595166 138.21493652 81.6953125 138.75390625 C81.20047363 139.21095947 80.70563477 139.6680127 80.19580078 140.13891602 C77.10495329 144.94935505 77.84419134 151.83980472 77.7890625 157.41796875 C77.76102418 159.01758889 77.73235999 160.61719816 77.703125 162.21679688 C77.66173406 164.71183306 77.62479909 167.20665909 77.59863281 169.7019043 C77.57104971 172.12850397 77.52522383 174.55421251 77.4765625 176.98046875 C77.47330963 177.72532028 77.47005676 178.47017181 77.46670532 179.2375946 C77.39421885 182.2910378 77.15416707 184.67715337 75.83032227 187.44946289 C73.30970009 189.58477987 71.51655151 189.62843341 68.23828125 189.828125 C67.12001953 189.90546875 66.00175781 189.9828125 64.84960938 190.0625 C63.68236328 190.124375 62.51511719 190.18625 61.3125 190.25 C60.13365234 190.32734375 58.95480469 190.4046875 57.74023438 190.484375 C54.82745121 190.67305731 51.91469744 190.84421172 49 191 C49.82890747 191.96619263 49.82890747 191.96619263 50.67456055 192.9519043 C62.84829604 207.29554833 67.97468052 223.61776917 66.78515625 242.390625 C64.58713562 259.72358766 56.33980628 274.76549835 43 286 C32.89256433 293.35201665 21.11927034 299.10490533 8.37896824 299.13422108 C7.02368687 299.14090784 7.02368687 299.14090784 5.64102608 299.14772969 C4.65738435 299.14754533 3.67374263 299.14736097 2.66029358 299.14717102 C1.08224218 299.15268605 1.08224218 299.15268605 -0.52768904 299.1583125 C-4.0587475 299.16933997 -7.58977652 299.17319164 -11.12084961 299.17700195 C-13.65056451 299.1832674 -16.18027848 299.18991428 -18.70999146 299.19691467 C-26.30611182 299.21613442 -33.90222702 299.2267427 -41.49836549 299.23564246 C-45.08037343 299.24003069 -48.66237989 299.24539619 -52.24438667 299.25063133 C-64.1607568 299.26764238 -76.07712603 299.28213422 -87.99350643 299.28938007 C-91.08396849 299.2912898 -94.17443055 299.29321016 -97.26489258 299.29516602 C-98.03296195 299.29564976 -98.80103132 299.2961335 -99.59237552 299.2966319 C-112.02100958 299.30492353 -124.44954712 299.33024631 -136.87813907 299.36274669 C-149.65428709 299.39588194 -162.43038617 299.41383474 -175.20657736 299.41702431 C-182.37339964 299.41918366 -189.54008126 299.42784725 -196.7068615 299.45348549 C-203.45465167 299.47756977 -210.20214594 299.48097777 -216.9499855 299.47072411 C-219.41939319 299.47022991 -221.88881353 299.47651581 -224.35818291 299.49028015 C-248.37883657 299.6166218 -248.37883657 299.6166218 -260 295 C-260.68865111 294.73029546 -261.37730223 294.46059092 -262.08682156 294.18271351 C-277.3743861 287.5567481 -288.53295428 274.9702864 -294.93359375 259.82421875 C-301.33528527 242.87028847 -300.55956206 225.91807605 -293.8671875 209.1640625 C-286.67564026 193.68556679 -274.09347125 182.54228857 -258.4375 176.125 C-252.96266497 174.12760205 -247.81788475 173.14446215 -242 173 C-242.03480469 172.18660156 -242.06960937 171.37320313 -242.10546875 170.53515625 C-242.75211794 143.16034052 -232.58344013 118.27325811 -213.74975586 98.34448242 C-198.89769998 83.17328746 -180.68443814 74.09982704 -160 70 C-159.071875 69.80792969 -158.14375 69.61585937 -157.1875 69.41796875 C-136.46740986 66.70099615 -113.36310501 69.38010685 -95.1796875 80.2265625 C-92.2510997 82.33545511 -92.2510997 82.33545511 -89.75 81.4375 C-86.79966098 79.01400723 -85.23661832 77.70985496 -84 74 C-83.89331217 71.11079815 -83.83885993 68.24131003 -83.82421875 65.3515625 C-83.80102213 63.60675875 -83.77690486 61.86196704 -83.75195312 60.1171875 C-83.71683609 57.36970943 -83.68748865 54.62267526 -83.67407227 51.875 C-83.65857996 49.22080971 -83.61836742 46.56791075 -83.57421875 43.9140625 C-83.57612717 43.0962027 -83.57803558 42.2783429 -83.58000183 41.43569946 C-83.49850629 37.62678442 -83.21135914 35.39099541 -81.37011719 31.98486328 C-78.27776368 29.39516056 -76.51030878 29.36059497 -72.50390625 29.328125 C-71.22193359 29.30363281 -69.93996094 29.27914062 -68.61914062 29.25390625 C-67.26692838 29.25162293 -65.91471413 29.25032486 -64.5625 29.25 C-61.93876547 29.21627924 -59.31506437 29.17984261 -56.69140625 29.140625 C-55.40919189 29.12177246 -54.12697754 29.10291992 -52.8059082 29.08349609 C-49.12011848 29.00263522 -45.44667608 28.88374772 -41.765625 28.6796875 C-40.23276855 28.59823486 -40.23276855 28.59823486 -38.66894531 28.51513672 C-33.98702809 27.61147359 -31.89055681 24.54003995 -29 21 C-27.81352367 19.93350442 -26.60370316 18.89255955 -25.375 17.875 C-20.800806 13.94911696 -16.6061847 9.65931798 -12.39208984 5.35498047 C-8.19565667 1.09335025 -6.12759644 -0.90779206 0 0 Z " fill="#C4E2EC" transform="translate(352,21)"/>
<path d="M0 0 C6.1548897 4.05387702 11.16041342 10.13441801 16.3125 15.34375 C19.22026762 18.21770637 22.22596482 20.92030917 25.34375 23.5625 C27 25 27 25 28.24658203 26.54858398 C30.70627285 28.58462714 32.54337302 28.49402871 35.7109375 28.66015625 C37.45262207 28.75707764 37.45262207 28.75707764 39.22949219 28.85595703 C46.37489023 29.12892937 53.52105156 29.33941744 60.67041016 29.47680664 C62.6476497 29.51638935 64.62462501 29.56854727 66.6015625 29.62109375 C67.75994629 29.6461499 68.91833008 29.67120605 70.11181641 29.69702148 C73 30 73 30 76 32 C77.22321946 35.66965837 77.19287154 39.09778317 77.24609375 42.921875 C77.27904596 44.52083852 77.31225737 46.11979672 77.34570312 47.71875 C77.3929808 50.23108087 77.43739635 52.74339233 77.47680664 55.25585938 C77.51678941 57.68642894 77.56828044 60.11655493 77.62109375 62.546875 C77.63371498 63.65974884 77.63371498 63.65974884 77.64659119 64.79510498 C77.77530829 70.29072153 78.18134371 75.6963687 81.69921875 80.15234375 C82.35535156 80.74144531 83.01148438 81.33054687 83.6875 81.9375 C86.39039091 84.46601086 88.92347949 86.98491534 91.3125 89.8125 C94.78506413 93.86516765 98.53805042 97.59658005 102.35668945 101.31958008 C105.15661986 104.06819898 106.73266649 105.75244363 107.5625 109.625 C106.79570051 114.22579691 104.54335187 115.85199069 101.1953125 118.94921875 C99.23724372 120.77837553 97.53063782 122.63695863 95.8125 124.6875 C93.57084695 127.33150103 91.22356746 129.76986153 88.70703125 132.1484375 C88.11881592 132.71087158 87.53060059 133.27330566 86.92456055 133.8527832 C85.74714153 134.97141913 84.55752189 136.07738601 83.35473633 137.16870117 C82.80712646 137.69181885 82.2595166 138.21493652 81.6953125 138.75390625 C81.20047363 139.21095947 80.70563477 139.6680127 80.19580078 140.13891602 C77.10495329 144.94935505 77.84419134 151.83980472 77.7890625 157.41796875 C77.76102418 159.01758889 77.73235999 160.61719816 77.703125 162.21679688 C77.66173406 164.71183306 77.62479909 167.20665909 77.59863281 169.7019043 C77.57104971 172.12850397 77.52522383 174.55421251 77.4765625 176.98046875 C77.47330963 177.72532028 77.47005676 178.47017181 77.46670532 179.2375946 C77.39421885 182.2910378 77.15416707 184.67715337 75.83032227 187.44946289 C73.30970009 189.58477987 71.51655151 189.62843341 68.23828125 189.828125 C67.12001953 189.90546875 66.00175781 189.9828125 64.84960938 190.0625 C63.68236328 190.124375 62.51511719 190.18625 61.3125 190.25 C60.13365234 190.32734375 58.95480469 190.4046875 57.74023438 190.484375 C54.82745121 190.67305731 51.91469744 190.84421172 49 191 C49.82890747 191.96619263 49.82890747 191.96619263 50.67456055 192.9519043 C62.84829604 207.29554833 67.97468052 223.61776917 66.78515625 242.390625 C64.58713562 259.72358766 56.33980628 274.76549835 43 286 C32.89256433 293.35201665 21.11927034 299.10490533 8.37896824 299.13422108 C7.02368687 299.14090784 7.02368687 299.14090784 5.64102608 299.14772969 C4.65738435 299.14754533 3.67374263 299.14736097 2.66029358 299.14717102 C1.08224218 299.15268605 1.08224218 299.15268605 -0.52768904 299.1583125 C-4.0587475 299.16933997 -7.58977652 299.17319164 -11.12084961 299.17700195 C-13.65056451 299.1832674 -16.18027848 299.18991428 -18.70999146 299.19691467 C-26.30611182 299.21613442 -33.90222702 299.2267427 -41.49836549 299.23564246 C-45.08037343 299.24003069 -48.66237989 299.24539619 -52.24438667 299.25063133 C-64.1607568 299.26764238 -76.07712603 299.28213422 -87.99350643 299.28938007 C-91.08396849 299.2912898 -94.17443055 299.29321016 -97.26489258 299.29516602 C-98.03296195 299.29564976 -98.80103132 299.2961335 -99.59237552 299.2966319 C-112.02100958 299.30492353 -124.44954712 299.33024631 -136.87813907 299.36274669 C-149.65428709 299.39588194 -162.43038617 299.41383474 -175.20657736 299.41702431 C-182.37339964 299.41918366 -189.54008126 299.42784725 -196.7068615 299.45348549 C-203.45465167 299.47756977 -210.20214594 299.48097777 -216.9499855 299.47072411 C-219.41939319 299.47022991 -221.88881353 299.47651581 -224.35818291 299.49028015 C-248.37883657 299.6166218 -248.37883657 299.6166218 -260 295 C-260.68865111 294.73029546 -261.37730223 294.46059092 -262.08682156 294.18271351 C-277.3743861 287.5567481 -288.53295428 274.9702864 -294.93359375 259.82421875 C-301.33528527 242.87028847 -300.55956206 225.91807605 -293.8671875 209.1640625 C-286.67564026 193.68556679 -274.09347125 182.54228857 -258.4375 176.125 C-252.96266497 174.12760205 -247.81788475 173.14446215 -242 173 C-242.03480469 172.18660156 -242.06960937 171.37320313 -242.10546875 170.53515625 C-242.75211794 143.16034052 -232.58344013 118.27325811 -213.74975586 98.34448242 C-198.89769998 83.17328746 -180.68443814 74.09982704 -160 70 C-159.071875 69.80792969 -158.14375 69.61585937 -157.1875 69.41796875 C-136.46740986 66.70099615 -113.36310501 69.38010685 -95.1796875 80.2265625 C-92.2510997 82.33545511 -92.2510997 82.33545511 -89.75 81.4375 C-86.79966098 79.01400723 -85.23661832 77.70985496 -84 74 C-83.89331217 71.11079815 -83.83885993 68.24131003 -83.82421875 65.3515625 C-83.80102213 63.60675875 -83.77690486 61.86196704 -83.75195312 60.1171875 C-83.71683609 57.36970943 -83.68748865 54.62267526 -83.67407227 51.875 C-83.65857996 49.22080971 -83.61836742 46.56791075 -83.57421875 43.9140625 C-83.57612717 43.0962027 -83.57803558 42.2783429 -83.58000183 41.43569946 C-83.49850629 37.62678442 -83.21135914 35.39099541 -81.37011719 31.98486328 C-78.27776368 29.39516056 -76.51030878 29.36059497 -72.50390625 29.328125 C-71.22193359 29.30363281 -69.93996094 29.27914062 -68.61914062 29.25390625 C-67.26692838 29.25162293 -65.91471413 29.25032486 -64.5625 29.25 C-61.93876547 29.21627924 -59.31506437 29.17984261 -56.69140625 29.140625 C-55.40919189 29.12177246 -54.12697754 29.10291992 -52.8059082 29.08349609 C-49.12011848 29.00263522 -45.44667608 28.88374772 -41.765625 28.6796875 C-40.23276855 28.59823486 -40.23276855 28.59823486 -38.66894531 28.51513672 C-33.98702809 27.61147359 -31.89055681 24.54003995 -29 21 C-27.81352367 19.93350442 -26.60370316 18.89255955 -25.375 17.875 C-20.800806 13.94911696 -16.6061847 9.65931798 -12.39208984 5.35498047 C-8.19565667 1.09335025 -6.12759644 -0.90779206 0 0 Z M-208.3984375 109.98828125 C-226.06493194 130.44003382 -230.55852815 153.47494012 -230.8581543 179.75366211 C-231 182 -231 182 -232 183 C-234.28781336 183.30165685 -236.58063986 183.56552159 -238.875 183.8125 C-253.31991159 185.60184716 -266.55238413 191.5870906 -276 203 C-284.860983 214.7727481 -288.19040072 227.31839112 -287 242 C-284.95998381 255.18296178 -279.14827669 267.50538339 -268.61328125 275.90234375 C-257.95173399 283.62502652 -248.68904691 287.31213712 -235.5202179 287.26069641 C-234.47731431 287.26452196 -233.43441072 287.26834751 -232.35990399 287.27228898 C-228.87180176 287.28259225 -225.38386496 287.27863181 -221.89575195 287.2746582 C-219.39205269 287.27900623 -216.88835476 287.28418968 -214.38465881 287.29014587 C-208.29284599 287.3021486 -202.20109796 287.30468807 -196.10927925 287.30234561 C-191.15435712 287.30056029 -186.19944835 287.30231669 -181.24452782 287.30657005 C-180.18540876 287.30746284 -180.18540876 287.30746284 -179.10489335 287.30837366 C-177.67030086 287.30958546 -176.23570838 287.31079959 -174.80111589 287.31201603 C-161.35328454 287.32288723 -147.90547827 287.32073148 -134.4576455 287.31463119 C-122.17329881 287.30946636 -109.88903153 287.32070673 -97.60470054 287.33972941 C-84.9753949 287.35913546 -72.34612676 287.36735871 -59.71680611 287.36360615 C-52.63283087 287.36169779 -45.54892314 287.36414562 -38.4649601 287.37832069 C-31.79925093 287.39152425 -25.13372571 287.38893692 -18.46800804 287.37590981 C-16.02679261 287.37354835 -13.58556597 287.37626319 -11.1443634 287.38453293 C-7.80096024 287.39503869 -4.45808504 287.38686854 -1.11470032 287.3742218 C-0.15834649 287.38159609 0.79800734 287.38897037 1.78334159 287.39656812 C16.47228096 287.28041145 29.01134926 282.55224709 39.67578125 272.45703125 C51.88594826 259.54914041 54.61903641 246.74270722 54.328125 229.53515625 C53.80436927 216.795442 47.44965347 207.08921967 39 198 C31.5772209 191.60722946 22.91766109 187.80202077 14 184 C14.01571045 183.43192627 14.0314209 182.86385254 14.04760742 182.27856445 C14.52497305 162.35207432 12.78231314 146.3814611 -1.51953125 131.2890625 C-12.55378443 121.10627138 -25.78517249 116.70976091 -40.57421875 116.84375 C-48.16019064 117.18974644 -54.2451109 118.54401023 -61 122 C-63.88671875 122.40234375 -63.88671875 122.40234375 -67 122 C-69.34375 119.83984375 -69.34375 119.83984375 -71.5 116.9375 C-72.27859375 115.926875 -73.0571875 114.91625 -73.859375 113.875 C-74.56578125 112.92625 -75.2721875 111.9775 -76 111 C-88.13450473 94.82066036 -108.46481235 84.81627465 -128.04516602 81.41235352 C-159.10379289 77.07805452 -186.73024667 87.60198035 -208.3984375 109.98828125 Z " fill="#030302" transform="translate(352,21)"/>
<path d="M0 0 C4.34920338 1.65734207 7.09139976 4.91148991 10.25 8.1875 C14.50493619 12.52831017 18.77708987 16.73844144 23.44921875 20.63671875 C25 22 25 22 26.875 24.375 C33.4640755 29.41370479 46.51659102 27.32628595 54.625 27.5625 C56.02474932 27.60580627 57.42448904 27.64942387 58.82421875 27.69335938 C62.21606451 27.79862355 65.60797354 27.90076009 69 28 C69.02018188 29.7468811 69.02018188 29.7468811 69.04077148 31.52905273 C69.10282866 35.88616036 69.22304731 40.24011917 69.36010742 44.59545898 C69.41125385 46.4736785 69.44701425 48.35238698 69.46655273 50.23120117 C69.22083765 62.97434331 69.22083765 62.97434331 75.3828125 73.5390625 C76.90448918 74.71554546 78.44259218 75.87124274 80 77 C81.18122256 78.28074336 82.33378277 79.58939075 83.4375 80.9375 C87.68322069 85.89417863 92.34596161 90.43023998 97 95 C92.39946967 101.67036268 86.97652043 107.23059552 81.1875 112.875 C79.47049349 114.5576918 77.75553795 116.24247981 76.04296875 117.9296875 C74.91411255 119.03159424 74.91411255 119.03159424 73.76245117 120.15576172 C70.18930264 123.89472335 70.68413319 128.03154632 70.46484375 132.9453125 C70.42186661 133.8303244 70.37888947 134.7153363 70.33460999 135.62716675 C70.19803459 138.45959511 70.06769902 141.29227206 69.9375 144.125 C69.84611331 146.04298834 69.7543216 147.96095742 69.66210938 149.87890625 C69.43670246 154.58572681 69.21689204 159.29277969 69 164 C63.46411467 164.02464775 57.928261 164.04283496 52.39233398 164.05493164 C50.5075627 164.05997244 48.62279535 164.06680498 46.73803711 164.07543945 C44.03498364 164.08751617 41.33198169 164.09323068 38.62890625 164.09765625 C37.35703209 164.10539818 37.35703209 164.10539818 36.0594635 164.11329651 C34.03928932 164.11349195 32.01922066 164.06206211 30 164 C27.67289631 161.67289631 28.3319092 156.34323278 28.26782227 153.14624023 C28.38232912 149.4660145 28.50807801 147.59131032 30.9140625 144.69921875 C33.54549074 142.99245647 36.25041826 141.50746299 39 140 C49.3617786 131.99548363 56.31753348 118.4502178 58.6015625 105.62109375 C60.53595732 88.04085851 58.20313249 72.30733379 47 58 C37.95699229 47.20490955 25.80680584 41.10709142 12 39 C-7.78778334 37.3107572 -24.59143297 39.78726102 -40.2421875 52.875 C-52.74209302 64.57302479 -56.29689164 79.59637741 -58 96 C-62.13845182 91.92723789 -65.98994102 87.66831683 -69.81640625 83.3046875 C-71.76511953 81.24790604 -73.67888158 79.61057196 -76 78 C-75.43532456 74.68818932 -74.60604511 73.40450612 -72.00146484 71.33349609 C-68.69366736 68.17296992 -68.23690052 65.70201317 -68.01528931 61.22158813 C-68.00250946 60.37760468 -67.98972961 59.53362122 -67.9765625 58.6640625 C-67.9406601 57.78471039 -67.90475769 56.90535828 -67.86776733 55.99935913 C-67.7599493 53.20809768 -67.69191244 50.41751143 -67.625 47.625 C-67.55861755 45.72516677 -67.4896348 43.82542251 -67.41796875 41.92578125 C-67.24852642 37.28434364 -67.1147305 32.64309912 -67 28 C-65.83017578 27.98130859 -64.66035156 27.96261719 -63.45507812 27.94335938 C-59.08507947 27.863178 -54.71784188 27.73157635 -50.34960938 27.58496094 C-48.46455552 27.52875817 -46.57903984 27.48622085 -44.69335938 27.45800781 C-32.31777117 27.77665201 -32.31777117 27.77665201 -21.95703125 22.11328125 C-20.9496585 20.75804787 -19.96240273 19.38752959 -19 18 C-17.76014405 16.8611591 -16.49197861 15.75170719 -15.1875 14.6875 C-9.83432003 10.09295432 -4.9436998 5.02548895 0 0 Z " fill="#F8D948" transform="translate(348,35)"/>
<path d="M0 0 C8.88023984 5.91205009 15.99749049 14.55446868 19.28515625 24.80078125 C21.88096611 39.13416614 21.20680963 53.27999292 13.33984375 65.7734375 C9.27615404 71.38113986 4.21708984 75.86026055 -1.0859375 80.2734375 C-2.8384909 77.6446074 -4.23884824 75.00289674 -5.6484375 72.18334961 C-14.13979306 55.43489709 -26.81284986 44.63757101 -44.6796875 38.640625 C-50.65248953 36.91000365 -56.5252609 36.71746768 -62.7109375 36.5859375 C-63.81050781 36.55177734 -64.91007812 36.51761719 -66.04296875 36.48242188 C-68.72385613 36.40082965 -71.40445298 36.3313965 -74.0859375 36.2734375 C-74.42425024 25.28503963 -69.86172644 15.80782815 -63.0859375 7.2734375 C-57.50672693 1.76812375 -51.44921658 -2.08935971 -44.0859375 -4.7265625 C-42.76142578 -5.25830078 -42.76142578 -5.25830078 -41.41015625 -5.80078125 C-27.62436463 -9.64006752 -12.2753329 -6.86797106 0 0 Z " fill="#F1FBFC" transform="translate(376.0859375,90.7265625)"/>
<path d="M0 0 C4.96077613 1.0410194 7.17880472 5.42691326 9.828125 9.390625 C10.46234375 10.39609375 11.0965625 11.4015625 11.75 12.4375 C12.32234375 13.31921875 12.8946875 14.2009375 13.484375 15.109375 C18.89624329 23.73621455 22.3055727 31.23261654 20.3515625 41.5390625 C18.39329806 48.125952 13.56367585 52.00618 7.91796875 55.60546875 C2.33010562 57.75000001 -5.18102846 57.54613623 -10.76953125 55.52734375 C-16.05304236 52.38552357 -19.95462667 48.21329999 -22.5625 42.625 C-24.97362258 31.44615895 -20.99882323 23.87115242 -15.25 14.4375 C-12.7819682 10.89969182 -10.17394038 7.60714966 -7.25 4.4375 C-6.5796875 3.69886719 -5.909375 2.96023438 -5.21875 2.19921875 C-3.25 0.4375 -3.25 0.4375 0 0 Z " fill="#000101" transform="translate(333.25,351.5625)"/>
<path d="M0 0 C4.87577104 0.70777322 6.07498999 2.11681422 9.0390625 5.87890625 C11.21572667 9.06054091 13.2428221 12.29721368 15.1875 15.625 C15.52515381 16.2020166 15.86280762 16.7790332 16.21069336 17.37353516 C20.17105395 24.44868479 21.79781322 30.69011255 19.875 38.5625 C17.66056574 44.14243583 14.32135238 47.94345337 8.87109375 50.50390625 C3.37772496 52.63437797 -1.43346252 53.30620684 -7.125 51.5625 C-12.73990414 48.94040306 -17.14434448 45.65752539 -19.52734375 39.81640625 C-21.72598524 31.52479748 -20.17852144 25.13105362 -16.12109375 17.70703125 C-5.51062733 0.99191292 -5.51062733 0.99191292 0 0 Z " fill="#000101" transform="translate(259.125,331.4375)"/>
<path d="M0 0 C5.72352781 4.52659234 9.16140816 11.7810526 12.4375 18.1875 C12.95062744 19.18426758 12.95062744 19.18426758 13.47412109 20.20117188 C16.20223479 25.79345787 18.03214937 31.36485211 15.9375 37.5 C13.92544954 42.81108814 11.1032647 47.19458099 6.11328125 50.09765625 C0.08336406 52.64467431 -5.35789443 52.86551734 -11.625 50.8125 C-17.46861486 47.67426239 -21.89105064 44.44401194 -24 38 C-25.62170934 26.97565269 -21.7750236 19.17643243 -15.4453125 10.390625 C-7.17683734 -0.71948244 -7.17683734 -0.71948244 0 0 Z " fill="#000101" transform="translate(236,414)"/>
<path d="M0 0 C4.10071652 1.45222827 5.81994589 3.96158387 8.12890625 7.4609375 C8.55937256 8.0907251 8.98983887 8.7205127 9.43334961 9.36938477 C14.44993252 16.88428486 20.02339774 25.69100327 18.80859375 35.078125 C17.53853421 41.19750278 15.06475725 45.57697858 10.00390625 49.3984375 C4.21287103 52.72520242 -1.3901216 52.81668058 -7.93359375 52.0859375 C-13.63233499 49.92563036 -17.44079253 45.95469072 -20.93359375 41.0859375 C-22.98027206 34.94590258 -22.98508558 28.81725163 -20.65234375 22.7578125 C-8.92437342 0.26143304 -8.92437342 0.26143304 0 0 Z " fill="#000101" transform="translate(175.93359375,358.9140625)"/>
<path d="M0 0 C7.57098416 6.08680445 13.45477478 16.76446848 16 26 C16.66791427 32.17603844 16.74041127 37.8116876 13 43 C7.8291877 48.18330219 3.62977434 51.28385582 -3.875 51.3125 C-10.30069443 51.18757763 -13.84521256 49.90423076 -18.6875 45.625 C-22.94499122 40.79217213 -25.16144253 36.57301709 -25 30 C-23.15986434 18.21530144 -15.28392768 8.18871012 -7 0 C-4.25609495 -1.37195252 -2.90421191 -0.86424433 0 0 Z " fill="#000101" transform="translate(142,440)"/>
<path d="M0 0 C4.99534749 4.66885419 9.43151541 10.63721127 10.3359375 17.578125 C10.09070524 21.47602723 9.40784074 23.49328878 6.9375 26.5625 C3.11619903 28.43249834 0.17398744 28.80950059 -4 28 C-7.93479036 25.99074535 -8.78887812 24.63336564 -10.1875 20.4375 C-10.68829091 13.40006988 -5.6291547 7.18649709 -1.625 1.8125 C-1.08875 1.214375 -0.5525 0.61625 0 0 Z " fill="#30D0F5" transform="translate(332,368)"/>
<path d="M0 0 C4.41509748 3.78436927 7.29626851 8.43614878 8.42578125 14.15625 C8.66796937 17.86518813 8.29076126 19.65792793 5.875 22.5 C2.46714413 24.27801176 0.78454468 24.70960213 -3 24 C-6.41859092 21.5475326 -7.7645885 19.98088125 -8.75 15.875 C-7.62450097 10.0599217 -4.23248578 4.23248578 0 0 Z " fill="#30CFF4" transform="translate(232,430)"/>
<path d="M0 0 C8.15792079 9.61469236 8.15792079 9.61469236 8.5 16.1875 C8 20 8 20 6.5 22.5 C2.96411027 24.62153384 0.02098277 24.791013 -4 24 C-6.5 22.5 -6.5 22.5 -8 20 C-9.14528423 14.06534538 -7.76877701 11.14240391 -4.5625 6.0625 C-1.36206897 1.36206897 -1.36206897 1.36206897 0 0 Z " fill="#30D0F4" transform="translate(138,455)"/>
<path d="M0 0 C4.59469983 4.2713192 8.25142853 9.92357067 8.5625 16.3125 C8 20 8 20 6.5 22.5 C2.96411027 24.62153384 0.02098277 24.791013 -4 24 C-6.5 22.5 -6.5 22.5 -8 20 C-9.14528423 14.06534538 -7.76877701 11.14240391 -4.5625 6.0625 C-1.36206897 1.36206897 -1.36206897 1.36206897 0 0 Z " fill="#30CFF4" transform="translate(174,375)"/>
<path d="M0 0 C4.65845513 4.15933494 8.14430269 8.79229795 8.5625 15.125 C8 19 8 19 5.9375 22.0625 C3 24 3 24 -0.5625 24.0625 C-4.30475404 22.9058033 -5.85214665 22.26473709 -8 19 C-9.207577 13.62079335 -7.37095943 10.58039551 -4.5625 6.125 C-1.32635983 1.32635983 -1.32635983 1.32635983 0 0 Z " fill="#30CFF4" transform="translate(259,348)"/>
</svg>
